
<svg xmlns="http://www.w3.org/2000/svg" version="1.1" xmlns:xlink="http://www.w3.org/1999/xlink" preserveAspectRatio="none" x="0px" y="0px" width="92px" height="140px" viewBox="0 0 92 140">
<defs>
<g id="Layer4_0_FILL">
<path fill="#006666" stroke="none" d="
M -1.15 -0.9
L -1.15 141.1 92.85 141.1 92.85 -0.9 -1.15 -0.9 Z"/>
</g>

<g id="Layer3_0_FILL">
<path fill="#FFFFFF" stroke="none" d="
M 83.2 10.45
Q 83.2 8.6 81.4 8.6
L 9.9 8.6
Q 8.1 8.6 8.1 10.45
L 8.1 129.25
Q 8.1 131.1 9.9 131.1
L 81.4 131.1
Q 83.2 131.1 83.2 129.25
L 83.2 10.45 Z"/>
</g>

<g id="Layer1_0_FILL">
<path fill="#003333" stroke="none" d="
M 64.7 14.4
Q 64.05 14.4 63.35 14.5 62.3 14.9 61.4 15.75 60.1 17.05 60.05 18.95 60.05 17.05 58.7 15.75 57.3 14.4 55.3 14.4
L 55.25 14.4
Q 54.6 14.4 53.95 14.5 52.85 14.9 52 15.75 50.65 17.05 50.6 18.95 50.55 17.05 49.2 15.75 47.85 14.4 45.85 14.4 45.15 14.4 44.5 14.5 43.45 14.9 42.55 15.75 41.25 17.05 41.2 18.95 41.15 17.05 39.8 15.75 38.45 14.4 36.45 14.4
L 36.4 14.4
Q 35.75 14.4 35.1 14.5 34 14.9 33.15 15.75 31.8 17.05 31.8 18.95 31.75 17.05 30.4 15.75 29.05 14.4 27.05 14.4
L 27 14.4
Q 26.3 14.4 25.7 14.5 24.6 14.9 23.7 15.75 22.4 17.05 22.35 18.95 22.3 17.05 20.95 15.75 19.55 14.4 17.65 14.4
L 17.6 14.4
Q 16.9 14.4 16.3 14.5 15.2 14.9 14.3 15.75 12.9 17.1 12.9 19 12.9 21 14.3 22.4 15.4 23.45 16.9 23.65
L 17.1 23.65
Q 16.6697265625 23.661328125 16.3 23.8 15.2 24.15 14.3 25 12.9 26.35 12.9 28.3 12.9 30.25 14.3 31.65 15.4 32.75 16.9 32.9 17.18125 32.946875 17.4 32.95 16.835546875 32.956640625 16.3 33.2 15.2 33.5 14.3 34.35 12.9 35.75 12.9 37.7 12.9 39.6 14.3 40.95 15.6 42.3 17.5 42.35 16.85 42.35 16.3 42.6 15.2 42.9 14.3 43.75 12.9 45.1 12.9 47.05 12.9 49 14.3 50.4 15.6 51.7 17.5 51.75 16.85 51.75 16.3 51.95 15.2 52.3 14.3 53.15 12.9 54.5 12.9 56.45 12.9 58.4 14.3 59.75 15.5875 61.087109375 17.35 61.1 16.8328125 61.1078125 16.3 61.35 15.2 61.65 14.3 62.5 12.9 63.85 12.9 65.8 12.9 67.75 14.3 69.1 15.6 70.45 17.5 70.5 16.85 70.5 16.3 70.7 15.2 71.05 14.3 71.85 12.9 73.25 12.9 75.25 12.9 77.15 14.3 78.5 15.6 79.85 17.5 79.9 16.85 79.9 16.3 80.15 15.2 80.4 14.3 81.3 12.9 82.6 12.9 84.55 12.9 86.5 14.3 87.9 15.6 89.2 17.5 89.25 16.85 89.25 16.3 89.45 15.2 89.8 14.3 90.6 12.9 92 12.9 93.95 12.9 95.9 14.3 97.3 15.6 98.6 17.5 98.65 16.85 98.65 16.3 98.85 15.2 99.2 14.3 100.05 12.9 101.4 12.9 103.35 12.9 105.3 14.3 106.65 15.6 107.95 17.5 108 16.85 108 16.3 108.25 15.2 108.55 14.3 109.4 12.9 110.8 12.9 112.7 12.9 114.65 14.3 116 15.6 117.35 17.5 117.4 16.85 117.4 16.3 117.6 15.2 117.95 14.3 118.8 12.9 120.1 12.9 122.05 12.9 124.05 14.3 125.45 15.4 126.55 16.95 126.75
L 18.4 126.75
Q 19.85 126.55 20.95 125.45 22.3 124.05 22.35 122.15 22.4 124.1 23.7 125.45 24.85 126.55 26.4 126.75
L 27.85 126.75
Q 29.25 126.55 30.4 125.45 31.75 124.05 31.8 122.15 31.8 124.1 33.15 125.45 34.2 126.55 35.8 126.75
L 37.3 126.75
Q 38.65 126.55 39.8 125.45 41.15 124.05 41.2 122.15 41.25 124.1 42.55 125.45 43.65 126.55 45.25 126.75
L 46.7 126.75
Q 48.1 126.55 49.2 125.45 50.55 124.05 50.6 122.15 50.65 124.1 52 125.45 53.1 126.55 54.65 126.75
L 56.05 126.75
Q 57.5 126.55 58.7 125.45 60.05 124.05 60.05 122.15 60.1 124.1 61.4 125.45 62.5 126.55 64.1 126.75
L 65.55 126.75
Q 66.95 126.55 68.05 125.45 69.4 124.05 69.45 122.15 69.5 124.1 70.85 125.45 71.9 126.55 73.5 126.75
L 74.9 126.75
Q 76.35 126.55 77.5 125.45 78.85 124.05 78.85 122.15
L 78.85 122
Q 78.85 120.05 77.5 118.8 76.15 117.45 74.3 117.4 76.1 117.4 77.5 116 78.85 114.65 78.85 112.8
L 78.85 112.65
Q 78.85 110.75 77.5 109.4 76.15 108.05 74.3 108 76.1 108 77.5 106.65 78.85 105.3 78.85 103.45
L 78.85 103.25
Q 78.85 101.35 77.5 100.05 76.17109375 98.671875 74.5 98.65 76.12265625 98.628125 77.5 97.3 78.85 95.9 78.85 94.05
L 78.85 93.85
Q 78.85 91.95 77.5 90.6 76.15 89.3 74.3 89.25 76.1 89.25 77.5 87.9 78.85 86.5 78.85 84.65
L 78.85 84.45
Q 78.85 82.6 77.5 81.3 76.15 79.95 74.3 79.9 76.1 79.9 77.5 78.5 78.85 77.15 78.85 75.3
L 78.85 75.15
Q 78.85 73.25 77.5 71.85 76.17109375 70.52109375 74.5 70.5 76.12265625 70.47734375 77.5 69.1 78.85 67.75 78.85 65.9
L 78.85 65.7
Q 78.85 63.8 77.5 62.5 76.15 61.15 74.3 61.1 76.1 61.1 77.5 59.75 78.85 58.4 78.85 56.55
L 78.85 56.35
Q 78.85 54.45 77.5 53.15 76.15 51.8 74.3 51.75 76.1 51.75 77.5 50.4 78.85 49 78.85 47.15
L 78.85 47
Q 78.85 45.05 77.5 43.75 76.15 42.4 74.3 42.35 76.1 42.35 77.5 40.95 78.85 39.6 78.85 37.75
L 78.85 37.6
Q 78.85 35.7 77.5 34.35 76.15 33 74.3 32.95 74.6 32.95 74.95 32.9 76.35 32.75 77.5 31.65 78.85 30.25 78.85 28.4
L 78.85 28.2
Q 78.85 26.3 77.5 25 76.15 23.7 74.25 23.65
L 74.95 23.65
Q 76.35 23.45 77.5 22.4 78.85 21 78.85 19.1
L 78.85 18.95
Q 78.85 17.05 77.5 15.75 76.1 14.4 74.1 14.4 73.45 14.4 72.8 14.5 71.7 14.9 70.85 15.75 69.5 17.05 69.45 18.95 69.4 17.05 68.05 15.75 66.75 14.4 64.75 14.4
L 64.7 14.4
M 64.5 15.85
Q 64.65 15.4 64.7 15 64.75 14.9 64.75 14.8 64.9 16.4 66.15 17.65 67.4 19 69.3 19 67.4 19.05 66.15 20.4 64.9 21.6 64.75 23.3
L 64.75 23.6
Q 64.7 21.7 63.35 20.4 62 19.05 60.1 19 62 19 63.35 17.65 64.2 16.85 64.5 15.85
M 64.25 23.65
Q 63.8125 23.661328125 63.35 23.8 62.3 24.15 61.4 25 60.1 26.3 60.05 28.2 60.05 26.3 58.7 25 57.35 23.7 55.45 23.65
L 56.1 23.65
Q 57.55 23.45 58.7 22.4 60.05 21 60.05 19.1 60.1 21.05 61.4 22.4 62.5 23.45 64.05 23.65
L 64.25 23.65
M 64.7 24.3
Q 64.75 24.15 64.75 24.05 64.9 25.7 66.15 26.9 67.4 28.25 69.3 28.3 67.4 28.35 66.15 29.7 64.9 30.85 64.75 32.55
L 64.75 32.85
Q 64.7 31 63.35 29.7 62 28.35 60.1 28.3 62 28.25 63.35 26.9 64.2 26.15 64.5 25.1 64.65 24.7 64.7 24.3
M 64.9 23.65
L 65.6 23.65
Q 66.95 23.45 68.05 22.4 69.4 21 69.45 19.1 69.5 21.05 70.85 22.4 71.9 23.45 73.45 23.65
L 73.65 23.65
Q 73.216015625 23.661328125 72.8 23.8 71.7 24.15 70.85 25 69.5 26.3 69.45 28.2 69.4 26.3 68.05 25 66.8 23.7 64.9 23.65
M 73.9 15.85
Q 74.05 15.4 74.1 15 74.1 14.9 74.1 14.8 74.25 16.4 75.5 17.65 76.85 19 78.75 19 76.85 19.05 75.5 20.4 74.25 21.6 74.1 23.3 74 21.65 72.8 20.4 71.4 19.05 69.55 19 71.4 19 72.8 17.65 73.55 16.85 73.9 15.85
M 74.1 24.3
Q 74.1 24.15 74.1 24.05 74.25 25.7 75.5 26.9 76.85 28.25 78.75 28.3 76.85 28.35 75.5 29.7 74.25 30.85 74.1 32.55 74 30.9 72.8 29.7 71.4 28.35 69.55 28.3 71.4 28.25 72.8 26.9 73.55 26.15 73.9 25.1 74.05 24.7 74.1 24.3
M 45.85 14.8
Q 46 16.4 47.2 17.65 48.55 19 50.5 19 48.55 19.05 47.2 20.4 46 21.6 45.85 23.3 45.8 21.65 44.5 20.4 43.15 19.05 41.3 19 43.15 19 44.5 17.65 45.35 16.85 45.7 15.85 45.8 15.4 45.85 15 45.85 14.9 45.85 14.8
M 42.55 22.4
Q 43.65 23.45 45.2 23.65
L 45.4 23.65
Q 44.919140625 23.6603515625 44.5 23.8 43.45 24.15 42.55 25 41.25 26.3 41.2 28.2 41.15 26.3 39.8 25 38.5 23.7 36.6 23.65
L 37.3 23.65
Q 38.7 23.45 39.8 22.4 41.15 21 41.2 19.1 41.25 21.05 42.55 22.4
M 49.2 22.4
Q 50.55 21 50.6 19.1 50.65 21.05 52 22.4 53.05 23.45 54.6 23.65
L 54.8 23.65
Q 54.366015625 23.661328125 53.95 23.8 52.85 24.15 52 25 50.65 26.3 50.6 28.2 50.55 26.3 49.2 25 47.9 23.7 46 23.65
L 46.7 23.65
Q 48.1 23.45 49.2 22.4
M 45.85 24.3
Q 45.85 24.15 45.85 24.05 46 25.7 47.2 26.9 48.55 28.25 50.5 28.3 48.55 28.35 47.2 29.7 46 30.85 45.85 32.55 45.8 30.9 44.5 29.7 43.15 28.35 41.3 28.3 43.15 28.25 44.5 26.9 45.35 26.15 45.7 25.1 45.8 24.7 45.85 24.3
M 55.1 15.85
Q 55.2 15.4 55.25 15 55.3 14.9 55.3 14.8 55.4 16.4 56.7 17.65 58.05 19 59.95 19 58.05 19.05 56.7 20.4 55.4 21.6 55.3 23.3
L 55.3 23.6
Q 55.25 21.7 53.95 20.4 52.55 19.05 50.7 19 52.55 19 53.95 17.65 54.75 16.85 55.1 15.85
M 55.25 24.3
Q 55.3 24.15 55.3 24.05 55.4 25.7 56.7 26.9 58.05 28.25 59.95 28.3 58.05 28.35 56.7 29.7 55.4 30.85 55.3 32.55
L 55.3 32.85
Q 55.25 31 53.95 29.7 52.55 28.35 50.7 28.3 52.55 28.25 53.95 26.9 54.75 26.15 55.1 25.1 55.2 24.7 55.25 24.3
M 55.1 32.95
Q 54.5314453125 32.9578125 53.95 33.2 52.85 33.5 52 34.35 50.65 35.7 50.6 37.6 50.55 35.7 49.2 34.35 47.9 33 46.05 32.95 46.35 32.95 46.7 32.9 48.1 32.75 49.2 31.65 50.55 30.25 50.6 28.4 50.65 30.3 52 31.65 53.05 32.75 54.6 32.9 54.834375 32.946875 55.1 32.95
M 55.25 33.65
Q 55.3 33.5 55.3 33.45 55.4 35.05 56.7 36.3 58.05 37.65 59.95 37.7 58.05 37.75 56.7 39 55.4 40.25 55.3 41.95
L 55.3 42.25
Q 55.25 40.35 53.95 39 52.55 37.75 50.7 37.7 52.55 37.65 53.95 36.3 54.75 35.5 55.1 34.5 55.2 34.1 55.25 33.65
M 56.1 32.9
Q 57.55 32.75 58.7 31.65 60.05 30.25 60.05 28.4 60.1 30.3 61.4 31.65 62.5 32.75 64.05 32.9 64.284375 32.946875 64.5 32.95 63.981640625 32.95703125 63.35 33.2 62.3 33.5 61.4 34.35 60.1 35.7 60.05 37.6 60.05 35.7 58.7 34.35 57.35 33 55.45 32.95 55.8 32.95 56.1 32.9
M 42.55 31.65
Q 43.65 32.75 45.2 32.9 45.434375 32.946875 45.7 32.95 45.0828125 32.9572265625 44.5 33.2 43.45 33.5 42.55 34.35 41.25 35.7 41.2 37.6 41.15 35.7 39.8 34.35 38.5 33 36.65 32.95 36.95 32.95 37.3 32.9 38.7 32.75 39.8 31.65 41.15 30.25 41.2 28.4 41.25 30.3 42.55 31.65
M 45.85 33.45
Q 46 35.05 47.2 36.3 48.55 37.65 50.5 37.7 48.55 37.75 47.2 39 46 40.25 45.85 41.95
L 45.85 42.15
Q 45.8 40.3 44.5 39 43.15 37.75 41.3 37.7 43.15 37.65 44.5 36.3 45.35 35.5 45.7 34.5 45.8 34.1 45.85 33.65 45.85 33.5 45.85 33.45
M 45.85 43
Q 45.85 42.9 45.85 42.8 46 44.45 47.2 45.7 48.55 47 50.5 47.05 48.55 47.1 47.2 48.45 46 49.6 45.85 51.25
L 45.85 51.45
Q 45.8 49.7 44.5 48.45 43.15 47.1 41.3 47.05 43.15 47 44.5 45.7 45.35 44.9 45.7 43.9 45.8 43.45 45.85 43
M 46.05 42.35
Q 47.85 42.35 49.2 40.95 50.55 39.6 50.6 37.75 50.65 39.65 52 40.95 53.25 42.3 55.2 42.35 54.55 42.35 53.95 42.6 52.85 42.9 52 43.75 50.65 45.05 50.6 47 50.55 45.05 49.2 43.75 47.9 42.4 46.05 42.35
M 41.2 37.75
Q 41.25 39.65 42.55 40.95 43.9 42.3 45.8 42.35 45.1 42.35 44.5 42.6 43.45 42.9 42.55 43.75 41.25 45.05 41.2 47 41.15 45.05 39.8 43.75 38.5 42.4 36.65 42.35 38.45 42.35 39.8 40.95 41.15 39.6 41.2 37.75
M 58.7 40.95
Q 60.05 39.6 60.05 37.75 60.1 39.65 61.4 40.95 62.75 42.3 64.6 42.35 64 42.35 63.35 42.6 62.3 42.9 61.4 43.75 60.1 45.05 60.05 47 60.05 45.05 58.7 43.75 57.35 42.4 55.45 42.35 57.3 42.35 58.7 40.95
M 55.25 43
Q 55.3 42.9 55.3 42.8 55.4 44.45 56.7 45.7 58.05 47 59.95 47.05 58.05 47.1 56.7 48.45 55.4 49.6 55.3 51.25
L 55.3 51.6
Q 55.25 49.75 53.95 48.45 52.55 47.1 50.7 47.05 52.55 47 53.95 45.7 54.75 44.9 55.1 43.9 55.2 43.45 55.25 43
M 73.45 32.9
Q 73.684375 32.946875 73.9 32.95 73.3830078125 32.95703125 72.8 33.2 71.7 33.5 70.85 34.35 69.5 35.7 69.45 37.6 69.4 35.7 68.05 34.35 66.8 33 64.95 32.95 65.25 32.95 65.6 32.9 66.95 32.75 68.05 31.65 69.4 30.25 69.45 28.4 69.5 30.3 70.85 31.65 71.9 32.75 73.45 32.9
M 74.1 33.65
Q 74.1 33.5 74.1 33.45 74.25 35.05 75.5 36.3 76.85 37.65 78.75 37.7 76.85 37.75 75.5 39 74.25 40.25 74.1 41.95
L 74.1 42.15
Q 74.05 40.3 72.8 39 71.4 37.75 69.55 37.7 71.4 37.65 72.8 36.3 73.55 35.5 73.9 34.5 74.05 34.1 74.1 33.65
M 64.7 33.65
Q 64.75 33.5 64.75 33.45 64.9 35.05 66.15 36.3 67.4 37.65 69.3 37.7 67.4 37.75 66.15 39 64.9 40.25 64.75 41.95
L 64.75 42.25
Q 64.7 40.35 63.35 39 62 37.75 60.1 37.7 62 37.65 63.35 36.3 64.2 35.5 64.5 34.5 64.65 34.1 64.7 33.65
M 68.05 40.95
Q 69.4 39.6 69.45 37.75 69.5 39.65 70.85 40.95 72.15 42.3 74 42.35 73.4 42.35 72.8 42.6 71.7 42.9 70.85 43.75 69.5 45.05 69.45 47 69.4 45.05 68.05 43.75 66.8 42.4 64.95 42.35 66.75 42.35 68.05 40.95
M 64.7 43
Q 64.75 42.9 64.75 42.8 64.9 44.45 66.15 45.7 67.4 47 69.3 47.05 67.4 47.1 66.15 48.45 64.9 49.6 64.75 51.25
L 64.75 51.6
Q 64.7 49.75 63.35 48.45 62 47.1 60.1 47.05 62 47 63.35 45.7 64.2 44.9 64.5 43.9 64.65 43.45 64.7 43
M 74.1 43
Q 74.1 42.9 74.1 42.8 74.25 44.45 75.5 45.7 76.85 47 78.75 47.05 76.85 47.1 75.5 48.45 74.25 49.6 74.1 51.25
L 74.1 51.45
Q 74.05 49.7 72.8 48.45 71.4 47.1 69.55 47.05 71.4 47 72.8 45.7 73.55 44.9 73.9 43.9 74.05 43.45 74.1 43
M 27 15
Q 27.05 14.9 27.05 14.8 27.15 16.4 28.4 17.65 29.75 19 31.65 19 29.75 19.05 28.4 20.4 27.15 21.6 27.05 23.3
L 27.05 23.6
Q 27 21.7 25.7 20.4 24.35 19.05 22.5 19 24.35 19 25.7 17.65 26.5 16.85 26.85 15.85 27 15.4 27 15
M 22.35 19.1
Q 22.4 21.05 23.7 22.4 24.8 23.45 26.35 23.65
L 26.55 23.65
Q 26.0724609375 23.6603515625 25.7 23.8 24.6 24.15 23.7 25 22.4 26.3 22.35 28.2 22.3 26.3 20.95 25 19.6 23.7 17.75 23.65
L 18.45 23.65
Q 19.85 23.45 20.95 22.4 22.3 21 22.35 19.1
M 27 24.3
Q 27.05 24.15 27.05 24.05 27.15 25.7 28.4 26.9 29.75 28.25 31.65 28.3 29.75 28.35 28.4 29.7 27.15 30.85 27.05 32.55
L 27.05 32.85
Q 27 31 25.7 29.7 24.35 28.35 22.5 28.3 24.35 28.25 25.7 26.9 26.5 26.15 26.85 25.1 27 24.7 27 24.3
M 27.2 23.65
L 27.9 23.65
Q 29.3 23.45 30.4 22.4 31.75 21 31.8 19.1 31.8 21.05 33.15 22.4 34.2 23.45 35.75 23.65
L 35.95 23.65
Q 35.516015625 23.661328125 35.1 23.8 34 24.15 33.15 25 31.8 26.3 31.8 28.2 31.75 26.3 30.4 25 29.1 23.7 27.2 23.65
M 36.4 15
Q 36.45 14.9 36.45 14.8 36.6 16.4 37.85 17.65 39.15 19 41.05 19 39.15 19.05 37.85 20.4 36.6 21.6 36.45 23.3
L 36.45 23.6
Q 36.4 21.7 35.1 20.4 33.7 19.05 31.9 19 33.7 19 35.1 17.65 35.95 16.85 36.2 15.85 36.4 15.4 36.4 15
M 36.4 24.3
Q 36.45 24.15 36.45 24.05 36.6 25.7 37.85 26.9 39.15 28.25 41.05 28.3 39.15 28.35 37.85 29.7 36.6 30.85 36.45 32.55
L 36.45 32.85
Q 36.4 31 35.1 29.7 33.7 28.35 31.9 28.3 33.7 28.25 35.1 26.9 35.95 26.15 36.2 25.1 36.4 24.7 36.4 24.3
M 16.3 17.65
Q 17.05 16.85 17.4 15.85 17.55 15.4 17.6 15 17.65 14.9 17.65 14.8 17.7 16.4 18.95 17.65 20.3 19 22.2 19 20.3 19.05 18.95 20.4 17.7 21.6 17.65 23.3
L 17.65 23.6
Q 17.6 21.7 16.3 20.4 14.9 19.05 13.05 19 14.9 19 16.3 17.65
M 17.6 24.3
Q 17.65 24.15 17.65 24.05 17.7 25.7 18.95 26.9 20.3 28.25 22.2 28.3 20.3 28.35 18.95 29.7 17.7 30.85 17.65 32.55
L 17.65 32.85
Q 17.6 31 16.3 29.7 14.9 28.35 13.05 28.3 14.9 28.25 16.3 26.9 17.05 26.15 17.4 25.1 17.55 24.7 17.6 24.3
M 17.75 32.95
Q 18.1 32.95 18.45 32.9 19.85 32.75 20.95 31.65 22.3 30.25 22.35 28.4 22.4 30.3 23.7 31.65 24.8 32.75 26.35 32.9 26.584375 32.946875 26.85 32.95 26.2341796875 32.9572265625 25.7 33.2 24.6 33.5 23.7 34.35 22.4 35.7 22.35 37.6 22.3 35.7 20.95 34.35 19.6 33 17.75 32.95
M 17.6 33.65
Q 17.65 33.5 17.65 33.45 17.7 35.05 18.95 36.3 20.3 37.65 22.2 37.7 20.3 37.75 18.95 39 17.7 40.25 17.65 41.95
L 17.65 42.25
Q 17.6 40.35 16.3 39 14.9 37.75 13.05 37.7 14.9 37.65 16.3 36.3 17.05 35.5 17.4 34.5 17.55 34.1 17.6 33.65
M 17.6 43
Q 17.65 42.9 17.65 42.8 17.7 44.45 18.95 45.7 20.3 47 22.2 47.05 20.3 47.1 18.95 48.45 17.7 49.6 17.65 51.25
L 17.65 51.6
Q 17.6 49.75 16.3 48.45 14.9 47.1 13.05 47.05 14.9 47 16.3 45.7 17.05 44.9 17.4 43.9 17.55 43.45 17.6 43
M 35.1 33.2
Q 34 33.5 33.15 34.35 31.8 35.7 31.8 37.6 31.75 35.7 30.4 34.35 29.1 33 27.2 32.95 27.55 32.95 27.9 32.9 29.3 32.75 30.4 31.65 31.75 30.25 31.8 28.4 31.8 30.3 33.15 31.65 34.2 32.75 35.75 32.9 35.984375 32.946875 36.25 32.95 35.6814453125 32.9578125 35.1 33.2
M 36.4 33.65
Q 36.45 33.5 36.45 33.45 36.6 35.05 37.85 36.3 39.15 37.65 41.05 37.7 39.15 37.75 37.85 39 36.6 40.25 36.45 41.95
L 36.45 42.25
Q 36.4 40.35 35.1 39 33.7 37.75 31.9 37.7 33.7 37.65 35.1 36.3 35.95 35.5 36.2 34.5 36.4 34.1 36.4 33.65
M 27 33.65
Q 27.05 33.5 27.05 33.45 27.15 35.05 28.4 36.3 29.75 37.65 31.65 37.7 29.75 37.75 28.4 39 27.15 40.25 27.05 41.95
L 27.05 42.25
Q 27 40.35 25.7 39 24.35 37.75 22.5 37.7 24.35 37.65 25.7 36.3 26.5 35.5 26.85 34.5 27 34.1 27 33.65
M 26.95 42.35
Q 26.25 42.35 25.7 42.6 24.6 42.9 23.7 43.75 22.4 45.05 22.35 47 22.3 45.05 20.95 43.75 19.6 42.4 17.75 42.35 19.55 42.35 20.95 40.95 22.3 39.6 22.35 37.75 22.4 39.65 23.7 40.95 25.05 42.3 26.95 42.35
M 27 43
Q 27.05 42.9 27.05 42.8 27.15 44.45 28.4 45.7 29.75 47 31.65 47.05 29.75 47.1 28.4 48.45 27.15 49.6 27.05 51.25
L 27.05 51.6
Q 27 49.75 25.7 48.45 24.35 47.1 22.5 47.05 24.35 47 25.7 45.7 26.5 44.9 26.85 43.9 27 43.45 27 43
M 36.4 43
Q 36.45 42.9 36.45 42.8 36.6 44.45 37.85 45.7 39.15 47 41.05 47.05 39.15 47.1 37.85 48.45 36.6 49.6 36.45 51.25
L 36.45 51.6
Q 36.4 49.75 35.1 48.45 33.7 47.1 31.9 47.05 33.7 47 35.1 45.7 35.95 44.9 36.2 43.9 36.4 43.45 36.4 43
M 30.4 40.95
Q 31.75 39.6 31.8 37.75 31.8 39.65 33.15 40.95 34.45 42.3 36.35 42.35 35.7 42.35 35.1 42.6 34 42.9 33.15 43.75 31.8 45.05 31.8 47 31.75 45.05 30.4 43.75 29.1 42.4 27.2 42.35 29.05 42.35 30.4 40.95
M 36.65 51.75
Q 38.45 51.75 39.8 50.4 41.15 49 41.2 47.15 41.25 49.05 42.55 50.4 43.9 51.7 45.8 51.75 45.1 51.75 44.5 51.95 43.45 52.3 42.55 53.15 41.25 54.45 41.2 56.35 41.15 54.45 39.8 53.15 38.5 51.8 36.65 51.75
M 36.45 52.2
Q 36.6 53.8 37.85 55.05 39.15 56.4 41.05 56.45 39.15 56.5 37.85 57.8 36.6 59 36.45 60.7
L 36.45 61
Q 36.4 59.15 35.1 57.8 33.7 56.5 31.9 56.45 33.7 56.4 35.1 55.05 35.95 54.3 36.2 53.25 36.4 52.85 36.4 52.45 36.45 52.3 36.45 52.2
M 35.1 51.95
Q 34 52.3 33.15 53.15 31.8 54.45 31.8 56.35 31.75 54.45 30.4 53.15 29.1 51.8 27.2 51.75 29.05 51.75 30.4 50.4 31.75 49 31.8 47.15 31.8 49.05 33.15 50.4 34.45 51.7 36.35 51.75 35.7 51.75 35.1 51.95
M 31.8 56.55
Q 31.8 58.45 33.15 59.75 34.4375 61.087109375 36.2 61.1 35.68125 61.1078125 35.1 61.35 34 61.65 33.15 62.5 31.8 63.8 31.8 65.7 31.75 63.8 30.4 62.5 29.1 61.15 27.2 61.1 29.05 61.1 30.4 59.75 31.75 58.4 31.8 56.55
M 36.65 61.1
Q 38.45 61.1 39.8 59.75 41.15 58.4 41.2 56.55 41.25 58.45 42.55 59.75 43.88671875 61.08671875 45.6 61.1 45.08125 61.1078125 44.5 61.35 43.45 61.65 42.55 62.5 41.25 63.8 41.2 65.7 41.15 63.8 39.8 62.5 38.5 61.15 36.65 61.1
M 36.4 61.75
Q 36.45 61.65 36.45 61.55 36.6 63.2 37.85 64.4 39.15 65.75 41.05 65.8 39.15 65.85 37.85 67.2 36.6 68.4 36.45 70.05
L 36.45 70.4
Q 36.4 68.5 35.1 67.2 33.7 65.85 31.9 65.8 33.7 65.75 35.1 64.4 35.95 63.65 36.2 62.65 36.4 62.25 36.4 61.75
M 26.85 53.25
Q 27 52.85 27 52.45 27.05 52.3 27.05 52.2 27.15 53.8 28.4 55.05 29.75 56.4 31.65 56.45 29.75 56.5 28.4 57.8 27.15 59 27.05 60.7
L 27.05 61
Q 27 59.15 25.7 57.8 24.35 56.5 22.5 56.45 24.35 56.4 25.7 55.05 26.5 54.3 26.85 53.25
M 26.95 51.75
Q 26.25 51.75 25.7 51.95 24.6 52.3 23.7 53.15 22.4 54.45 22.35 56.35 22.3 54.45 20.95 53.15 19.6 51.8 17.75 51.75 19.55 51.75 20.95 50.4 22.3 49 22.35 47.15 22.4 49.05 23.7 50.4 25.05 51.7 26.95 51.75
M 20.95 59.75
Q 22.3 58.4 22.35 56.55 22.4 58.45 23.7 59.75 25.03671875 61.08671875 26.75 61.1 26.2328125 61.1078125 25.7 61.35 24.6 61.65 23.7 62.5 22.4 63.8 22.35 65.7 22.3 63.8 20.95 62.5 19.6 61.15 17.75 61.1 19.55 61.1 20.95 59.75
M 27 61.75
Q 27.05 61.65 27.05 61.55 27.15 63.2 28.4 64.4 29.75 65.75 31.65 65.8 29.75 65.85 28.4 67.2 27.15 68.4 27.05 70.05
L 27.05 70.4
Q 27 68.5 25.7 67.2 24.35 65.85 22.5 65.8 24.35 65.75 25.7 64.4 26.5 63.65 26.85 62.65 27 62.25 27 61.75
M 25.7 73.85
Q 26.5 73.05 26.85 72 27 71.6 27 71.2 27.05 71.05 27.05 70.95 27.15 72.55 28.4 73.85 29.75 75.2 31.65 75.25 29.75 75.3 28.4 76.55 27.15 77.75 27.05 79.45
L 27.05 79.8
Q 27 77.9 25.7 76.55 24.35 75.3 22.5 75.25 24.35 75.2 25.7 73.85
M 26.95 70.5
Q 26.25 70.5 25.7 70.7 24.6 71.05 23.7 71.85 22.4 73.25 22.35 75.15 22.3 73.25 20.95 71.85 19.62109375 70.52109375 18 70.5 19.57265625 70.47734375 20.95 69.1 22.3 67.75 22.35 65.9 22.4 67.8 23.7 69.1 25.05 70.45 26.95 70.5
M 35.1 70.7
Q 34 71.05 33.15 71.85 31.8 73.25 31.8 75.15 31.75 73.25 30.4 71.85 29.1203125 70.52109375 27.45 70.5 29.071875 70.47734375 30.4 69.1 31.75 67.75 31.8 65.9 31.8 67.8 33.15 69.1 34.45 70.45 36.35 70.5 35.7 70.5 35.1 70.7
M 36.45 70.95
Q 36.6 72.55 37.85 73.85 39.15 75.2 41.05 75.25 39.15 75.3 37.85 76.55 36.6 77.75 36.45 79.45
L 36.45 79.8
Q 36.4 77.9 35.1 76.55 33.7 75.3 31.9 75.25 33.7 75.2 35.1 73.85 35.95 73.05 36.2 72 36.4 71.6 36.4 71.2 36.45 71.05 36.45 70.95
M 39.8 71.85
Q 38.5203125 70.52109375 36.9 70.5 38.471875 70.47734375 39.8 69.1 41.15 67.75 41.2 65.9 41.25 67.8 42.55 69.1 43.9 70.45 45.8 70.5 45.1 70.5 44.5 70.7 43.45 71.05 42.55 71.85 41.25 73.25 41.2 75.15 41.15 73.25 39.8 71.85
M 16.3 55.05
Q 17.05 54.3 17.4 53.25 17.55 52.85 17.6 52.45 17.65 52.3 17.65 52.2 17.7 53.8 18.95 55.05 20.3 56.4 22.2 56.45 20.3 56.5 18.95 57.8 17.7 59 17.65 60.7
L 17.65 61
Q 17.6 59.15 16.3 57.8 14.9 56.5 13.05 56.45 14.9 56.4 16.3 55.05
M 17.6 61.75
Q 17.65 61.65 17.65 61.55 17.7 63.2 18.95 64.4 20.3 65.75 22.2 65.8 20.3 65.85 18.95 67.2 17.7 68.4 17.65 70.05
L 17.65 70.4
Q 17.6 68.5 16.3 67.2 14.9 65.85 13.05 65.8 14.9 65.75 16.3 64.4 17.05 63.65 17.4 62.65 17.55 62.25 17.6 61.75
M 17.65 70.95
Q 17.7 72.55 18.95 73.85 20.3 75.2 22.2 75.25 20.3 75.3 18.95 76.55 17.7 77.75 17.65 79.45
L 17.65 79.8
Q 17.6 77.9 16.3 76.55 14.9 75.3 13.05 75.25 14.9 75.2 16.3 73.85 17.05 73.05 17.4 72 17.55 71.6 17.6 71.2 17.65 71.05 17.65 70.95
M 17.4 81.4
Q 17.55 80.95 17.6 80.55 17.65 80.4 17.65 80.3 17.7 82 18.95 83.2 20.3 84.5 22.2 84.55 20.3 84.6 18.95 85.95 17.7 87.1 17.65 88.8
L 17.65 89.15
Q 17.6 87.25 16.3 85.95 14.9 84.6 13.05 84.55 14.9 84.5 16.3 83.2 17.05 82.4 17.4 81.4
M 17.6 89.95
Q 17.65 89.8 17.65 89.75 17.7 91.3 18.95 92.55 20.3 93.9 22.2 93.95 20.3 94 18.95 95.3 17.7 96.55 17.65 98.2
L 17.65 98.55
Q 17.6 96.65 16.3 95.3 14.9 94 13.05 93.95 14.9 93.9 16.3 92.55 17.05 91.85 17.4 90.75 17.55 90.4 17.6 89.95
M 36.65 79.9
Q 38.45 79.9 39.8 78.5 41.15 77.15 41.2 75.3 41.25 77.2 42.55 78.5 43.9 79.85 45.8 79.9 45.1 79.9 44.5 80.15 43.45 80.4 42.55 81.3 41.25 82.6 41.2 84.45 41.15 82.6 39.8 81.3 38.5 79.95 36.65 79.9
M 30.4 78.5
Q 31.75 77.15 31.8 75.3 31.8 77.2 33.15 78.5 34.45 79.85 36.35 79.9 35.7 79.9 35.1 80.15 34 80.4 33.15 81.3 31.8 82.6 31.8 84.45 31.75 82.6 30.4 81.3 29.1 79.95 27.2 79.9 29.05 79.9 30.4 78.5
M 35.1 85.95
Q 33.7 84.6 31.9 84.55 33.7 84.5 35.1 83.2 35.95 82.4 36.2 81.4 36.4 80.95 36.4 80.55 36.45 80.4 36.45 80.3 36.6 82 37.85 83.2 39.15 84.5 41.05 84.55 39.15 84.6 37.85 85.95 36.6 87.1 36.45 88.8
L 36.45 89.15
Q 36.4 87.25 35.1 85.95
M 26.95 79.9
Q 26.25 79.9 25.7 80.15 24.6 80.4 23.7 81.3 22.4 82.6 22.35 84.45 22.3 82.6 20.95 81.3 19.6 79.95 17.75 79.9 19.55 79.9 20.95 78.5 22.3 77.15 22.35 75.3 22.4 77.2 23.7 78.5 25.05 79.85 26.95 79.9
M 26.85 81.4
Q 27 80.95 27 80.55 27.05 80.4 27.05 80.3 27.15 82 28.4 83.2 29.75 84.5 31.65 84.55 29.75 84.6 28.4 85.95 27.15 87.1 27.05 88.8
L 27.05 89.15
Q 27 87.25 25.7 85.95 24.35 84.6 22.5 84.55 24.35 84.5 25.7 83.2 26.5 82.4 26.85 81.4
M 27 89.95
Q 27.05 89.8 27.05 89.75 27.15 91.3 28.4 92.55 29.75 93.9 31.65 93.95 29.75 94 28.4 95.3 27.15 96.55 27.05 98.2
L 27.05 98.55
Q 27 96.65 25.7 95.3 24.35 94 22.5 93.95 24.35 93.9 25.7 92.55 26.5 91.85 26.85 90.75 27 90.4 27 89.95
M 26.95 89.25
Q 26.25 89.25 25.7 89.45 24.6 89.8 23.7 90.6 22.4 91.95 22.35 93.85 22.3 91.95 20.95 90.6 19.6 89.3 17.75 89.25 19.55 89.25 20.95 87.9 22.3 86.5 22.35 84.65 22.4 86.55 23.7 87.9 25.05 89.2 26.95 89.25
M 20.95 97.3
Q 22.3 95.9 22.35 94.05 22.4 95.95 23.7 97.3 25.05 98.6 26.95 98.65 26.25 98.65 25.7 98.85 24.6 99.2 23.7 100.05 22.4 101.35 22.35 103.25 22.3 101.35 20.95 100.05 19.62109375 98.671875 17.95 98.65 19.57265625 98.628125 20.95 97.3
M 36.4 89.95
Q 36.45 89.8 36.45 89.75 36.6 91.3 37.85 92.55 39.15 93.9 41.05 93.95 39.15 94 37.85 95.3 36.6 96.55 36.45 98.2
L 36.45 98.55
Q 36.4 96.65 35.1 95.3 33.7 94 31.9 93.95 33.7 93.9 35.1 92.55 35.95 91.85 36.2 90.75 36.4 90.4 36.4 89.95
M 36.65 89.25
Q 38.45 89.25 39.8 87.9 41.15 86.5 41.2 84.65 41.25 86.55 42.55 87.9 43.9 89.2 45.8 89.25 45.1 89.25 44.5 89.45 43.45 89.8 42.55 90.6 41.25 91.95 41.2 93.85 41.15 91.95 39.8 90.6 38.5 89.3 36.65 89.25
M 35.1 89.45
Q 34 89.8 33.15 90.6 31.8 91.95 31.8 93.85 31.75 91.95 30.4 90.6 29.1 89.3 27.2 89.25 29.05 89.25 30.4 87.9 31.75 86.5 31.8 84.65 31.8 86.55 33.15 87.9 34.45 89.2 36.35 89.25 35.7 89.25 35.1 89.45
M 30.4 97.3
Q 31.75 95.9 31.8 94.05 31.8 95.95 33.15 97.3 34.45 98.6 36.35 98.65 35.7 98.65 35.1 98.85 34 99.2 33.15 100.05 31.8 101.35 31.8 103.25 31.75 101.35 30.4 100.05 29.1197265625 98.6712890625 27.45 98.65 29.07109375 98.62890625 30.4 97.3
M 36.85 98.65
Q 38.47109375 98.62890625 39.8 97.3 41.15 95.9 41.2 94.05 41.25 95.95 42.55 97.3 43.9 98.6 45.8 98.65 45.1 98.65 44.5 98.85 43.45 99.2 42.55 100.05 41.25 101.35 41.2 103.25 41.15 101.35 39.8 100.05 38.5197265625 98.6712890625 36.85 98.65
M 72.8 55.05
Q 73.55 54.3 73.9 53.25 74.05 52.85 74.1 52.45 74.1 52.3 74.1 52.2 74.25 53.8 75.5 55.05 76.85 56.4 78.75 56.45 76.85 56.5 75.5 57.8 74.25 59 74.1 60.7
L 74.1 60.9
Q 74.05 59.1 72.8 57.8 71.4 56.5 69.55 56.45 71.4 56.4 72.8 55.05
M 74 51.75
Q 73.4 51.75 72.8 51.95 71.7 52.3 70.85 53.15 69.5 54.45 69.45 56.35 69.4 54.45 68.05 53.15 66.8 51.8 64.95 51.75 66.75 51.75 68.05 50.4 69.4 49 69.45 47.15 69.5 49.05 70.85 50.4 72.15 51.7 74 51.75
M 74.1 61.75
Q 74.1 61.65 74.1 61.55 74.25 63.2 75.5 64.4 76.85 65.75 78.75 65.8 76.85 65.85 75.5 67.2 74.25 68.4 74.1 70.05
L 74.1 70.25
Q 74.05 68.45 72.8 67.2 71.4 65.85 69.55 65.8 71.4 65.75 72.8 64.4 73.55 63.65 73.9 62.65 74.05 62.25 74.1 61.75
M 73.9 61.1
Q 73.38125 61.1078125 72.8 61.35 71.7 61.65 70.85 62.5 69.5 63.8 69.45 65.7 69.4 63.8 68.05 62.5 66.8 61.15 64.95 61.1 66.75 61.1 68.05 59.75 69.4 58.4 69.45 56.55 69.5 58.45 70.85 59.75 72.1375 61.087109375 73.9 61.1
M 64.7 52.45
Q 64.75 52.3 64.75 52.2 64.9 53.8 66.15 55.05 67.4 56.4 69.3 56.45 67.4 56.5 66.15 57.8 64.9 59 64.75 60.7
L 64.75 61
Q 64.7 59.15 63.35 57.8 62 56.5 60.1 56.45 62 56.4 63.35 55.05 64.2 54.3 64.5 53.25 64.65 52.85 64.7 52.45
M 64.6 51.75
Q 64 51.75 63.35 51.95 62.3 52.3 61.4 53.15 60.1 54.45 60.05 56.35 60.05 54.45 58.7 53.15 57.35 51.8 55.45 51.75 57.3 51.75 58.7 50.4 60.05 49 60.05 47.15 60.1 49.05 61.4 50.4 62.75 51.7 64.6 51.75
M 61.4 59.75
Q 62.737109375 61.087109375 64.5 61.1 63.9796875 61.1078125 63.35 61.35 62.3 61.65 61.4 62.5 60.1 63.8 60.05 65.7 60.05 63.8 58.7 62.5 57.35 61.15 55.45 61.1 57.3 61.1 58.7 59.75 60.05 58.4 60.05 56.55 60.1 58.45 61.4 59.75
M 64.7 61.75
Q 64.75 61.65 64.75 61.55 64.9 63.2 66.15 64.4 67.4 65.75 69.3 65.8 67.4 65.85 66.15 67.2 64.9 68.4 64.75 70.05
L 64.75 70.4
Q 64.7 68.5 63.35 67.2 62 65.85 60.1 65.8 62 65.75 63.35 64.4 64.2 63.65 64.5 62.65 64.65 62.25 64.7 61.75
M 63.35 73.85
Q 64.2 73.05 64.5 72 64.65 71.6 64.7 71.2 64.75 71.05 64.75 70.95 64.9 72.55 66.15 73.85 67.4 75.2 69.3 75.25 67.4 75.3 66.15 76.55 64.9 77.75 64.75 79.45
L 64.75 79.8
Q 64.7 77.9 63.35 76.55 62 75.3 60.1 75.25 62 75.2 63.35 73.85
M 63.35 70.7
Q 62.3 71.05 61.4 71.85 60.1 73.25 60.05 75.15 60.05 73.25 58.7 71.85 57.37109375 70.52109375 55.7 70.5 57.32265625 70.47734375 58.7 69.1 60.05 67.75 60.05 65.9 60.1 67.8 61.4 69.1 62.75 70.45 64.6 70.5 64 70.5 63.35 70.7
M 69.45 65.9
Q 69.5 67.8 70.85 69.1 72.15 70.45 74 70.5 73.4 70.5 72.8 70.7 71.7 71.05 70.85 71.85 69.5 73.25 69.45 75.15 69.4 73.25 68.05 71.85 66.81953125 70.52109375 65.15 70.5 66.7708984375 70.4775390625 68.05 69.1 69.4 67.75 69.45 65.9
M 74.1 70.95
Q 74.25 72.55 75.5 73.85 76.85 75.2 78.75 75.25 76.85 75.3 75.5 76.55 74.25 77.75 74.1 79.45
L 74.1 79.65
Q 74.05 77.85 72.8 76.55 71.4 75.3 69.55 75.25 71.4 75.2 72.8 73.85 73.55 73.05 73.9 72 74.05 71.6 74.1 71.2 74.1 71.05 74.1 70.95
M 52 50.4
Q 53.25 51.7 55.2 51.75 54.55 51.75 53.95 51.95 52.85 52.3 52 53.15 50.65 54.45 50.6 56.35 50.55 54.45 49.2 53.15 47.9 51.8 46.05 51.75 47.85 51.75 49.2 50.4 50.55 49 50.6 47.15 50.65 49.05 52 50.4
M 53.95 55.05
Q 54.75 54.3 55.1 53.25 55.2 52.85 55.25 52.45 55.3 52.3 55.3 52.2 55.4 53.8 56.7 55.05 58.05 56.4 59.95 56.45 58.05 56.5 56.7 57.8 55.4 59 55.3 60.7
L 55.3 61
Q 55.25 59.15 53.95 57.8 52.55 56.5 50.7 56.45 52.55 56.4 53.95 55.05
M 52 59.75
Q 53.2384765625 61.0875 55.05 61.1 54.53125 61.1078125 53.95 61.35 52.85 61.65 52 62.5 50.65 63.8 50.6 65.7 50.55 63.8 49.2 62.5 47.9 61.15 46.05 61.1 47.85 61.1 49.2 59.75 50.55 58.4 50.6 56.55 50.65 58.45 52 59.75
M 55.25 61.75
Q 55.3 61.65 55.3 61.55 55.4 63.2 56.7 64.4 58.05 65.75 59.95 65.8 58.05 65.85 56.7 67.2 55.4 68.4 55.3 70.05
L 55.3 70.4
Q 55.25 68.5 53.95 67.2 52.55 65.85 50.7 65.8 52.55 65.75 53.95 64.4 54.75 63.65 55.1 62.65 55.2 62.25 55.25 61.75
M 45.85 52.45
Q 45.85 52.3 45.85 52.2 46 53.8 47.2 55.05 48.55 56.4 50.5 56.45 48.55 56.5 47.2 57.8 46 59 45.85 60.7
L 45.85 60.9
Q 45.8 59.1 44.5 57.8 43.15 56.5 41.3 56.45 43.15 56.4 44.5 55.05 45.35 54.3 45.7 53.25 45.8 52.85 45.85 52.45
M 45.85 61.75
Q 45.85 61.65 45.85 61.55 46 63.2 47.2 64.4 48.55 65.75 50.5 65.8 48.55 65.85 47.2 67.2 46 68.4 45.85 70.05
L 45.85 70.25
Q 45.8 68.45 44.5 67.2 43.15 65.85 41.3 65.8 43.15 65.75 44.5 64.4 45.35 63.65 45.7 62.65 45.8 62.25 45.85 61.75
M 45.85 70.95
Q 46 72.55 47.2 73.85 48.55 75.2 50.5 75.25 48.55 75.3 47.2 76.55 46 77.75 45.85 79.45
L 45.85 79.65
Q 45.8 77.85 44.5 76.55 43.15 75.3 41.3 75.25 43.15 75.2 44.5 73.85 45.35 73.05 45.7 72 45.8 71.6 45.85 71.2 45.85 71.05 45.85 70.95
M 49.2 71.85
Q 47.9203125 70.52109375 46.3 70.5 47.871875 70.47734375 49.2 69.1 50.55 67.75 50.6 65.9 50.65 67.8 52 69.1 53.25 70.45 55.2 70.5 54.55 70.5 53.95 70.7 52.85 71.05 52 71.85 50.65 73.25 50.6 75.15 50.55 73.25 49.2 71.85
M 53.95 73.85
Q 54.75 73.05 55.1 72 55.2 71.6 55.25 71.2 55.3 71.05 55.3 70.95 55.4 72.55 56.7 73.85 58.05 75.2 59.95 75.25 58.05 75.3 56.7 76.55 55.4 77.75 55.3 79.45
L 55.3 79.8
Q 55.25 77.9 53.95 76.55 52.55 75.3 50.7 75.25 52.55 75.2 53.95 73.85
M 58.7 78.5
Q 60.05 77.15 60.05 75.3 60.1 77.2 61.4 78.5 62.75 79.85 64.6 79.9 64 79.9 63.35 80.15 62.3 80.4 61.4 81.3 60.1 82.6 60.05 84.45 60.05 82.6 58.7 81.3 57.35 79.95 55.45 79.9 57.3 79.9 58.7 78.5
M 52 78.5
Q 53.25 79.85 55.2 79.9 54.55 79.9 53.95 80.15 52.85 80.4 52 81.3 50.65 82.6 50.6 84.45 50.55 82.6 49.2 81.3 47.9 79.95 46.05 79.9 47.85 79.9 49.2 78.5 50.55 77.15 50.6 75.3 50.65 77.2 52 78.5
M 53.95 85.95
Q 52.55 84.6 50.7 84.55 52.55 84.5 53.95 83.2 54.75 82.4 55.1 81.4 55.2 80.95 55.25 80.55 55.3 80.4 55.3 80.3 55.4 82 56.7 83.2 58.05 84.5 59.95 84.55 58.05 84.6 56.7 85.95 55.4 87.1 55.3 88.8
L 55.3 89.15
Q 55.25 87.25 53.95 85.95
M 44.5 85.95
Q 43.15 84.6 41.3 84.55 43.15 84.5 44.5 83.2 45.35 82.4 45.7 81.4 45.8 80.95 45.85 80.55 45.85 80.4 45.85 80.3 46 82 47.2 83.2 48.55 84.5 50.5 84.55 48.55 84.6 47.2 85.95 46 87.1 45.85 88.8
L 45.85 89
Q 45.8 87.2 44.5 85.95
M 45.85 89.95
Q 45.85 89.8 45.85 89.75 46 91.3 47.2 92.55 48.55 93.9 50.5 93.95 48.55 94 47.2 95.3 46 96.55 45.85 98.2
L 45.85 98.4
Q 45.8 96.65 44.5 95.3 43.15 94 41.3 93.95 43.15 93.9 44.5 92.55 45.35 91.85 45.7 90.75 45.8 90.4 45.85 89.95
M 49.2 90.6
Q 47.9 89.3 46.05 89.25 47.85 89.25 49.2 87.9 50.55 86.5 50.6 84.65 50.65 86.55 52 87.9 53.25 89.2 55.2 89.25 54.55 89.25 53.95 89.45 52.85 89.8 52 90.6 50.65 91.95 50.6 93.85 50.55 91.95 49.2 90.6
M 49.2 97.3
Q 50.55 95.9 50.6 94.05 50.65 95.95 52 97.3 53.25 98.6 55.2 98.65 54.55 98.65 53.95 98.85 52.85 99.2 52 100.05 50.65 101.35 50.6 103.25 50.55 101.35 49.2 100.05 47.9197265625 98.6712890625 46.25 98.65 47.87109375 98.62890625 49.2 97.3
M 55.25 89.95
Q 55.3 89.8 55.3 89.75 55.4 91.3 56.7 92.55 58.05 93.9 59.95 93.95 58.05 94 56.7 95.3 55.4 96.55 55.3 98.2
L 55.3 98.55
Q 55.25 96.65 53.95 95.3 52.55 94 50.7 93.95 52.55 93.9 53.95 92.55 54.75 91.85 55.1 90.75 55.2 90.4 55.25 89.95
M 58.7 97.3
Q 60.05 95.9 60.05 94.05 60.1 95.95 61.4 97.3 62.75 98.6 64.6 98.65 64 98.65 63.35 98.85 62.3 99.2 61.4 100.05 60.1 101.35 60.05 103.25 60.05 101.35 58.7 100.05 57.37109375 98.671875 55.7 98.65 57.32265625 98.628125 58.7 97.3
M 60.05 93.85
Q 60.05 91.95 58.7 90.6 57.35 89.3 55.45 89.25 57.3 89.25 58.7 87.9 60.05 86.5 60.05 84.65 60.1 86.55 61.4 87.9 62.75 89.2 64.6 89.25 64 89.25 63.35 89.45 62.3 89.8 61.4 90.6 60.1 91.95 60.05 93.85
M 74 79.9
Q 73.4 79.9 72.8 80.15 71.7 80.4 70.85 81.3 69.5 82.6 69.45 84.45 69.4 82.6 68.05 81.3 66.8 79.95 64.95 79.9 66.75 79.9 68.05 78.5 69.4 77.15 69.45 75.3 69.5 77.2 70.85 78.5 72.15 79.85 74 79.9
M 73.9 81.4
Q 74.05 80.95 74.1 80.55 74.1 80.4 74.1 80.3 74.25 82 75.5 83.2 76.85 84.5 78.75 84.55 76.85 84.6 75.5 85.95 74.25 87.1 74.1 88.8
L 74.1 89
Q 74.05 87.2 72.8 85.95 71.4 84.6 69.55 84.55 71.4 84.5 72.8 83.2 73.55 82.4 73.9 81.4
M 64.5 81.4
Q 64.65 80.95 64.7 80.55 64.75 80.4 64.75 80.3 64.9 82 66.15 83.2 67.4 84.5 69.3 84.55 67.4 84.6 66.15 85.95 64.9 87.1 64.75 88.8
L 64.75 89.15
Q 64.7 87.25 63.35 85.95 62 84.6 60.1 84.55 62 84.5 63.35 83.2 64.2 82.4 64.5 81.4
M 64.7 89.95
Q 64.75 89.8 64.75 89.75 64.9 91.3 66.15 92.55 67.4 93.9 69.3 93.95 67.4 94 66.15 95.3 64.9 96.55 64.75 98.2
L 64.75 98.55
Q 64.7 96.65 63.35 95.3 62 94 60.1 93.95 62 93.9 63.35 92.55 64.2 91.85 64.5 90.75 64.65 90.4 64.7 89.95
M 69.45 94.05
Q 69.5 95.95 70.85 97.3 72.15 98.6 74 98.65 73.4 98.65 72.8 98.85 71.7 99.2 70.85 100.05 69.5 101.35 69.45 103.25 69.4 101.35 68.05 100.05 66.819140625 98.6712890625 65.1 98.65 66.7703125 98.62890625 68.05 97.3 69.4 95.9 69.45 94.05
M 70.85 90.6
Q 69.5 91.95 69.45 93.85 69.4 91.95 68.05 90.6 66.8 89.3 64.95 89.25 66.75 89.25 68.05 87.9 69.4 86.5 69.45 84.65 69.5 86.55 70.85 87.9 72.15 89.2 74 89.25 73.4 89.25 72.8 89.45 71.7 89.8 70.85 90.6
M 74.1 89.95
Q 74.1 89.8 74.1 89.75 74.25 91.3 75.5 92.55 76.85 93.9 78.75 93.95 76.85 94 75.5 95.3 74.25 96.55 74.1 98.2
L 74.1 98.4
Q 74.05 96.65 72.8 95.3 71.4 94 69.55 93.95 71.4 93.9 72.8 92.55 73.55 91.85 73.9 90.75 74.05 90.4 74.1 89.95
M 74.1 99.3
Q 74.1 99.2 74.1 99.1 74.25 100.75 75.5 101.95 76.85 103.3 78.75 103.35 76.85 103.4 75.5 104.75 74.25 105.9 74.1 107.6 74 105.9 72.8 104.75 71.4 103.4 69.55 103.35 71.4 103.3 72.8 101.95 73.55 101.15 73.9 100.15 74.05 99.75 74.1 99.3
M 74.1 108.45
Q 74.25 110.1 75.5 111.35 76.85 112.7 78.75 112.7 76.85 112.75 75.5 114.05 74.25 115.25 74.1 117
L 74.1 117.2
Q 74.05 115.35 72.8 114.05 71.4 112.75 69.55 112.7 71.4 112.7 72.8 111.35 73.55 110.55 73.9 109.55 74.05 109.1 74.1 108.7 74.1 108.55 74.1 108.45
M 74 108
Q 73.4 108 72.8 108.25 71.7 108.55 70.85 109.4 69.5 110.75 69.45 112.65 69.4 110.75 68.05 109.4 66.8 108.05 64.95 108 66.75 108 68.05 106.65 69.4 105.3 69.45 103.45 69.5 105.3 70.85 106.65 72.15 107.95 74 108
M 66.15 101.95
Q 67.4 103.3 69.3 103.35 67.4 103.4 66.15 104.75 64.9 105.9 64.75 107.6
L 64.75 107.9
Q 64.7 106 63.35 104.75 62 103.4 60.1 103.35 62 103.3 63.35 101.95 64.2 101.15 64.5 100.15 64.65 99.75 64.7 99.3 64.75 99.2 64.75 99.1 64.9 100.75 66.15 101.95
M 63.35 111.35
Q 64.2 110.55 64.5 109.55 64.65 109.1 64.7 108.7 64.75 108.55 64.75 108.45 64.9 110.1 66.15 111.35 67.4 112.7 69.3 112.7 67.4 112.75 66.15 114.05 64.9 115.25 64.75 117
L 64.75 117.3
Q 64.7 115.4 63.35 114.05 62 112.75 60.1 112.7 62 112.7 63.35 111.35
M 63.35 108.25
Q 62.3 108.55 61.4 109.4 60.1 110.75 60.05 112.65 60.05 110.75 58.7 109.4 57.35 108.05 55.45 108 57.3 108 58.7 106.65 60.05 105.3 60.05 103.45 60.1 105.3 61.4 106.65 62.75 107.95 64.6 108 64 108 63.35 108.25
M 68.05 116
Q 69.4 114.65 69.45 112.8 69.5 114.7 70.85 116 72.15 117.35 74 117.4 73.4 117.4 72.8 117.6 71.7 117.95 70.85 118.8 69.5 120.05 69.45 122 69.4 120.05 68.05 118.8 66.8 117.45 64.95 117.4 66.75 117.4 68.05 116
M 61.4 116
Q 62.75 117.35 64.6 117.4 64 117.4 63.35 117.6 62.3 117.95 61.4 118.8 60.1 120.05 60.05 122 60.05 120.05 58.7 118.8 57.35 117.45 55.45 117.4 57.3 117.4 58.7 116 60.05 114.65 60.05 112.8 60.1 114.7 61.4 116
M 64.5 118.9
Q 64.65 118.5 64.7 118.05 64.75 117.95 64.75 117.85 64.9 119.45 66.15 120.7 67.4 122.05 69.3 122.05 67.4 122.1 66.15 123.45 64.9 124.65 64.75 126.3
L 64.75 126.7
Q 64.7 124.8 63.35 123.45 62 122.1 60.1 122.05 62 122.05 63.35 120.7 64.2 119.95 64.5 118.9
M 73.9 118.9
Q 74.05 118.5 74.1 118.05 74.1 117.95 74.1 117.85 74.25 119.45 75.5 120.7 76.85 122.05 78.75 122.05 76.85 122.1 75.5 123.45 74.25 124.65 74.1 126.3
L 74.1 126.5
Q 74.05 124.75 72.8 123.45 71.4 122.1 69.55 122.05 71.4 122.05 72.8 120.7 73.55 119.95 73.9 118.9
M 59.95 103.35
Q 58.05 103.4 56.7 104.75 55.4 105.9 55.3 107.6
L 55.3 107.9
Q 55.25 106 53.95 104.75 52.55 103.4 50.7 103.35 52.55 103.3 53.95 101.95 54.75 101.15 55.1 100.15 55.2 99.75 55.25 99.3 55.3 99.2 55.3 99.1 55.4 100.75 56.7 101.95 58.05 103.3 59.95 103.35
M 53.95 111.35
Q 54.75 110.55 55.1 109.55 55.2 109.1 55.25 108.7 55.3 108.55 55.3 108.45 55.4 110.1 56.7 111.35 58.05 112.7 59.95 112.7 58.05 112.75 56.7 114.05 55.4 115.25 55.3 117
L 55.3 117.3
Q 55.25 115.4 53.95 114.05 52.55 112.75 50.7 112.7 52.55 112.7 53.95 111.35
M 52 106.65
Q 53.25 107.95 55.2 108 54.55 108 53.95 108.25 52.85 108.55 52 109.4 50.65 110.75 50.6 112.65 50.55 110.75 49.2 109.4 47.9 108.05 46.05 108 47.85 108 49.2 106.65 50.55 105.3 50.6 103.45 50.65 105.3 52 106.65
M 45.85 99.1
Q 46 100.75 47.2 101.95 48.55 103.3 50.5 103.35 48.55 103.4 47.2 104.75 46 105.9 45.85 107.6 45.8 105.9 44.5 104.75 43.15 103.4 41.3 103.35 43.15 103.3 44.5 101.95 45.35 101.15 45.7 100.15 45.8 99.75 45.85 99.3 45.85 99.2 45.85 99.1
M 44.5 108.25
Q 43.45 108.55 42.55 109.4 41.25 110.75 41.2 112.65 41.15 110.75 39.8 109.4 38.5 108.05 36.65 108 38.45 108 39.8 106.65 41.15 105.3 41.2 103.45 41.25 105.3 42.55 106.65 43.9 107.95 45.8 108 45.1 108 44.5 108.25
M 45.85 108.45
Q 46 110.1 47.2 111.35 48.55 112.7 50.5 112.7 48.55 112.75 47.2 114.05 46 115.25 45.85 117
L 45.85 117.2
Q 45.8 115.35 44.5 114.05 43.15 112.75 41.3 112.7 43.15 112.7 44.5 111.35 45.35 110.55 45.7 109.55 45.8 109.1 45.85 108.7 45.85 108.55 45.85 108.45
M 49.2 116
Q 50.55 114.65 50.6 112.8 50.65 114.7 52 116 53.25 117.35 55.2 117.4 54.55 117.4 53.95 117.6 52.85 117.95 52 118.8 50.65 120.05 50.6 122 50.55 120.05 49.2 118.8 47.9 117.45 46.05 117.4 47.85 117.4 49.2 116
M 41.2 112.8
Q 41.25 114.7 42.55 116 43.9 117.35 45.8 117.4 45.1 117.4 44.5 117.6 43.45 117.95 42.55 118.8 41.25 120.05 41.2 122 41.15 120.05 39.8 118.8 38.5 117.45 36.65 117.4 38.45 117.4 39.8 116 41.15 114.65 41.2 112.8
M 44.5 123.45
Q 43.15 122.1 41.3 122.05 43.15 122.05 44.5 120.7 45.35 119.95 45.7 118.9 45.8 118.5 45.85 118.05 45.85 117.95 45.85 117.85 46 119.45 47.2 120.7 48.55 122.05 50.5 122.05 48.55 122.1 47.2 123.45 46 124.65 45.85 126.3
L 45.85 126.5
Q 45.8 124.75 44.5 123.45
M 55.1 118.9
Q 55.2 118.5 55.25 118.05 55.3 117.95 55.3 117.85 55.4 119.45 56.7 120.7 58.05 122.05 59.95 122.05 58.05 122.1 56.7 123.45 55.4 124.65 55.3 126.3
L 55.3 126.7
Q 55.25 124.8 53.95 123.45 52.55 122.1 50.7 122.05 52.55 122.05 53.95 120.7 54.75 119.95 55.1 118.9
M 36.4 99.3
Q 36.45 99.2 36.45 99.1 36.6 100.75 37.85 101.95 39.15 103.3 41.05 103.35 39.15 103.4 37.85 104.75 36.6 105.9 36.45 107.6
L 36.45 107.9
Q 36.4 106 35.1 104.75 33.7 103.4 31.9 103.35 33.7 103.3 35.1 101.95 35.95 101.15 36.2 100.15 36.4 99.75 36.4 99.3
M 35.1 108.25
Q 34 108.55 33.15 109.4 31.8 110.75 31.8 112.65 31.75 110.75 30.4 109.4 29.1 108.05 27.2 108 29.05 108 30.4 106.65 31.75 105.3 31.8 103.45 31.8 105.3 33.15 106.65 34.45 107.95 36.35 108 35.7 108 35.1 108.25
M 36.45 108.45
Q 36.6 110.1 37.85 111.35 39.15 112.7 41.05 112.7 39.15 112.75 37.85 114.05 36.6 115.25 36.45 117
L 36.45 117.3
Q 36.4 115.4 35.1 114.05 33.7 112.75 31.9 112.7 33.7 112.7 35.1 111.35 35.95 110.55 36.2 109.55 36.4 109.1 36.4 108.7 36.45 108.55 36.45 108.45
M 25.7 101.95
Q 26.5 101.15 26.85 100.15 27 99.75 27 99.3 27.05 99.2 27.05 99.1 27.15 100.75 28.4 101.95 29.75 103.3 31.65 103.35 29.75 103.4 28.4 104.75 27.15 105.9 27.05 107.6
L 27.05 107.9
Q 27 106 25.7 104.75 24.35 103.4 22.5 103.35 24.35 103.3 25.7 101.95
M 25.7 111.35
Q 26.5 110.55 26.85 109.55 27 109.1 27 108.7 27.05 108.55 27.05 108.45 27.15 110.1 28.4 111.35 29.75 112.7 31.65 112.7 29.75 112.75 28.4 114.05 27.15 115.25 27.05 117
L 27.05 117.3
Q 27 115.4 25.7 114.05 24.35 112.75 22.5 112.7 24.35 112.7 25.7 111.35
M 26.95 108
Q 26.25 108 25.7 108.25 24.6 108.55 23.7 109.4 22.4 110.75 22.35 112.65 22.3 110.75 20.95 109.4 19.6 108.05 17.75 108 19.55 108 20.95 106.65 22.3 105.3 22.35 103.45 22.4 105.3 23.7 106.65 25.05 107.95 26.95 108
M 20.95 116
Q 22.3 114.65 22.35 112.8 22.4 114.7 23.7 116 25.05 117.35 26.95 117.4 26.25 117.4 25.7 117.6 24.6 117.95 23.7 118.8 22.4 120.05 22.35 122 22.3 120.05 20.95 118.8 19.6 117.45 17.75 117.4 19.55 117.4 20.95 116
M 27 118.05
Q 27.05 117.95 27.05 117.85 27.15 119.45 28.4 120.7 29.75 122.05 31.65 122.05 29.75 122.1 28.4 123.45 27.15 124.65 27.05 126.3
L 27.05 126.7
Q 27 124.8 25.7 123.45 24.35 122.1 22.5 122.05 24.35 122.05 25.7 120.7 26.5 119.95 26.85 118.9 27 118.5 27 118.05
M 30.4 116
Q 31.75 114.65 31.8 112.8 31.8 114.7 33.15 116 34.45 117.35 36.35 117.4 35.7 117.4 35.1 117.6 34 117.95 33.15 118.8 31.8 120.05 31.8 122 31.75 120.05 30.4 118.8 29.1 117.45 27.2 117.4 29.05 117.4 30.4 116
M 35.1 123.45
Q 33.7 122.1 31.9 122.05 33.7 122.05 35.1 120.7 35.95 119.95 36.2 118.9 36.4 118.5 36.4 118.05 36.45 117.95 36.45 117.85 36.6 119.45 37.85 120.7 39.15 122.05 41.05 122.05 39.15 122.1 37.85 123.45 36.6 124.65 36.45 126.3
L 36.45 126.7
Q 36.4 124.8 35.1 123.45
M 17.6 99.3
Q 17.65 99.2 17.65 99.1 17.7 100.75 18.95 101.95 20.3 103.3 22.2 103.35 20.3 103.4 18.95 104.75 17.7 105.9 17.65 107.6
L 17.65 107.9
Q 17.6 106 16.3 104.75 14.9 103.4 13.05 103.35 14.9 103.3 16.3 101.95 17.05 101.15 17.4 100.15 17.55 99.75 17.6 99.3
M 17.65 108.45
Q 17.7 110.1 18.95 111.35 20.3 112.7 22.2 112.7 20.3 112.75 18.95 114.05 17.7 115.25 17.65 117
L 17.65 117.3
Q 17.6 115.4 16.3 114.05 14.9 112.75 13.05 112.7 14.9 112.7 16.3 111.35 17.05 110.55 17.4 109.55 17.55 109.1 17.6 108.7 17.65 108.55 17.65 108.45
M 17.4 118.9
Q 17.55 118.5 17.6 118.05 17.65 117.95 17.65 117.85 17.7 119.45 18.95 120.7 20.3 122.05 22.2 122.05 20.3 122.1 18.95 123.45 17.7 124.65 17.65 126.3
L 17.65 126.7
Q 17.6 124.8 16.3 123.45 14.9 122.1 13.05 122.05 14.9 122.05 16.3 120.7 17.05 119.95 17.4 118.9
M 17.65 120.9
Q 17.15 120.9 16.8 121.3 16.4 121.55 16.4 122.05 16.4 122.55 16.8 122.9 17.15 123.3 17.65 123.3 18.2 123.3 18.5 122.9 18.9 122.55 18.9 122.05 18.9 121.55 18.5 121.3 18.2 120.9 17.65 120.9
M 18.9 112.7
Q 18.9 112.15 18.5 111.85 18.2 111.5 17.65 111.5 17.15 111.5 16.8 111.85 16.4 112.15 16.4 112.7 16.4 113.2 16.8 113.55 17.15 113.9 17.65 113.9 18.2 113.9 18.5 113.55 18.9 113.2 18.9 112.7
M 17.65 102.15
Q 17.15 102.15 16.8 102.5 16.4 102.8 16.4 103.35 16.4 103.8 16.8 104.2 17.15 104.55 17.65 104.55 18.2 104.55 18.5 104.2 18.9 103.8 18.9 103.35 18.9 102.8 18.5 102.5 18.2 102.15 17.65 102.15
M 36.45 120.9
Q 36 120.9 35.6 121.3 35.3 121.55 35.3 122.05 35.3 122.55 35.6 122.9 36 123.3 36.45 123.3 37 123.3 37.3 122.9 37.7 122.55 37.7 122.05 37.7 121.55 37.3 121.3 37 120.9 36.45 120.9
M 26.2 121.3
Q 25.8 121.55 25.8 122.05 25.8 122.55 26.2 122.9 26.55 123.3 27.05 123.3 27.55 123.3 27.9 122.9 28.25 122.55 28.25 122.05 28.25 121.55 27.9 121.3 27.55 120.9 27.05 120.9 26.55 120.9 26.2 121.3
M 28.25 112.7
Q 28.25 112.15 27.9 111.85 27.55 111.5 27.05 111.5 26.55 111.5 26.2 111.85 25.8 112.15 25.8 112.7 25.8 113.2 26.2 113.55 26.55 113.9 27.05 113.9 27.55 113.9 27.9 113.55 28.25 113.2 28.25 112.7
M 26.2 104.2
Q 26.55 104.55 27.05 104.55 27.55 104.55 27.9 104.2 28.25 103.8 28.25 103.35 28.25 102.8 27.9 102.5 27.55 102.15 27.05 102.15 26.55 102.15 26.2 102.5 25.8 102.8 25.8 103.35 25.8 103.8 26.2 104.2
M 36.45 113.9
Q 37 113.9 37.3 113.55 37.7 113.2 37.7 112.7 37.7 112.15 37.3 111.85 37 111.5 36.45 111.5 36 111.5 35.6 111.85 35.3 112.15 35.3 112.7 35.3 113.2 35.6 113.55 36 113.9 36.45 113.9
M 36.45 102.15
Q 36 102.15 35.6 102.5 35.3 102.8 35.3 103.35 35.3 103.8 35.6 104.2 36 104.55 36.45 104.55 37 104.55 37.3 104.2 37.7 103.8 37.7 103.35 37.7 102.8 37.3 102.5 37 102.15 36.45 102.15
M 54.1 122.05
Q 54.1 122.55 54.5 122.9 54.8 123.3 55.3 123.3 55.85 123.3 56.15 122.9 56.5 122.55 56.5 122.05 56.5 121.55 56.15 121.3 55.85 120.9 55.3 120.9 54.8 120.9 54.5 121.3 54.1 121.55 54.1 122.05
M 44.65 122.05
Q 44.65 122.55 45 122.9 45.4 123.3 45.85 123.3 46.4 123.3 46.7 122.9 47.1 122.55 47.1 122.05 47.1 121.55 46.7 121.3 46.4 120.9 45.85 120.9 45.4 120.9 45 121.3 44.65 121.55 44.65 122.05
M 47.1 112.7
Q 47.1 112.15 46.7 111.85 46.4 111.5 45.85 111.5 45.4 111.5 45 111.85 44.65 112.15 44.65 112.7 44.65 113.2 45 113.55 45.4 113.9 45.85 113.9 46.4 113.9 46.7 113.55 47.1 113.2 47.1 112.7
M 45.85 104.55
Q 46.4 104.55 46.7 104.2 47.1 103.8 47.1 103.35 47.1 102.8 46.7 102.5 46.4 102.15 45.85 102.15 45.4 102.15 45 102.5 44.65 102.8 44.65 103.35 44.65 103.8 45 104.2 45.4 104.55 45.85 104.55
M 56.15 113.55
Q 56.5 113.2 56.5 112.7 56.5 112.15 56.15 111.85 55.85 111.5 55.3 111.5 54.8 111.5 54.5 111.85 54.1 112.15 54.1 112.7 54.1 113.2 54.5 113.55 54.8 113.9 55.3 113.9 55.85 113.9 56.15 113.55
M 56.5 103.35
Q 56.5 102.8 56.15 102.5 55.85 102.15 55.3 102.15 54.8 102.15 54.5 102.5 54.1 102.8 54.1 103.35 54.1 103.8 54.5 104.2 54.8 104.55 55.3 104.55 55.85 104.55 56.15 104.2 56.5 103.8 56.5 103.35
M 73.3 121.3
Q 72.95 121.55 72.95 122.05 72.95 122.55 73.3 122.9 73.65 123.3 74.1 123.3 74.7 123.3 75 122.9 75.3 122.55 75.3 122.05 75.3 121.55 75 121.3 74.7 120.9 74.1 120.9 73.65 120.9 73.3 121.3
M 63.85 121.3
Q 63.55 121.55 63.55 122.05 63.55 122.55 63.85 122.9 64.25 123.3 64.75 123.3 65.25 123.3 65.55 122.9 65.9 122.55 65.9 122.05 65.9 121.55 65.55 121.3 65.25 120.9 64.75 120.9 64.25 120.9 63.85 121.3
M 65.55 111.85
Q 65.25 111.5 64.75 111.5 64.25 111.5 63.85 111.85 63.55 112.15 63.55 112.7 63.55 113.2 63.85 113.55 64.25 113.9 64.75 113.9 65.25 113.9 65.55 113.55 65.9 113.2 65.9 112.7 65.9 112.15 65.55 111.85
M 63.85 104.2
Q 64.25 104.55 64.75 104.55 65.25 104.55 65.55 104.2 65.9 103.8 65.9 103.35 65.9 102.8 65.55 102.5 65.25 102.15 64.75 102.15 64.25 102.15 63.85 102.5 63.55 102.8 63.55 103.35 63.55 103.8 63.85 104.2
M 75 111.85
Q 74.7 111.5 74.1 111.5 73.65 111.5 73.3 111.85 72.95 112.15 72.95 112.7 72.95 113.2 73.3 113.55 73.65 113.9 74.1 113.9 74.7 113.9 75 113.55 75.3 113.2 75.3 112.7 75.3 112.15 75 111.85
M 72.95 103.35
Q 72.95 103.8 73.3 104.2 73.65 104.55 74.1 104.55 74.7 104.55 75 104.2 75.3 103.8 75.3 103.35 75.3 102.8 75 102.5 74.7 102.15 74.1 102.15 73.65 102.15 73.3 102.5 72.95 102.8 72.95 103.35
M 75 94.8
Q 75.3 94.45 75.3 93.95 75.3 93.4 75 93.1 74.7 92.75 74.1 92.75 73.65 92.75 73.3 93.1 72.95 93.4 72.95 93.95 72.95 94.45 73.3 94.8 73.65 95.15 74.1 95.15 74.7 95.15 75 94.8
M 63.85 93.1
Q 63.55 93.4 63.55 93.95 63.55 94.45 63.85 94.8 64.25 95.15 64.75 95.15 65.25 95.15 65.55 94.8 65.9 94.45 65.9 93.95 65.9 93.4 65.55 93.1 65.25 92.75 64.75 92.75 64.25 92.75 63.85 93.1
M 64.75 85.75
Q 65.25 85.75 65.55 85.45 65.9 85.05 65.9 84.55 65.9 84.05 65.55 83.75 65.25 83.35 64.75 83.35 64.25 83.35 63.85 83.75 63.55 84.05 63.55 84.55 63.55 85.05 63.85 85.45 64.25 85.75 64.75 85.75
M 72.95 84.55
Q 72.95 85.05 73.3 85.45 73.65 85.75 74.1 85.75 74.7 85.75 75 85.45 75.3 85.05 75.3 84.55 75.3 84.05 75 83.75 74.7 83.35 74.1 83.35 73.65 83.35 73.3 83.75 72.95 84.05 72.95 84.55
M 54.5 93.1
Q 54.1 93.4 54.1 93.95 54.1 94.45 54.5 94.8 54.8 95.15 55.3 95.15 55.85 95.15 56.15 94.8 56.5 94.45 56.5 93.95 56.5 93.4 56.15 93.1 55.85 92.75 55.3 92.75 54.8 92.75 54.5 93.1
M 45 93.1
Q 44.65 93.4 44.65 93.95 44.65 94.45 45 94.8 45.4 95.15 45.85 95.15 46.4 95.15 46.7 94.8 47.1 94.45 47.1 93.95 47.1 93.4 46.7 93.1 46.4 92.75 45.85 92.75 45.4 92.75 45 93.1
M 44.65 84.55
Q 44.65 85.05 45 85.45 45.4 85.75 45.85 85.75 46.4 85.75 46.7 85.45 47.1 85.05 47.1 84.55 47.1 84.05 46.7 83.75 46.4 83.35 45.85 83.35 45.4 83.35 45 83.75 44.65 84.05 44.65 84.55
M 54.5 85.45
Q 54.8 85.75 55.3 85.75 55.85 85.75 56.15 85.45 56.5 85.05 56.5 84.55 56.5 84.05 56.15 83.75 55.85 83.35 55.3 83.35 54.8 83.35 54.5 83.75 54.1 84.05 54.1 84.55 54.1 85.05 54.5 85.45
M 56.15 76
Q 56.5 75.7 56.5 75.25 56.5 74.6 56.15 74.35 55.85 73.95 55.3 73.95 54.8 73.95 54.5 74.35 54.1 74.6 54.1 75.25 54.1 75.7 54.5 76 54.8 76.4 55.3 76.4 55.85 76.4 56.15 76
M 45.85 76.4
Q 46.4 76.4 46.7 76 47.1 75.7 47.1 75.25 47.1 74.6 46.7 74.35 46.4 73.95 45.85 73.95 45.4 73.95 45 74.35 44.65 74.6 44.65 75.25 44.65 75.7 45 76 45.4 76.4 45.85 76.4
M 45.85 67.05
Q 46.4 67.05 46.7 66.65 47.1 66.3 47.1 65.8 47.1 65.3 46.7 65 46.4 64.6 45.85 64.6 45.4 64.6 45 65 44.65 65.3 44.65 65.8 44.65 66.3 45 66.65 45.4 67.05 45.85 67.05
M 46.7 55.6
Q 46.4 55.2 45.85 55.2 45.4 55.2 45 55.6 44.65 55.9 44.65 56.45 44.65 56.9 45 57.3 45.4 57.6 45.85 57.6 46.4 57.6 46.7 57.3 47.1 56.9 47.1 56.45 47.1 55.9 46.7 55.6
M 56.5 65.8
Q 56.5 65.3 56.15 65 55.85 64.6 55.3 64.6 54.8 64.6 54.5 65 54.1 65.3 54.1 65.8 54.1 66.3 54.5 66.65 54.8 67.05 55.3 67.05 55.85 67.05 56.15 66.65 56.5 66.3 56.5 65.8
M 55.3 55.2
Q 54.8 55.2 54.5 55.6 54.1 55.9 54.1 56.45 54.1 56.9 54.5 57.3 54.8 57.6 55.3 57.6 55.85 57.6 56.15 57.3 56.5 56.9 56.5 56.45 56.5 55.9 56.15 55.6 55.85 55.2 55.3 55.2
M 75 76
Q 75.3 75.7 75.3 75.25 75.3 74.6 75 74.35 74.7 73.95 74.1 73.95 73.65 73.95 73.3 74.35 72.95 74.6 72.95 75.25 72.95 75.7 73.3 76 73.65 76.4 74.1 76.4 74.7 76.4 75 76
M 64.75 76.4
Q 65.25 76.4 65.55 76 65.9 75.7 65.9 75.25 65.9 74.6 65.55 74.35 65.25 73.95 64.75 73.95 64.25 73.95 63.85 74.35 63.55 74.6 63.55 75.25 63.55 75.7 63.85 76 64.25 76.4 64.75 76.4
M 64.75 64.6
Q 64.25 64.6 63.85 65 63.55 65.3 63.55 65.8 63.55 66.3 63.85 66.65 64.25 67.05 64.75 67.05 65.25 67.05 65.55 66.65 65.9 66.3 65.9 65.8 65.9 65.3 65.55 65 65.25 64.6 64.75 64.6
M 65.55 55.6
Q 65.25 55.2 64.75 55.2 64.25 55.2 63.85 55.6 63.55 55.9 63.55 56.45 63.55 56.9 63.85 57.3 64.25 57.6 64.75 57.6 65.25 57.6 65.55 57.3 65.9 56.9 65.9 56.45 65.9 55.9 65.55 55.6
M 73.3 65
Q 72.95 65.3 72.95 65.8 72.95 66.3 73.3 66.65 73.65 67.05 74.1 67.05 74.7 67.05 75 66.65 75.3 66.3 75.3 65.8 75.3 65.3 75 65 74.7 64.6 74.1 64.6 73.65 64.6 73.3 65
M 75 55.6
Q 74.7 55.2 74.1 55.2 73.65 55.2 73.3 55.6 72.95 55.9 72.95 56.45 72.95 56.9 73.3 57.3 73.65 57.6 74.1 57.6 74.7 57.6 75 57.3 75.3 56.9 75.3 56.45 75.3 55.9 75 55.6
M 36.45 95.15
Q 37 95.15 37.3 94.8 37.7 94.45 37.7 93.95 37.7 93.4 37.3 93.1 37 92.75 36.45 92.75 36 92.75 35.6 93.1 35.3 93.4 35.3 93.95 35.3 94.45 35.6 94.8 36 95.15 36.45 95.15
M 27.9 94.8
Q 28.25 94.45 28.25 93.95 28.25 93.4 27.9 93.1 27.55 92.75 27.05 92.75 26.55 92.75 26.2 93.1 25.8 93.4 25.8 93.95 25.8 94.45 26.2 94.8 26.55 95.15 27.05 95.15 27.55 95.15 27.9 94.8
M 26.2 83.75
Q 25.8 84.05 25.8 84.55 25.8 85.05 26.2 85.45 26.55 85.75 27.05 85.75 27.55 85.75 27.9 85.45 28.25 85.05 28.25 84.55 28.25 84.05 27.9 83.75 27.55 83.35 27.05 83.35 26.55 83.35 26.2 83.75
M 37.3 83.75
Q 37 83.35 36.45 83.35 36 83.35 35.6 83.75 35.3 84.05 35.3 84.55 35.3 85.05 35.6 85.45 36 85.75 36.45 85.75 37 85.75 37.3 85.45 37.7 85.05 37.7 84.55 37.7 84.05 37.3 83.75
M 18.9 93.95
Q 18.9 93.4 18.5 93.1 18.2 92.75 17.65 92.75 17.15 92.75 16.8 93.1 16.4 93.4 16.4 93.95 16.4 94.45 16.8 94.8 17.15 95.15 17.65 95.15 18.2 95.15 18.5 94.8 18.9 94.45 18.9 93.95
M 16.8 83.75
Q 16.4 84.05 16.4 84.55 16.4 85.05 16.8 85.45 17.15 85.75 17.65 85.75 18.2 85.75 18.5 85.45 18.9 85.05 18.9 84.55 18.9 84.05 18.5 83.75 18.2 83.35 17.65 83.35 17.15 83.35 16.8 83.75
M 18.5 76
Q 18.9 75.7 18.9 75.25 18.9 74.6 18.5 74.35 18.2 73.95 17.65 73.95 17.15 73.95 16.8 74.35 16.4 74.6 16.4 75.25 16.4 75.7 16.8 76 17.15 76.4 17.65 76.4 18.2 76.4 18.5 76
M 16.4 65.8
Q 16.4 66.3 16.8 66.65 17.15 67.05 17.65 67.05 18.2 67.05 18.5 66.65 18.9 66.3 18.9 65.8 18.9 65.3 18.5 65 18.2 64.6 17.65 64.6 17.15 64.6 16.8 65 16.4 65.3 16.4 65.8
M 18.5 55.6
Q 18.2 55.2 17.65 55.2 17.15 55.2 16.8 55.6 16.4 55.9 16.4 56.45 16.4 56.9 16.8 57.3 17.15 57.6 17.65 57.6 18.2 57.6 18.5 57.3 18.9 56.9 18.9 56.45 18.9 55.9 18.5 55.6
M 36.45 76.4
Q 37 76.4 37.3 76 37.7 75.7 37.7 75.25 37.7 74.6 37.3 74.35 37 73.95 36.45 73.95 36 73.95 35.6 74.35 35.3 74.6 35.3 75.25 35.3 75.7 35.6 76 36 76.4 36.45 76.4
M 27.9 76
Q 28.25 75.7 28.25 75.25 28.25 74.6 27.9 74.35 27.55 73.95 27.05 73.95 26.55 73.95 26.2 74.35 25.8 74.6 25.8 75.25 25.8 75.7 26.2 76 26.55 76.4 27.05 76.4 27.55 76.4 27.9 76
M 26.2 66.65
Q 26.55 67.05 27.05 67.05 27.55 67.05 27.9 66.65 28.25 66.3 28.25 65.8 28.25 65.3 27.9 65 27.55 64.6 27.05 64.6 26.55 64.6 26.2 65 25.8 65.3 25.8 65.8 25.8 66.3 26.2 66.65
M 27.9 55.6
Q 27.55 55.2 27.05 55.2 26.55 55.2 26.2 55.6 25.8 55.9 25.8 56.45 25.8 56.9 26.2 57.3 26.55 57.6 27.05 57.6 27.55 57.6 27.9 57.3 28.25 56.9 28.25 56.45 28.25 55.9 27.9 55.6
M 35.6 66.65
Q 36 67.05 36.45 67.05 37 67.05 37.3 66.65 37.7 66.3 37.7 65.8 37.7 65.3 37.3 65 37 64.6 36.45 64.6 36 64.6 35.6 65 35.3 65.3 35.3 65.8 35.3 66.3 35.6 66.65
M 37.3 55.6
Q 37 55.2 36.45 55.2 36 55.2 35.6 55.6 35.3 55.9 35.3 56.45 35.3 56.9 35.6 57.3 36 57.6 36.45 57.6 37 57.6 37.3 57.3 37.7 56.9 37.7 56.45 37.7 55.9 37.3 55.6
M 37.7 47.05
Q 37.7 46.5 37.3 46.25 37 45.8 36.45 45.8 36 45.8 35.6 46.25 35.3 46.5 35.3 47.05 35.3 47.55 35.6 47.9 36 48.25 36.45 48.25 37 48.25 37.3 47.9 37.7 47.55 37.7 47.05
M 27.05 45.8
Q 26.55 45.8 26.2 46.25 25.8 46.5 25.8 47.05 25.8 47.55 26.2 47.9 26.55 48.25 27.05 48.25 27.55 48.25 27.9 47.9 28.25 47.55 28.25 47.05 28.25 46.5 27.9 46.25 27.55 45.8 27.05 45.8
M 27.05 36.45
Q 26.55 36.45 26.2 36.8 25.8 37.15 25.8 37.7 25.8 38.2 26.2 38.5 26.55 38.85 27.05 38.85 27.55 38.85 27.9 38.5 28.25 38.2 28.25 37.7 28.25 37.15 27.9 36.8 27.55 36.45 27.05 36.45
M 37.3 36.8
Q 37 36.45 36.45 36.45 36 36.45 35.6 36.8 35.3 37.15 35.3 37.7 35.3 38.2 35.6 38.5 36 38.85 36.45 38.85 37 38.85 37.3 38.5 37.7 38.2 37.7 37.7 37.7 37.15 37.3 36.8
M 17.65 45.8
Q 17.15 45.8 16.8 46.25 16.4 46.5 16.4 47.05 16.4 47.55 16.8 47.9 17.15 48.25 17.65 48.25 18.2 48.25 18.5 47.9 18.9 47.55 18.9 47.05 18.9 46.5 18.5 46.25 18.2 45.8 17.65 45.8
M 17.65 36.45
Q 17.15 36.45 16.8 36.8 16.4 37.15 16.4 37.7 16.4 38.2 16.8 38.5 17.15 38.85 17.65 38.85 18.2 38.85 18.5 38.5 18.9 38.2 18.9 37.7 18.9 37.15 18.5 36.8 18.2 36.45 17.65 36.45
M 17.65 27.1
Q 17.15 27.1 16.8 27.45 16.4 27.8 16.4 28.3 16.4 28.75 16.8 29.2 17.15 29.5 17.65 29.5 18.2 29.5 18.5 29.2 18.9 28.75 18.9 28.3 18.9 27.8 18.5 27.45 18.2 27.1 17.65 27.1
M 17.65 17.85
Q 17.15 17.85 16.8 18.15 16.4 18.55 16.4 19 16.4 19.45 16.8 19.9 17.15 20.25 17.65 20.25 18.2 20.25 18.5 19.9 18.9 19.45 18.9 19 18.9 18.55 18.5 18.15 18.2 17.85 17.65 17.85
M 37.7 28.3
Q 37.7 27.8 37.3 27.45 37 27.1 36.45 27.1 36 27.1 35.6 27.45 35.3 27.8 35.3 28.3 35.3 28.75 35.6 29.2 36 29.5 36.45 29.5 37 29.5 37.3 29.2 37.7 28.75 37.7 28.3
M 36.45 17.85
Q 36 17.85 35.6 18.15 35.3 18.55 35.3 19 35.3 19.45 35.6 19.9 36 20.25 36.45 20.25 37 20.25 37.3 19.9 37.7 19.45 37.7 19 37.7 18.55 37.3 18.15 37 17.85 36.45 17.85
M 27.05 27.1
Q 26.55 27.1 26.2 27.45 25.8 27.8 25.8 28.3 25.8 28.75 26.2 29.2 26.55 29.5 27.05 29.5 27.55 29.5 27.9 29.2 28.25 28.75 28.25 28.3 28.25 27.8 27.9 27.45 27.55 27.1 27.05 27.1
M 27.05 17.85
Q 26.55 17.85 26.2 18.15 25.8 18.55 25.8 19 25.8 19.45 26.2 19.9 26.55 20.25 27.05 20.25 27.55 20.25 27.9 19.9 28.25 19.45 28.25 19 28.25 18.55 27.9 18.15 27.55 17.85 27.05 17.85
M 75 46.25
Q 74.7 45.8 74.1 45.8 73.65 45.8 73.3 46.25 72.95 46.5 72.95 47.05 72.95 47.55 73.3 47.9 73.65 48.25 74.1 48.25 74.7 48.25 75 47.9 75.3 47.55 75.3 47.05 75.3 46.5 75 46.25
M 63.85 47.9
Q 64.25 48.25 64.75 48.25 65.25 48.25 65.55 47.9 65.9 47.55 65.9 47.05 65.9 46.5 65.55 46.25 65.25 45.8 64.75 45.8 64.25 45.8 63.85 46.25 63.55 46.5 63.55 47.05 63.55 47.55 63.85 47.9
M 64.75 36.45
Q 64.25 36.45 63.85 36.8 63.55 37.15 63.55 37.7 63.55 38.2 63.85 38.5 64.25 38.85 64.75 38.85 65.25 38.85 65.55 38.5 65.9 38.2 65.9 37.7 65.9 37.15 65.55 36.8 65.25 36.45 64.75 36.45
M 75 36.8
Q 74.7 36.45 74.1 36.45 73.65 36.45 73.3 36.8 72.95 37.15 72.95 37.7 72.95 38.2 73.3 38.5 73.65 38.85 74.1 38.85 74.7 38.85 75 38.5 75.3 38.2 75.3 37.7 75.3 37.15 75 36.8
M 54.1 47.05
Q 54.1 47.55 54.5 47.9 54.8 48.25 55.3 48.25 55.85 48.25 56.15 47.9 56.5 47.55 56.5 47.05 56.5 46.5 56.15 46.25 55.85 45.8 55.3 45.8 54.8 45.8 54.5 46.25 54.1 46.5 54.1 47.05
M 44.65 47.05
Q 44.65 47.55 45 47.9 45.4 48.25 45.85 48.25 46.4 48.25 46.7 47.9 47.1 47.55 47.1 47.05 47.1 46.5 46.7 46.25 46.4 45.8 45.85 45.8 45.4 45.8 45 46.25 44.65 46.5 44.65 47.05
M 46.7 36.8
Q 46.4 36.45 45.85 36.45 45.4 36.45 45 36.8 44.65 37.15 44.65 37.7 44.65 38.2 45 38.5 45.4 38.85 45.85 38.85 46.4 38.85 46.7 38.5 47.1 38.2 47.1 37.7 47.1 37.15 46.7 36.8
M 55.3 36.45
Q 54.8 36.45 54.5 36.8 54.1 37.15 54.1 37.7 54.1 38.2 54.5 38.5 54.8 38.85 55.3 38.85 55.85 38.85 56.15 38.5 56.5 38.2 56.5 37.7 56.5 37.15 56.15 36.8 55.85 36.45 55.3 36.45
M 56.5 28.3
Q 56.5 27.8 56.15 27.45 55.85 27.1 55.3 27.1 54.8 27.1 54.5 27.45 54.1 27.8 54.1 28.3 54.1 28.75 54.5 29.2 54.8 29.5 55.3 29.5 55.85 29.5 56.15 29.2 56.5 28.75 56.5 28.3
M 55.3 17.85
Q 54.8 17.85 54.5 18.15 54.1 18.55 54.1 19 54.1 19.45 54.5 19.9 54.8 20.25 55.3 20.25 55.85 20.25 56.15 19.9 56.5 19.45 56.5 19 56.5 18.55 56.15 18.15 55.85 17.85 55.3 17.85
M 46.7 27.45
Q 46.4 27.1 45.85 27.1 45.4 27.1 45 27.45 44.65 27.8 44.65 28.3 44.65 28.75 45 29.2 45.4 29.5 45.85 29.5 46.4 29.5 46.7 29.2 47.1 28.75 47.1 28.3 47.1 27.8 46.7 27.45
M 46.7 18.15
Q 46.4 17.85 45.85 17.85 45.4 17.85 45 18.15 44.65 18.55 44.65 19 44.65 19.45 45 19.9 45.4 20.25 45.85 20.25 46.4 20.25 46.7 19.9 47.1 19.45 47.1 19 47.1 18.55 46.7 18.15
M 75 27.45
Q 74.7 27.1 74.1 27.1 73.65 27.1 73.3 27.45 72.95 27.8 72.95 28.3 72.95 28.75 73.3 29.2 73.65 29.5 74.1 29.5 74.7 29.5 75 29.2 75.3 28.75 75.3 28.3 75.3 27.8 75 27.45
M 74.1 17.85
Q 73.65 17.85 73.3 18.15 72.95 18.55 72.95 19 72.95 19.45 73.3 19.9 73.65 20.25 74.1 20.25 74.7 20.25 75 19.9 75.3 19.45 75.3 19 75.3 18.55 75 18.15 74.7 17.85 74.1 17.85
M 63.85 29.2
Q 64.25 29.5 64.75 29.5 65.25 29.5 65.55 29.2 65.9 28.75 65.9 28.3 65.9 27.8 65.55 27.45 65.25 27.1 64.75 27.1 64.25 27.1 63.85 27.45 63.55 27.8 63.55 28.3 63.55 28.75 63.85 29.2
M 64.75 17.85
Q 64.25 17.85 63.85 18.15 63.55 18.55 63.55 19 63.55 19.45 63.85 19.9 64.25 20.25 64.75 20.25 65.25 20.25 65.55 19.9 65.9 19.45 65.9 19 65.9 18.55 65.55 18.15 65.25 17.85 64.75 17.85 Z"/>
</g>

<path id="Layer2_0_1_STROKES" stroke="#006666" stroke-width="1" stroke-linejoin="bevel" stroke-linecap="butt" fill="none" d="
M 12.7 12.2
L 78.6 12.2
Q 80.25 12.2 80.25 13.95
L 80.25 126.6
Q 80.25 127.55 79.75 128 79.35 128.35 78.6 128.35
L 12.7 128.35
Q 11.95 128.35 11.55 128 11.05 127.55 11.05 126.6
L 11.05 13.95
Q 11.05 12.2 12.7 12.2 Z"/>

<path id="Layer0_0_1_STROKES" stroke="#FFFFFF" stroke-width="2" stroke-linejoin="miter" stroke-linecap="square" stroke-miterlimit="47" fill="none" d="
M 5.95 4.45
L 85.4 4.45
Q 87.35 4.45 87.35 6.45
L 87.35 134.2
Q 87.35 135.25 86.8 135.8 86.3 136.2 85.4 136.2
L 5.95 136.2
Q 5.05 136.2 4.55 135.8 4 135.25 4 134.2
L 4 6.45
Q 4 4.45 5.95 4.45 Z"/>
</defs>

<g transform="matrix( 1, 0, 0, 1, 0,0) ">
<use xlink:href="#Layer4_0_FILL"/>
</g>

<g transform="matrix( 1, 0, 0, 1, 0,0) ">
<use xlink:href="#Layer3_0_FILL"/>
</g>

<g transform="matrix( 1, 0, 0, 1, 0,0) ">
<use xlink:href="#Layer2_0_1_STROKES"/>
</g>

<g transform="matrix( 1, 0, 0, 1, 0,0) ">
<use xlink:href="#Layer1_0_FILL"/>
</g>

<g transform="matrix( 1, 0, 0, 1, 0,0) ">
<use xlink:href="#Layer0_0_1_STROKES"/>
</g>
</svg>
