
<svg xmlns="http://www.w3.org/2000/svg" version="1.1" xmlns:xlink="http://www.w3.org/1999/xlink" preserveAspectRatio="none" x="0px" y="0px" width="96px" height="144px" viewBox="0 0 96 144">
<defs>
<g id="Layer1_0_FILL">
<path fill="#FFFFFF" stroke="none" d="
M 95.85 0.4
L 0.05 0.4 0.05 143.75 95.85 143.75 95.85 0.4 Z"/>
</g>

<g id="Layer0_0_FILL">
<path fill="#333333" stroke="none" d="
M 84.3 132.9
L 84.3 133.2
Q 84.35 133.2 84.55 133.25 84.75 133.3 84.85 133.35 85 133.4 85.05 133.5 85.1 133.6 85.1 133.75
L 85.1 137.7
Q 85.1 137.85 85.05 137.95 85 138.05 84.85 138.1 84.75 138.15 84.6 138.15 84.4 138.15 84.3 138.2
L 84.3 138.5 87.25 138.5 87.25 138.2
Q 87.15 138.15 87 138.15 86.85 138.1 86.75 138.05 86.6 138 86.55 137.9 86.5 137.8 86.5 137.65
L 86.5 135.95 86.7 135.95
Q 87.25 136.65 87.6 137.15 88 137.65 88.55 138.5
L 90.7 138.5 90.7 138.2
Q 90.65 138.2 90.5 138.15 90.35 138.15 90.25 138.1 90.1 138.05 89.9 137.85 89.65 137.6 89.55 137.45 89.15 137 88.8 136.55 88.45 136.05 88.2 135.7 88.9 135.55 89.2 135.2 89.55 134.8 89.55 134.2 89.55 133.55 89 133.25 88.45 132.9 87.4 132.9
L 84.3 132.9
M 88 134.35
Q 88 135 87.7 135.3 87.35 135.6 86.8 135.6
L 86.5 135.6 86.5 133.25 86.8 133.25
Q 87.4 133.25 87.7 133.55 88 133.8 88 134.35
M 84.6 123.55
Q 84.65 123.55 84.85 123.6 85.05 123.65 85.15 123.7 85.3 123.75 85.35 123.85 85.4 123.95 85.4 124.1
L 85.4 128
Q 85.4 128.15 85.35 128.25 85.3 128.35 85.15 128.4 85.05 128.45 84.9 128.45 84.7 128.5 84.6 128.5
L 84.6 128.8 89.8 128.8 89.9 127.05 89.65 127.05
Q 89.55 127.25 89.35 127.65 89.1 128.05 88.9 128.25 88.85 128.35 88.7 128.35 88.55 128.4 88.35 128.4 88.25 128.45 88.05 128.45 87.85 128.45 87.7 128.45 87.4 128.45 87.25 128.45 87.1 128.4 86.95 128.35 86.85 128.25 86.85 128.1 86.8 127.95 86.8 127.7
L 86.8 126.1 87.35 126.1
Q 87.6 126.1 87.75 126.15 87.95 126.2 88.1 126.35 88.15 126.45 88.25 126.7 88.35 126.95 88.4 127.1
L 88.7 127.1 88.7 124.75 88.4 124.75
Q 88.35 124.95 88.25 125.15 88.2 125.4 88.1 125.5 87.95 125.65 87.75 125.7 87.6 125.75 87.35 125.75
L 86.8 125.75 86.8 123.6 87.6 123.6
Q 87.75 123.6 87.95 123.6 88.15 123.6 88.3 123.65 88.55 123.7 88.85 124 89.1 124.3 89.25 124.65
L 89.55 124.65 89.55 123.2 84.6 123.2 84.6 123.55
M 89.05 114.4
Q 89.35 114.15 89.65 114 89.95 113.9 90.4 113.85
L 90.4 113.55 87.95 113.55 87.95 113.85
Q 88.25 113.85 88.4 113.9 88.55 113.95 88.55 114 88.55 114.15 88.4 114.35 88.25 114.55 87.95 114.9 87.7 115.15 87.3 115.55 86.9 115.95 86.6 116.25
L 86.4 116.25 86.4 114.35
Q 86.4 114.2 86.45 114.1 86.5 114 86.65 113.95 86.8 113.9 86.95 113.9 87.15 113.85 87.25 113.85
L 87.25 113.55 84.2 113.55 84.2 113.85
Q 84.3 113.85 84.5 113.9 84.65 113.95 84.75 114 84.95 114.05 84.95 114.15 85 114.25 85 114.4
L 85 118.35
Q 85 118.5 84.95 118.6 84.9 118.7 84.75 118.75 84.7 118.8 84.5 118.8 84.3 118.8 84.2 118.8
L 84.2 119.15 87.15 119.15 87.15 118.8
Q 87 118.8 86.9 118.8 86.75 118.75 86.65 118.7 86.5 118.65 86.45 118.55 86.4 118.45 86.4 118.3
L 86.4 116.55 86.6 116.55
Q 87.25 117.35 87.65 117.85 88.05 118.35 88.55 119.15
L 90.75 119.15 90.75 118.8
Q 90.65 118.8 90.55 118.8 90.4 118.75 90.35 118.75 90.1 118.65 89.95 118.5 89.75 118.35 89.65 118.2 89.1 117.55 88.6 116.9 88.05 116.2 87.65 115.75 88.1 115.3 88.35 115.05 88.65 114.75 89.05 114.4
M 88.4 103.9
Q 87.85 103.7 87.2 103.7 86.6 103.7 86.05 103.9 85.5 104.15 85.1 104.55 84.65 104.95 84.45 105.5 84.2 106.05 84.2 106.75 84.2 107.35 84.45 107.9 84.65 108.45 85.1 108.8 85.5 109.2 86.05 109.4 86.6 109.6 87.2 109.6 87.95 109.6 88.5 109.35 89.05 109.15 89.45 108.75 89.85 108.35 90.05 107.8 90.25 107.25 90.25 106.6 90.25 105.95 90 105.4 89.75 104.85 89.35 104.5 88.95 104.15 88.4 103.9
M 87.2 104.1
Q 87.65 104.1 87.9 104.3 88.2 104.55 88.35 104.9 88.55 105.25 88.6 105.7 88.65 106.15 88.65 106.65 88.65 107.2 88.6 107.65 88.5 108.15 88.35 108.5 88.15 108.8 87.9 109 87.6 109.2 87.2 109.2 86.85 109.2 86.55 109 86.3 108.8 86.1 108.5 85.95 108.15 85.85 107.65 85.75 107.2 85.75 106.7 85.75 105.45 86.15 104.75 86.5 104.1 87.2 104.1
M 85.1 98
Q 84.9 98.25 84.9 98.6 84.9 99.2 85.35 99.6 85.75 99.9 86.5 99.9 86.95 99.9 87.35 99.8 87.7 99.7 88 99.45 88.3 99.2 88.45 98.85 88.65 98.5 88.65 98.1
L 88.65 95
Q 88.65 94.85 88.7 94.75 88.75 94.65 88.9 94.6 89 94.55 89.15 94.55 89.25 94.5 89.4 94.5
L 89.4 94.2 86.4 94.2 86.4 94.5
Q 86.55 94.5 86.7 94.55 86.85 94.6 87 94.65 87.15 94.7 87.2 94.8 87.25 94.9 87.25 95.05
L 87.25 98.2
Q 87.25 98.9 86.95 99.2 86.7 99.55 86.2 99.55 86.1 99.55 86 99.5 85.85 99.45 85.85 99.35
L 85.85 99.3
Q 86.05 99.15 86.25 98.9 86.4 98.7 86.4 98.45 86.4 98.15 86.2 97.95 86 97.75 85.65 97.75 85.3 97.75 85.1 98
M 4.75 44.4
Q 4.8 44.5 4.8 44.65
L 4.8 48.6
Q 4.8 48.75 4.75 48.85 4.7 48.95 4.5 49 4.45 49.05 4.25 49.05 4.1 49.1 3.95 49.1
L 3.95 49.4 6.95 49.4 6.95 49.1
Q 6.8 49.1 6.65 49.05 6.5 49 6.45 49 6.3 48.9 6.25 48.8 6.15 48.7 6.15 48.6
L 6.15 46.9 6.4 46.9
Q 6.95 47.55 7.3 48.05 7.7 48.55 8.25 49.4
L 10.35 49.4 10.35 49.1
Q 10.3 49.1 10.2 49.1 10.05 49.05 9.95 49 9.8 48.95 9.6 48.75 9.35 48.5 9.25 48.35 8.85 47.9 8.5 47.45 8.15 47 7.85 46.65 8.55 46.45 8.9 46.1 9.25 45.7 9.25 45.15 9.25 44.45 8.7 44.15 8.15 43.8 7.1 43.8
L 3.95 43.8 3.95 44.1
Q 4.05 44.15 4.25 44.2 4.4 44.2 4.5 44.25 4.7 44.35 4.75 44.4
M 6.5 44.2
Q 7.05 44.2 7.4 44.45 7.7 44.7 7.7 45.25 7.7 45.9 7.35 46.2 7.05 46.5 6.45 46.5
L 6.15 46.5 6.15 44.2 6.5 44.2
M 4.55 34.5
Q 4.75 34.55 4.8 34.6 5 34.65 5.05 34.75 5.1 34.85 5.1 35
L 5.1 38.95
Q 5.1 39.05 5 39.2 5 39.25 4.8 39.35 4.75 39.35 4.55 39.4 4.35 39.4 4.25 39.4
L 4.25 39.7 9.5 39.7 9.6 38 9.3 38
Q 9.25 38.2 9 38.6 8.75 38.95 8.6 39.15 8.5 39.25 8.35 39.25 8.25 39.3 8.05 39.35 7.9 39.35 7.7 39.35 7.5 39.35 7.4 39.35 7.1 39.35 6.95 39.35 6.75 39.3 6.65 39.25 6.55 39.15 6.5 39 6.45 38.85 6.45 38.6
L 6.45 37 7.05 37
Q 7.25 37 7.45 37.05 7.65 37.1 7.75 37.25 7.85 37.35 7.95 37.6 8.05 37.85 8.05 38
L 8.35 38 8.35 35.7 8.05 35.7
Q 8.05 35.85 7.95 36.1 7.85 36.3 7.75 36.4 7.6 36.55 7.45 36.6 7.25 36.65 7.05 36.65
L 6.45 36.65 6.45 34.5 7.3 34.5
Q 7.4 34.5 7.65 34.5 7.85 34.5 7.95 34.55 8.25 34.6 8.5 34.95 8.8 35.25 8.9 35.55
L 9.2 35.55 9.2 34.15 4.25 34.15 4.25 34.45
Q 4.35 34.45 4.55 34.5
M 10.05 24.45
L 7.65 24.45 7.65 24.75
Q 7.95 24.8 8.1 24.8 8.25 24.85 8.25 24.9 8.25 25.05 8.1 25.25 7.95 25.5 7.6 25.85 7.4 26.1 7 26.45 6.6 26.85 6.25 27.15
L 6.1 27.15 6.1 25.25
Q 6.1 25.1 6.15 25.05 6.2 24.9 6.35 24.85 6.45 24.8 6.65 24.8 6.8 24.8 6.95 24.75
L 6.95 24.45 3.85 24.45 3.85 24.75
Q 4 24.8 4.15 24.8 4.35 24.85 4.45 24.9 4.6 24.95 4.65 25.1 4.7 25.15 4.7 25.3
L 4.7 29.25
Q 4.7 29.4 4.65 29.5 4.6 29.6 4.45 29.65 4.35 29.7 4.2 29.7 4 29.75 3.85 29.75
L 3.85 30.05 6.85 30.05 6.85 29.75
Q 6.7 29.7 6.55 29.7 6.4 29.65 6.35 29.6 6.2 29.55 6.15 29.45 6.1 29.35 6.1 29.2
L 6.1 27.45 6.3 27.45
Q 6.95 28.25 7.35 28.75 7.75 29.25 8.25 30.05
L 10.45 30.05 10.45 29.75
Q 10.35 29.75 10.25 29.7 10.1 29.7 10 29.65 9.8 29.55 9.6 29.4 9.45 29.25 9.3 29.1 8.8 28.45 8.25 27.8 7.75 27.1 7.35 26.65 7.8 26.25 8.05 25.95 8.35 25.7 8.75 25.3 9.05 25.05 9.35 24.9 9.65 24.8 10.05 24.75
L 10.05 24.45
M 9.05 15.4
Q 8.65 15.05 8.1 14.8 7.5 14.65 6.9 14.65 6.25 14.65 5.7 14.85 5.15 15.05 4.75 15.45 4.35 15.85 4.1 16.4 3.85 16.95 3.85 17.65 3.85 18.3 4.1 18.85 4.35 19.35 4.75 19.75 5.2 20.1 5.7 20.3 6.25 20.5 6.85 20.5 7.65 20.5 8.15 20.3 8.7 20.05 9.15 19.65 9.5 19.25 9.7 18.7 9.95 18.15 9.95 17.55 9.95 16.85 9.7 16.3 9.45 15.8 9.05 15.4
M 5.45 17.6
Q 5.45 16.35 5.8 15.7 6.2 15 6.9 15 7.3 15 7.6 15.2 7.85 15.45 8.05 15.8 8.2 16.15 8.3 16.6 8.35 17.05 8.35 17.55 8.35 18.1 8.25 18.6 8.2 19.05 8 19.4 7.85 19.75 7.6 19.95 7.3 20.1 6.9 20.1 6.5 20.1 6.25 19.95 5.95 19.75 5.8 19.4 5.6 19.05 5.55 18.6 5.45 18.1 5.45 17.6
M 6.1 5.1
L 6.1 5.4
Q 6.2 5.4 6.4 5.45 6.55 5.5 6.65 5.55 6.85 5.6 6.85 5.7 6.9 5.8 6.9 5.95
L 6.9 9.1
Q 6.9 9.8 6.65 10.1 6.4 10.45 5.9 10.45 5.8 10.45 5.65 10.4 5.55 10.35 5.5 10.3
L 5.5 10.2
Q 5.75 10.05 5.9 9.8 6.1 9.6 6.1 9.35 6.1 9.05 5.9 8.85 5.7 8.65 5.35 8.65 5 8.65 4.75 8.9 4.55 9.15 4.55 9.5 4.55 10.1 5 10.5 5.45 10.85 6.2 10.85 6.6 10.85 7 10.7 7.35 10.6 7.7 10.35 8 10.1 8.15 9.75 8.3 9.4 8.3 9
L 8.3 5.9
Q 8.3 5.75 8.35 5.65 8.4 5.55 8.55 5.5 8.7 5.45 8.8 5.45 8.95 5.45 9.1 5.4
L 9.1 5.1 6.1 5.1
M 59.45 23.35
Q 53.55 22.65 47.5 24.05 40.65 22.4 34.95 23.1 19.65 25.7 17.2 38.9 15.5 38.95 14.25 40.15 13 41.4 13 43.2 13 44.95 14.25 46.2 14.3 46.2 14.3 46.25 15.55 47.45 17.25 47.45 19 47.45 20.2 46.25
L 20.25 46.2
Q 21.5 44.95 21.5 43.2 21.5 41.4 20.25 40.15 20.1 40 19.9 39.85 22.15 36.95 25.7 36.6
L 22.85 40.4
Q 24.15 46.7 23.55 53.65 21.85 56.25 17.95 57.2 16 58.45 14.9 60.4 16.85 59.5 18.5 59.3 19.05 59.2 19.65 59.2 24.45 58.15 26.55 54.05 27.35 52.45 27.55 50.75 27.55 50.55 27.6 50.3
L 29.3 49.25
Q 29.55 53.5 27.05 56.95 24.55 60.45 18.75 61.5 18.55 61.55 18.4 61.65 14.25 63.2 13.25 67.4 11.65 73.45 17.2 77.3 17.1 77.05 17 76.85 12.45 66.95 19.5 63.9 25.9 62.35 27.3 60.5 26.1 63.45 24.5 65.65 23.2 67.4 22.95 69.3 22.45 72.8 26 81 22.9 78.6 21.95 75.15 22.35 78.5 21.55 78.8 15.9 72.95 21.3 65.3 12.7 69.2 19.3 79.35 16.2 80.25 14 78.2 15.25 84.7 22.55 83.9 20.8 87.05 15 85 17.55 91.9 28.2 91.65 23.45 97.95 21.9 104.6 21.4 106.85 23.55 106.2
L 31.5 104.5
Q 30.5 108.95 30.8 113.4 30.95 115.5 32.9 114.65
L 39.05 111.4 40.4 117.75
Q 40.95 120.55 42.3 118.95
L 47.5 113.65 52.65 118.95
Q 54 120.55 54.6 117.75
L 55.9 111.4 62.05 114.65
Q 64 115.5 64.15 113.4 64.45 108.95 63.45 104.5
L 71.4 106.2
Q 73.55 106.85 73.05 104.6 71.5 97.95 66.75 91.65 77.45 91.9 79.95 85 74.2 87.05 72.4 83.9 79.7 84.7 81 78.2 78.75 80.25 75.65 79.35 82.25 69.2 73.65 65.3 79.05 72.95 73.45 78.8 72.65 78.5 73.05 75.15 72.05 78.6 69 81 72.55 72.8 72.05 69.3 71.8 67.4 70.45 65.65 68.9 63.45 67.7 60.5 69.1 62.35 75.45 63.9 82.55 66.95 77.95 76.85 77.85 77.05 77.75 77.3 83.35 73.45 81.7 67.4 80.7 63.2 76.6 61.65 76.4 61.55 76.25 61.5 70.45 60.45 67.9 56.95 65.4 53.5 65.7 49.25
L 67.4 50.3
Q 67.4 50.55 67.45 50.75 67.6 52.45 68.4 54.05 70.5 58.15 75.35 59.2 75.9 59.2 76.5 59.3 78.15 59.5 80.05 60.4 79 58.45 77 57.2 73.15 56.25 71.4 53.65 70.85 46.7 71.45 40.45
L 68.7 36.85
Q 72.25 37.2 74.5 40.1 74.3 40.25 74.15 40.45 72.9 41.7 72.9 43.45 72.9 45.2 74.15 46.45
L 74.15 46.5
Q 75.4 47.7 77.15 47.7 78.85 47.7 80.1 46.5
L 80.15 46.45
Q 81.4 45.2 81.4 43.45 81.4 41.7 80.15 40.45 78.9 39.2 77.2 39.2 74.75 25.95 59.45 23.35
M 44.9 32.2
L 44.85 32.2
Q 44.8 32.25 44.75 32.3 44.8 32.3 44.85 32.3
L 44.9 32.3
Q 46.1 32.2 47.15 32.15 63.1 31.6 68.35 42.55 65.4 40.15 62.45 38.55
L 64.2 40.9
Q 64 40.75 63.8 40.65 57.15 36.95 50.1 36.55
L 50.05 36.55
Q 49 36.5 47.95 36.5 47.9 36.5 47.8 36.5
L 47.4 36.5
Q 47.35 36.5 47.3 36.5
L 47.25 36.5
Q 47.2 36.5 47.15 36.5 46.7 36.5 46.25 36.5 45.6 36.5 44.9 36.55
L 44.85 36.55
Q 37.6 36.95 30.75 40.9
L 32.55 38.55
Q 29.45 39.2 25.85 42.7 27.75 32 31.7 29.3 27.75 28.55 23.45 31 30.95 24.55 42.25 25.65 34.45 28.35 30.25 35 30.2 35.05 30.15 35.1 37.75 29.25 43.6 27.55 49.5 25.8 51.65 25.6 63.1 24.55 70.95 31.25 66.65 28.8 62.7 29.55 65.4 31.8 65.5 34.6 55.1 27.3 47.15 30.9 46 31.4 44.9 32.2
M 50.05 39.8
L 50.1 39.8
Q 61.4 40.55 68.7 46.9
L 68.7 48.4
Q 61.7 42.9 50.1 42
L 50.05 42
Q 48.95 41.9 47.55 41.9 46.05 41.9 44.9 42
L 44.85 42
Q 33.25 42.9 26.25 48.4
L 26.25 46.9
Q 33.6 40.55 44.85 39.8
L 44.9 39.8
Q 46.05 39.7 47.15 39.7 47.2 39.7 47.35 39.7 47.75 39.7 47.8 39.7 48.95 39.7 50.05 39.8
M 44.85 44.25
L 44.9 44.25
Q 46.05 44.2 47.15 44.15 47.25 44.15 47.3 44.15
L 47.7 44.15
Q 47.75 44.15 47.8 44.15 48.95 44.2 50.05 44.25
L 50.1 44.25
Q 57.25 44.75 63.65 47.95 63.55 55.3 65.3 61.4 67.6 65.7 68.2 68.45 70.85 76.75 59.25 94.9 56.4 100 54.15 102.95 51.85 105.95 49.7 105.4 48.5 105.1 47.4 105.1 46.45 105.1 45.3 105.4 43.15 105.95 40.85 102.95 38.55 100 35.7 94.9 24.15 76.75 26.8 68.45 27.4 65.7 29.65 61.4 31.45 55.3 31.35 47.95 37.7 44.75 44.85 44.25
M 77.15 41.15
Q 78.1 41.15 78.75 41.8 79.45 42.5 79.45 43.45 79.45 44.4 78.75 45.05 78.1 45.75 77.15 45.75 76.2 45.75 75.5 45.05 74.8 44.4 74.8 43.45 74.8 42.5 75.5 41.8 76.2 41.15 77.15 41.15
M 18.9 41.55
Q 19.55 42.2 19.55 43.15 19.55 44.1 18.9 44.8 18.2 45.5 17.25 45.5 16.3 45.5 15.65 44.8 14.95 44.1 14.95 43.15 14.95 42.2 15.65 41.55 16.3 40.85 17.25 40.85 18.2 40.85 18.9 41.55
M 30.85 92.4
L 31.9 94.3
Q 30.15 96 29.95 98.3
L 33.3 96
Q 36.75 105.5 45.65 112.05
L 42.95 114.9
Q 42.15 115.55 41.8 114.15
L 40.25 107.85 35.3 110.6
Q 33.05 111.9 33.4 109.1
L 34.35 101.3 26.85 103.05
Q 24.5 103.75 25.35 101.6 27.25 96.3 30.85 92.4
M 65.05 98.3
Q 64.8 96 63.05 94.3
L 64.15 92.4
Q 67.7 96.3 69.6 101.6 70.5 103.75 68.15 103.05
L 60.6 101.3 61.6 109.1
Q 61.9 111.9 59.65 110.6
L 54.75 107.85 53.2 114.15
Q 52.8 115.55 52.05 114.9
L 49.3 112.05
Q 58.25 105.5 61.65 96
L 65.05 98.3
M 53.55 77.15
Q 53.5 75.45 51.35 74.75 50.85 74.75 51.35 75.25 52.25 75.75 52.6 76.45 52.9 77.85 51.75 77.7 50.3 77.85 49.6 78.8 48.9 79.7 47.4 79.7 46.1 79.7 45.4 78.8 44.65 77.85 43.25 77.7 42.1 77.85 42.4 76.45 42.7 75.75 43.65 75.25 44.15 74.75 43.6 74.75 41.45 75.45 41.4 77.15 41.4 78.9 43.55 78.8 44.6 79.2 44.9 79.75 45.05 80.3 45.95 80.85 46.8 81.35 47.55 81.35 48.2 81.3 49.05 80.8 49.9 80.3 50.1 79.75 50.4 79.2 51.45 78.8 53.6 78.9 53.55 77.15
M 54.85 66.95
L 52.5 67.5
Q 55.4 69.25 59.45 77.5 58.6 70.85 61.65 67.7
L 59.6 66.95
Q 63.05 64.95 66.6 66.25 59.7 61.2 57.7 54.3 56.2 58.7 52.95 62.65 50.1 65.4 49.8 67.85 51.7 64.75 54.85 66.95
M 45 51.1
Q 44.95 51.05 44.9 51 37.4 45.35 33.35 51.65 36.8 48.55 42.25 50.45 44.05 51.1 44.9 51.1 44.95 51.1 45 51.1
M 50.05 51
Q 50 51.05 49.95 51.1 50 51.1 50.05 51.1 50.95 51.1 52.75 50.45 58.2 48.55 61.65 51.65 57.6 45.35 50.05 51
M 55.35 54.5
Q 56.9 53.55 58.2 53.6 60.25 53.5 62 56.05 60.25 49.55 50.05 54.85 49.85 54.95 49.7 55 49.85 55.15 50.05 55.2 52.85 56.65 55.35 54.5
M 29.75 74.45
Q 32.9 81.15 37.3 87.85
L 41.3 96.2
Q 42.9 99.45 47.3 99.35 47.4 99.35 47.5 99.35 47.55 99.35 47.65 99.35 52.05 99.5 53.7 96.2
L 57.7 87.85
Q 62.1 81.15 65.2 74.45 57.25 81.6 47.75 82.5 47.6 82.5 47.5 82.5 47.35 82.5 47.25 82.5 37.75 81.6 29.75 74.45
M 37.7 84.3
L 37.65 82.05
Q 38.95 82.7 39.55 82.8
L 39.55 85.85 37.7 84.3
M 55.4 85.85
L 55.4 82.8
Q 56.05 82.7 57.35 82.05
L 57.25 84.3 55.4 85.85
M 51.8 83.95
Q 53.1 83.7 54.35 83.25
L 54.35 86.45
Q 53.35 87.1 51.8 87.6
L 51.8 83.95
M 40.6 83.25
Q 41.85 83.7 43.2 83.95
L 43.2 87.6
Q 41.6 87.1 40.6 86.45
L 40.6 83.25
M 44.1 84.2
Q 45.55 84.55 47 84.55
L 47 88.35
Q 45.45 88.45 44.1 87.8
L 44.1 84.2
M 47.45 96.6
Q 43.2 96.9 41.6 92.95 43.9 95.35 47.1 95.45 47.15 95.45 47.2 95.45
L 47.55 95.45
Q 47.7 95.45 47.85 95.45 51.1 95.35 53.4 92.95 51.8 96.9 47.45 96.6
M 50.9 84.2
L 50.9 87.8
Q 49.5 88.45 47.95 88.35
L 47.95 84.55
Q 49.45 84.55 50.9 84.2
M 35.4 66.95
L 33.35 67.7
Q 36.35 70.85 35.5 77.5 39.6 69.25 42.45 67.5
L 40.15 66.95
Q 43.25 64.75 45.2 67.85 44.9 65.4 42 62.65 38.8 58.7 37.25 54.3 35.25 61.2 28.35 66.25 31.9 64.95 35.4 66.95
M 36.75 53.6
Q 38.1 53.55 39.65 54.5 42.15 56.65 44.9 55.2 45.1 55.15 45.3 55 45.1 54.95 44.9 54.85 34.7 49.55 33 56.05 34.75 53.5 36.75 53.6 Z"/>

<path fill="#666633" stroke="none" d="
M 75.45 63.9
Q 69.1 62.35 67.7 60.5 68.9 63.45 70.45 65.65 71.8 67.4 72.05 69.3 72.55 72.8 69 81 72.05 78.6 73.05 75.15 72.65 78.5 73.45 78.8 79.05 72.95 73.65 65.3 82.25 69.2 75.65 79.35
L 77.75 77.3
Q 77.85 77.05 77.95 76.85 82.55 66.95 75.45 63.9
M 76.25 61.5
Q 77.05 60.35 75.35 59.2 70.5 58.15 68.4 54.05 67.6 52.45 67.45 50.75 67.4 50.55 67.4 50.3
L 65.7 49.25
Q 65.4 53.5 67.9 56.95 70.45 60.45 76.25 61.5
M 22.95 69.3
Q 23.2 67.4 24.5 65.65 26.1 63.45 27.3 60.5 25.9 62.35 19.5 63.9 12.45 66.95 17 76.85 17.1 77.05 17.2 77.3
L 19.3 79.35
Q 12.7 69.2 21.3 65.3 15.9 72.95 21.55 78.8 22.35 78.5 21.95 75.15 22.9 78.6 26 81 22.45 72.8 22.95 69.3
M 27.55 50.75
Q 27.35 52.45 26.55 54.05 24.45 58.15 19.65 59.2 17.9 60.4 18.75 61.5 24.55 60.45 27.05 56.95 29.55 53.5 29.3 49.25
L 27.6 50.3
Q 27.55 50.55 27.55 50.75 Z"/>

<path fill="#CD8300" stroke="none" d="
M 63.05 94.3
Q 64.8 96 65.05 98.3
L 61.65 96
Q 58.25 105.5 49.3 112.05
L 52.05 114.9
Q 52.8 115.55 53.2 114.15
L 54.75 107.85 59.65 110.6
Q 61.9 111.9 61.6 109.1
L 60.6 101.3 68.15 103.05
Q 70.5 103.75 69.6 101.6 67.7 96.3 64.15 92.4
L 63.05 94.3
M 31.9 94.3
L 30.85 92.4
Q 27.25 96.3 25.35 101.6 24.5 103.75 26.85 103.05
L 34.35 101.3 33.4 109.1
Q 33.05 111.9 35.3 110.6
L 40.25 107.85 41.8 114.15
Q 42.15 115.55 42.95 114.9
L 45.65 112.05
Q 36.75 105.5 33.3 96
L 29.95 98.3
Q 30.15 96 31.9 94.3
M 19.55 43.15
Q 19.55 42.2 18.9 41.55 18.2 40.85 17.25 40.85 16.3 40.85 15.65 41.55 14.95 42.2 14.95 43.15 14.95 44.1 15.65 44.8 16.3 45.5 17.25 45.5 18.2 45.5 18.9 44.8 19.55 44.1 19.55 43.15
M 78.75 41.8
Q 78.1 41.15 77.15 41.15 76.2 41.15 75.5 41.8 74.8 42.5 74.8 43.45 74.8 44.4 75.5 45.05 76.2 45.75 77.15 45.75 78.1 45.75 78.75 45.05 79.45 44.4 79.45 43.45 79.45 42.5 78.75 41.8
M 50.1 39.8
L 50.05 39.8
Q 48.95 39.7 47.8 39.7 47.75 39.7 47.35 39.7 47.2 39.7 47.15 39.7 46.05 39.7 44.9 39.8
L 44.85 39.8
Q 33.6 40.55 26.25 46.9
L 26.25 48.4
Q 33.25 42.9 44.85 42
L 44.9 42
Q 46.05 41.9 47.55 41.9 48.95 41.9 50.05 42
L 50.1 42
Q 61.7 42.9 68.7 48.4
L 68.7 46.9
Q 61.4 40.55 50.1 39.8 Z"/>

<path fill="#993333" stroke="none" d="
M 44.85 32.2
L 44.9 32.2
Q 46 31.4 47.15 30.9 55.1 27.3 65.5 34.6 65.4 31.8 62.7 29.55 66.65 28.8 70.95 31.25 63.1 24.55 51.65 25.6 49.5 25.8 43.6 27.55 37.75 29.25 30.15 35.1 30.2 35.05 30.25 35 34.45 28.35 42.25 25.65 30.95 24.55 23.45 31 27.75 28.55 31.7 29.3 27.75 32 25.85 42.7 29.45 39.2 32.55 38.55
L 30.75 40.9
Q 37.6 36.95 44.85 36.55
L 44.9 36.55
Q 45.6 36.5 46.25 36.5 46.7 36.5 47.15 36.5 47.2 36.5 47.25 36.5
L 47.3 36.5
Q 47.35 36.5 47.4 36.5
L 47.8 36.5
Q 47.9 36.5 47.95 36.5 49 36.5 50.05 36.55
L 50.1 36.55
Q 57.15 36.95 63.8 40.65 64 40.75 64.2 40.9
L 62.45 38.55
Q 65.4 40.15 68.35 42.55 63.1 31.6 47.15 32.15 46.1 32.2 44.9 32.3
L 44.85 32.3
Q 44.8 32.3 44.75 32.3 44.8 32.25 44.85 32.2 Z"/>
</g>
</defs>

<g transform="matrix( 1, 0, 0, 1, 0,0) ">
<use xlink:href="#Layer1_0_FILL"/>
</g>

<g transform="matrix( 1, 0, 0, 1, 0,0) ">
<use xlink:href="#Layer0_0_FILL"/>
</g>
</svg>
