
<svg xmlns="http://www.w3.org/2000/svg" version="1.1" xmlns:xlink="http://www.w3.org/1999/xlink" preserveAspectRatio="none" x="0px" y="0px" width="92px" height="140px" viewBox="0 0 92 140">
<defs>
<g id="Layer4_0_FILL">
<path fill="#336633" stroke="none" d="
M 92.8 141.25
L 92.8 -0.75 -1.2 -0.75 -1.2 141.25 92.8 141.25
M 87.55 136.4
L 4.05 136.2 4.05 4.2 87.3 4.2 87.55 136.4
M 7.2 133.9
L 84.55 134.1 84.3 6.55 7.2 6.55 7.2 133.9
M 83.3 7.55
L 83.55 133.1 8.2 132.9 8.2 7.55 83.3 7.55 Z"/>

<path fill="#FFFFFF" stroke="none" d="
M 4.05 136.2
L 87.55 136.4 87.3 4.2 4.05 4.2 4.05 136.2
M 84.55 134.1
L 7.2 133.9 7.2 6.55 84.3 6.55 84.55 134.1
M 83.55 133.1
L 83.3 7.55 8.2 7.55 8.2 132.9 83.55 133.1 Z"/>
</g>

<g id="Mask_1_MASK_0_FILL">
<path fill="#FFFFFF" stroke="none" d="
M 71.2 23.75
Q 71.2 20.75 68.2 20.75
L 23.85 20.75
Q 20.85 20.75 20.85 23.75
L 20.85 116.4
Q 20.85 119.4 23.85 119.4
L 68.2 119.4
Q 71.2 119.4 71.2 116.4
L 71.2 23.75 Z"/>
</g>

<path id="Layer3_0_1_STROKES" stroke="#336633" stroke-width="1" stroke-linejoin="miter" stroke-linecap="square" stroke-miterlimit="3" fill="none" d="
M 74.65 17.3
Q 73.5 16.15 73.5 14.45 73.5 12.75 74.65 11.55 74.75 11.45 74.9 11.35 73.8 10.4 72.25 10.4 70.7 10.4 69.55 11.4 69.65 11.45 69.75 11.55 70.95 12.75 70.95 14.45 70.95 16.15 69.75 17.3 69.65 17.4 69.55 17.5 70.7 18.5 72.25 18.5 73.8 18.5 74.9 17.55 74.75 17.4 74.65 17.3 Z
M 80.4 17.3
Q 81.6 16.15 81.6 14.45 81.6 12.75 80.4 11.55 79.25 10.4 77.55 10.4 76 10.4 74.9 11.35 75 11.45 75.1 11.55 76.3 12.75 76.3 14.45 76.3 16.15 75.1 17.3 75 17.4 74.9 17.55 76 18.5 77.55 18.5 79.25 18.5 80.4 17.3 Z
M 60.4 14.45
Q 60.4 16.15 59.2 17.3 59.1 17.4 58.95 17.55 60.1 18.5 61.6 18.5 63.15 18.5 64.25 17.55 64.1 17.4 64 17.3 62.85 16.15 62.85 14.45 62.85 12.75 64 11.55 64.1 11.45 64.25 11.35 63.15 10.4 61.6 10.4 60.1 10.4 58.95 11.35 59.1 11.45 59.2 11.55 60.4 12.75 60.4 14.45 Z
M 64.25 17.55
Q 65.35 18.5 66.9 18.5 68.45 18.5 69.55 17.5 69.45 17.4 69.35 17.3 68.2 16.15 68.2 14.45 68.2 12.75 69.35 11.55 69.45 11.45 69.55 11.4 68.45 10.4 66.9 10.4 65.35 10.4 64.25 11.35 64.35 11.45 64.45 11.55 65.65 12.75 65.65 14.45 65.65 16.15 64.45 17.3 64.35 17.4 64.25 17.55 Z
M 53.45 17.3
Q 52.3 16.15 52.3 14.45 52.3 12.75 53.45 11.55 53.55 11.45 53.7 11.35 52.6 10.4 51.05 10.4 49.55 10.4 48.4 11.35 48.55 11.45 48.65 11.55 49.85 12.75 49.85 14.45 49.85 16.15 48.65 17.3 48.55 17.4 48.4 17.55 49.55 18.5 51.05 18.5 52.6 18.5 53.7 17.55 53.55 17.4 53.45 17.3 Z
M 53.7 17.55
Q 54.8 18.5 56.35 18.5 57.85 18.5 58.95 17.55 58.8 17.4 58.7 17.3 57.55 16.15 57.55 14.45 57.55 12.75 58.7 11.55 58.8 11.45 58.95 11.35 57.85 10.4 56.35 10.4 54.8 10.4 53.7 11.35 53.8 11.45 53.9 11.55 55.1 12.75 55.1 14.45 55.1 16.15 53.9 17.3 53.8 17.4 53.7 17.55 Z
M 42.9 17.3
Q 41.75 16.15 41.75 14.45 41.75 12.75 42.9 11.55 43 11.45 43.15 11.35 42.05 10.4 40.5 10.4 39 10.4 37.85 11.35 38 11.45 38.1 11.55 39.3 12.75 39.3 14.45 39.3 16.15 38.1 17.3 38 17.4 37.85 17.55 39 18.5 40.5 18.5 42.05 18.5 43.15 17.55 43 17.4 42.9 17.3 Z
M 43.15 17.55
Q 44.25 18.5 45.8 18.5 47.3 18.5 48.4 17.55 48.25 17.4 48.15 17.3 47 16.15 47 14.45 47 12.75 48.15 11.55 48.25 11.45 48.4 11.35 47.3 10.4 45.8 10.4 44.25 10.4 43.15 11.35 43.25 11.45 43.35 11.55 44.55 12.75 44.55 14.45 44.55 16.15 43.35 17.3 43.25 17.4 43.15 17.55 Z
M 32.35 17.3
Q 31.2 16.15 31.2 14.45 31.2 12.75 32.35 11.55 32.45 11.45 32.6 11.35 31.5 10.4 29.95 10.4 28.45 10.4 27.3 11.35 27.45 11.45 27.55 11.55 28.75 12.75 28.75 14.45 28.75 16.15 27.55 17.3 27.45 17.4 27.3 17.55 28.45 18.5 29.95 18.5 31.5 18.5 32.6 17.55 32.45 17.4 32.35 17.3 Z
M 32.6 17.55
Q 33.7 18.5 35.25 18.5 36.75 18.5 37.85 17.55 37.7 17.4 37.6 17.3 36.45 16.15 36.45 14.45 36.45 12.75 37.6 11.55 37.7 11.45 37.85 11.35 36.75 10.4 35.25 10.4 33.7 10.4 32.6 11.35 32.7 11.45 32.8 11.55 34 12.75 34 14.45 34 16.15 32.8 17.3 32.7 17.4 32.6 17.55 Z
M 18.2 14.45
Q 18.2 16.15 17 17.3 16.9 17.4 16.75 17.55 17.9 18.5 19.4 18.5 20.95 18.5 22.05 17.55 21.9 17.4 21.8 17.3 20.65 16.15 20.65 14.45 20.65 12.75 21.8 11.55 21.9 11.45 22.05 11.35 20.95 10.4 19.4 10.4 17.9 10.4 16.75 11.35 16.9 11.45 17 11.55 18.2 12.75 18.2 14.45 Z
M 22.05 17.55
Q 23.15 18.5 24.7 18.5 26.2 18.5 27.3 17.55 27.15 17.4 27.05 17.3 25.9 16.15 25.9 14.45 25.9 12.75 27.05 11.55 27.15 11.45 27.3 11.35 26.2 10.4 24.7 10.4 23.15 10.4 22.05 11.35 22.15 11.45 22.25 11.55 23.45 12.75 23.45 14.45 23.45 16.15 22.25 17.3 22.15 17.4 22.05 17.55 Z
M 16.75 17.55
Q 15.65 18.5 14.15 18.5 12.45 18.5 11.25 17.3 10.1 16.15 10.1 14.45 10.1 12.75 11.25 11.55 12.45 10.4 14.15 10.4 15.65 10.4 16.75 11.35 16.6 11.45 16.5 11.55 15.35 12.75 15.35 14.45 15.35 16.15 16.5 17.3 16.6 17.4 16.75 17.55 Z
M 16.8 128.55
Q 15.7 129.5 14.15 129.5 12.45 129.5 11.3 128.35 10.1 127.15 10.1 125.45 10.1 123.75 11.3 122.6 12.45 121.4 14.15 121.4 15.7 121.4 16.8 122.35 17.9 121.4 19.45 121.4 21 121.4 22.15 122.4 23.25 121.4 24.8 121.4 26.35 121.4 27.45 122.35 28.55 121.4 30.1 121.4 31.6 121.4 32.75 122.35 33.85 121.4 35.35 121.4 36.9 121.4 38 122.35 39.1 121.4 40.65 121.4 42.15 121.4 43.3 122.35 44.4 121.4 45.9 121.4 47.45 121.4 48.55 122.35 49.65 121.4 51.2 121.4 52.7 121.4 53.85 122.35 54.95 121.4 56.45 121.4 58 121.4 59.1 122.35 60.2 121.4 61.75 121.4 63.25 121.4 64.4 122.35 65.5 121.4 67 121.4 68.55 121.4 69.65 122.35 70.75 121.4 72.3 121.4 73.8 121.4 74.95 122.35 76.05 121.4 77.55 121.4 79.25 121.4 80.45 122.6 81.6 123.75 81.6 125.45 81.6 127.15 80.45 128.35 79.25 129.5 77.55 129.5 76.05 129.5 74.95 128.55 73.8 129.5 72.3 129.5 70.75 129.5 69.65 128.55 68.55 129.5 67 129.5 65.5 129.5 64.4 128.55 63.25 129.5 61.75 129.5 60.2 129.5 59.1 128.55 58 129.5 56.45 129.5 54.95 129.5 53.85 128.55 52.7 129.5 51.2 129.5 49.65 129.5 48.55 128.55 47.45 129.5 45.9 129.5 44.4 129.5 43.3 128.55 42.15 129.5 40.65 129.5 39.1 129.5 38 128.55 36.9 129.5 35.35 129.5 33.85 129.5 32.75 128.55 31.6 129.5 30.1 129.5 28.55 129.5 27.45 128.55 26.35 129.5 24.8 129.5 23.25 129.5 22.15 128.5 21 129.5 19.45 129.5 17.9 129.5 16.8 128.55 16.7 128.45 16.6 128.35 15.4 127.15 15.4 125.45 15.4 123.75 16.6 122.6 16.7 122.5 16.8 122.35 16.95 122.5 17.05 122.6 18.2 123.75 18.2 125.45 18.2 127.15 17.05 128.35 16.95 128.45 16.8 128.55 Z
M 64.4 128.55
Q 64.25 128.45 64.15 128.35 62.95 127.15 62.95 125.45 62.95 123.75 64.15 122.6 64.25 122.5 64.4 122.35 64.55 122.5 64.65 122.6 65.8 123.75 65.8 125.45 65.8 127.15 64.65 128.35 64.55 128.45 64.4 128.55 Z
M 69.65 122.35
Q 69.8 122.5 69.9 122.6 71.05 123.75 71.05 125.45 71.05 127.15 69.9 128.35 69.8 128.45 69.65 128.55 69.55 128.45 69.45 128.35 68.25 127.15 68.25 125.45 68.25 123.75 69.45 122.6 69.55 122.5 69.65 122.35 Z
M 74.95 128.55
Q 74.8 128.45 74.7 128.35 73.5 127.15 73.5 125.45 73.5 123.75 74.7 122.6 74.8 122.5 74.95 122.35 75.1 122.5 75.2 122.6 76.35 123.75 76.35 125.45 76.35 127.15 75.2 128.35 75.1 128.45 74.95 128.55 Z
M 43.3 122.35
Q 43.45 122.5 43.55 122.6 44.7 123.75 44.7 125.45 44.7 127.15 43.55 128.35 43.45 128.45 43.3 128.55 43.15 128.45 43.05 128.35 41.85 127.15 41.85 125.45 41.85 123.75 43.05 122.6 43.15 122.5 43.3 122.35 Z
M 48.55 128.55
Q 48.45 128.45 48.35 128.35 47.15 127.15 47.15 125.45 47.15 123.75 48.35 122.6 48.45 122.5 48.55 122.35 48.7 122.5 48.8 122.6 49.95 123.75 49.95 125.45 49.95 127.15 48.8 128.35 48.7 128.45 48.55 128.55 Z
M 59.1 128.55
Q 59 128.45 58.9 128.35 57.7 127.15 57.7 125.45 57.7 123.75 58.9 122.6 59 122.5 59.1 122.35 59.25 122.5 59.35 122.6 60.5 123.75 60.5 125.45 60.5 127.15 59.35 128.35 59.25 128.45 59.1 128.55 Z
M 53.85 122.35
Q 54 122.5 54.1 122.6 55.25 123.75 55.25 125.45 55.25 127.15 54.1 128.35 54 128.45 53.85 128.55 53.7 128.45 53.6 128.35 52.4 127.15 52.4 125.45 52.4 123.75 53.6 122.6 53.7 122.5 53.85 122.35 Z
M 22.15 128.5
Q 22.05 128.45 21.95 128.35 20.75 127.15 20.75 125.45 20.75 123.75 21.95 122.6 22.05 122.5 22.15 122.4 22.25 122.5 22.35 122.6 23.5 123.75 23.5 125.45 23.5 127.15 22.35 128.35 22.25 128.45 22.15 128.5 Z
M 27.45 122.35
Q 27.6 122.5 27.7 122.6 28.85 123.75 28.85 125.45 28.85 127.15 27.7 128.35 27.6 128.45 27.45 128.55 27.35 128.45 27.25 128.35 26.05 127.15 26.05 125.45 26.05 123.75 27.25 122.6 27.35 122.5 27.45 122.35 Z
M 38 128.55
Q 37.9 128.45 37.8 128.35 36.6 127.15 36.6 125.45 36.6 123.75 37.8 122.6 37.9 122.5 38 122.35 38.15 122.5 38.25 122.6 39.4 123.75 39.4 125.45 39.4 127.15 38.25 128.35 38.15 128.45 38 128.55 Z
M 32.75 122.35
Q 32.9 122.5 33 122.6 34.15 123.75 34.15 125.45 34.15 127.15 33 128.35 32.9 128.45 32.75 128.55 32.6 128.45 32.5 128.35 31.3 127.15 31.3 125.45 31.3 123.75 32.5 122.6 32.6 122.5 32.75 122.35 Z"/>

<path id="Layer2_0_1_STROKES" stroke="#336633" stroke-width="1" stroke-linejoin="miter" stroke-linecap="square" stroke-miterlimit="3" fill="none" d="
M 80.65 122.8
Q 81.6 123.9 81.6 125.45 81.6 127.15 80.45 128.3 79.25 129.5 77.55 129.5 75.85 129.5 74.7 128.3 73.5 127.15 73.5 125.45 73.5 123.9 74.45 122.8 73.5 121.7 73.5 120.15 73.5 118.6 74.5 117.45 73.5 116.35 73.5 114.8 73.5 113.25 74.45 112.15 73.5 111.05 73.5 109.5 73.5 108 74.45 106.85 73.5 105.75 73.5 104.25 73.5 102.7 74.45 101.6 73.5 100.5 73.5 98.95 73.5 97.45 74.45 96.3 73.5 95.2 73.5 93.7 73.5 92.15 74.45 91.05 73.5 89.95 73.5 88.4 73.5 86.9 74.45 85.75 73.5 84.65 73.5 83.15 73.5 81.6 74.45 80.5 73.5 79.4 73.5 77.85 73.5 76.35 74.45 75.2 73.5 74.1 73.5 72.6 73.5 71.05 74.45 69.95 73.5 68.85 73.5 67.3 73.5 65.8 74.45 64.65 73.5 63.55 73.5 62.05 73.5 62 73.5 61.95 73.55 60.45 74.45 59.4 73.5 58.3 73.5 56.75 73.5 55.2 74.5 54.05 73.5 52.95 73.5 51.4 73.5 49.85 74.45 48.75 73.5 47.65 73.5 46.1 73.5 44.6 74.45 43.45 73.5 42.35 73.5 40.85 73.5 39.3 74.45 38.2 73.5 37.1 73.5 35.55 73.5 34.05 74.45 32.9 73.5 31.8 73.5 30.3 73.5 28.75 74.45 27.65 73.5 26.55 73.5 25 73.5 23.5 74.45 22.35 73.5 21.25 73.5 19.75 73.5 18.2 74.45 17.1 73.5 16 73.5 14.45 73.5 12.95 74.45 11.8 74.6 11.65 74.7 11.55 75.85 10.4 77.55 10.4 79.25 10.4 80.45 11.55 80.55 11.65 80.65 11.8 81.6 12.95 81.6 14.45 81.6 16 80.65 17.1 81.6 18.2 81.6 19.75 81.6 21.25 80.65 22.35 81.6 23.5 81.6 25 81.6 26.55 80.65 27.65 81.6 28.75 81.6 30.3 81.6 31.8 80.65 32.9 81.6 34.05 81.6 35.55 81.6 37.1 80.65 38.2 81.6 39.3 81.6 40.85 81.6 42.35 80.65 43.45 81.6 44.6 81.6 46.1 81.6 47.65 80.65 48.75 81.6 49.85 81.6 51.4 81.6 52.95 80.6 54.05 81.6 55.2 81.6 56.75 81.6 58.3 80.65 59.35 80.7814453125 59.525390625 80.925 59.7
L 80.95 59.75 81.1 60 81.5 61.2
Q 81.6 61.6 81.6 62.05
L 81.45 63.1
Q 81.25 63.95 80.65 64.65 81.6 65.8 81.6 67.3 81.6 68.85 80.65 69.95 81.6 71.05 81.6 72.6 81.6 74.1 80.65 75.2 81.6 76.35 81.6 77.85 81.6 79.4 80.65 80.5 81.6 81.6 81.6 83.15 81.6 84.65 80.65 85.75 81.6 86.9 81.6 88.4 81.6 89.95 80.65 91.05 81.6 92.15 81.6 93.7 81.6 95.2 80.65 96.3 81.6 97.45 81.6 98.95 81.6 100.5 80.65 101.6 81.6 102.7 81.6 104.25 81.6 105.75 80.65 106.85 81.6 108 81.6 109.5 81.6 111.05 80.65 112.15 81.6 113.25 81.6 114.8 81.6 116.35 80.6 117.45 81.6 118.6 81.6 120.15 81.6 121.7 80.65 122.8 80.55 122.65 80.45 122.55 79.25 121.4 77.55 121.4 75.85 121.4 74.7 122.55 74.6 122.65 74.45 122.8 74.6 122.9 74.7 123 75.85 124.2 77.55 124.2 79.25 124.2 80.45 123 80.55 122.9 80.65 122.8 Z
M 80.65 17.1
Q 80.55 17.2 80.45 17.3 79.25 18.5 77.55 18.5 75.85 18.5 74.7 17.3 74.6 17.2 74.45 17.1 74.6 16.95 74.7 16.85 75.85 15.7 77.55 15.7 79.25 15.7 80.45 16.85 80.55 16.95 80.65 17.1 Z
M 80.65 22.35
Q 80.55 22.5 80.45 22.6 79.25 23.8 77.55 23.8 75.85 23.8 74.7 22.6 74.6 22.5 74.45 22.35 74.6 22.2 74.7 22.1 75.85 20.95 77.55 20.95 79.25 20.95 80.45 22.1 80.55 22.2 80.65 22.35 Z
M 80.65 27.65
Q 80.55 27.75 80.45 27.85 79.25 29.05 77.55 29.05 75.85 29.05 74.7 27.85 74.6 27.75 74.45 27.65 74.6 27.5 74.7 27.4 75.85 26.25 77.55 26.25 79.25 26.25 80.45 27.4 80.55 27.5 80.65 27.65 Z
M 74.45 32.9
Q 74.6 32.75 74.7 32.65 75.85 31.5 77.55 31.5 79.25 31.5 80.45 32.65 80.55 32.75 80.65 32.9 80.55 33.05 80.45 33.15 79.25 34.35 77.55 34.35 75.85 34.35 74.7 33.15 74.6 33.05 74.45 32.9 Z
M 80.65 38.2
Q 80.55 38.3 80.45 38.4 79.25 39.6 77.55 39.6 75.85 39.6 74.7 38.4 74.6 38.3 74.45 38.2 74.6 38.05 74.7 37.95 75.85 36.8 77.55 36.8 79.25 36.8 80.45 37.95 80.55 38.05 80.65 38.2 Z
M 74.45 43.45
Q 74.6 43.3 74.7 43.2 75.85 42.05 77.55 42.05 79.25 42.05 80.45 43.2 80.55 43.3 80.65 43.45 80.55 43.6 80.45 43.7 79.25 44.9 77.55 44.9 75.85 44.9 74.7 43.7 74.6 43.6 74.45 43.45 Z
M 74.45 48.75
Q 74.6 48.6 74.7 48.5 75.85 47.35 77.55 47.35 79.25 47.35 80.45 48.5 80.55 48.6 80.65 48.75 80.55 48.85 80.45 48.95 79.25 50.15 77.55 50.15 75.85 50.15 74.7 48.95 74.6 48.85 74.45 48.75 Z
M 11.05 27.75
Q 10.1 26.65 10.1 25.1 10.1 23.55 11.1 22.45 10.1 21.3 10.1 19.75 10.1 18.2 11.05 17.1 10.1 16 10.1 14.45 10.1 12.75 11.25 11.6 12.45 10.4 14.15 10.4 15.85 10.4 17 11.6 18.2 12.75 18.2 14.45 18.2 16 17.25 17.1 18.2 18.2 18.2 19.75 18.2 21.3 17.2 22.45 18.2 23.55 18.2 25.1 18.2 26.65 17.25 27.75 18.2 28.85 18.2 30.4 18.2 31.9 17.25 33.05 18.2 34.15 18.2 35.65 18.2 37.2 17.25 38.3 18.2 39.4 18.2 40.95 18.2 42.45 17.25 43.6 18.2 44.7 18.2 46.2 18.2 47.75 17.25 48.85 18.2 49.95 18.2 51.5 18.2 53 17.25 54.15 18.2 55.25 18.2 56.75 18.2 58.3 17.25 59.4 18.2 60.5 18.2 62.05 18.2 63.55 17.25 64.7 18.2 65.8 18.2 67.3 18.2 68.85 17.25 69.95 18.2 71.05 18.2 72.6 18.2 74.1 17.25 75.25 18.2 76.35 18.2 77.85 18.2 77.9 18.2 77.95 18.15 79.45 17.25 80.5 18.2 81.6 18.2 83.15 18.2 84.7 17.2 85.85 18.2 86.95 18.2 88.5 18.2 90.05 17.25 91.15 18.2 92.25 18.2 93.8 18.2 95.3 17.25 96.45 18.2 97.55 18.2 99.05 18.2 100.6 17.25 101.7 18.2 102.8 18.2 104.35 18.2 105.85 17.25 107 18.2 108.1 18.2 109.6 18.2 111.15 17.25 112.25 18.2 113.35 18.2 114.9 18.2 116.4 17.25 117.55 18.2 118.65 18.2 120.15 18.2 121.7 17.25 122.8 18.2 123.9 18.2 125.45 18.2 126.95 17.25 128.1 17.1 128.25 17 128.35 15.85 129.5 14.15 129.5 12.45 129.5 11.25 128.35 11.15 128.25 11.05 128.1 10.1 126.95 10.1 125.45 10.1 123.9 11.05 122.8 10.1 121.7 10.1 120.15 10.1 118.65 11.05 117.55 10.1 116.4 10.1 114.9 10.1 113.35 11.05 112.25 10.1 111.15 10.1 109.6 10.1 108.1 11.05 107 10.1 105.85 10.1 104.35 10.1 102.8 11.05 101.7 10.1 100.6 10.1 99.05 10.1 97.55 11.05 96.45 10.1 95.3 10.1 93.8 10.1 92.25 11.05 91.15 10.1 90.05 10.1 88.5 10.1 86.95 11.1 85.85 10.1 84.7 10.1 83.15 10.1 81.6 11.05 80.55 10.86171875 80.286328125 10.7 80.05
L 10.6 79.9 10.2 78.7
Q 10.1 78.3 10.1 77.85
L 10.25 76.8
Q 10.45 75.9 11.05 75.25 10.1 74.1 10.1 72.6 10.1 71.05 11.05 69.95 10.1 68.85 10.1 67.3 10.1 65.8 11.05 64.7 10.1 63.55 10.1 62.05 10.1 60.5 11.05 59.4 10.1 58.3 10.1 56.75 10.1 55.25 11.05 54.15 10.1 53 10.1 51.5 10.1 49.95 11.05 48.85 10.1 47.75 10.1 46.2 10.1 44.7 11.05 43.6 10.1 42.45 10.1 40.95 10.1 39.4 11.05 38.3 10.1 37.2 10.1 35.65 10.1 34.15 11.05 33.05 10.1 31.9 10.1 30.4 10.1 28.85 11.05 27.75 11.15 27.65 11.25 27.55 12.45 26.35 14.15 26.35 15.85 26.35 17 27.55 17.1 27.65 17.25 27.75 17.1 27.9 17 28 15.85 29.15 14.15 29.15 12.45 29.15 11.25 28 11.15 27.9 11.05 27.75 Z
M 17.25 17.1
Q 17.1 17.25 17 17.35 15.85 18.5 14.15 18.5 12.45 18.5 11.25 17.35 11.15 17.25 11.05 17.1 11.15 17 11.25 16.9 12.45 15.7 14.15 15.7 15.85 15.7 17 16.9 17.1 17 17.25 17.1 Z
M 17.2 22.45
Q 17.1 22.55 17 22.65 15.85 23.8 14.15 23.8 12.45 23.8 11.25 22.65 11.15 22.55 11.1 22.45 11.15 22.35 11.25 22.25 12.45 21.05 14.15 21.05 15.85 21.05 17 22.25 17.1 22.35 17.2 22.45 Z
M 11.05 33.05
Q 11.15 32.9 11.25 32.8 12.45 31.6 14.15 31.6 15.85 31.6 17 32.8 17.1 32.9 17.25 33.05 17.1 33.2 17 33.3 15.85 34.45 14.15 34.45 12.45 34.45 11.25 33.3 11.15 33.2 11.05 33.05 Z
M 11.05 38.3
Q 11.15 38.2 11.25 38.1 12.45 36.9 14.15 36.9 15.85 36.9 17 38.1 17.1 38.2 17.25 38.3 17.1 38.45 17 38.55 15.85 39.7 14.15 39.7 12.45 39.7 11.25 38.55 11.15 38.45 11.05 38.3 Z
M 17.25 43.6
Q 17.1 43.75 17 43.85 15.85 45 14.15 45 12.45 45 11.25 43.85 11.15 43.75 11.05 43.6 11.15 43.45 11.25 43.35 12.45 42.15 14.15 42.15 15.85 42.15 17 43.35 17.1 43.45 17.25 43.6 Z
M 11.05 48.85
Q 11.15 48.75 11.25 48.65 12.45 47.45 14.15 47.45 15.85 47.45 17 48.65 17.1 48.75 17.25 48.85 17.1 49 17 49.1 15.85 50.25 14.15 50.25 12.45 50.25 11.25 49.1 11.15 49 11.05 48.85 Z
M 11.05 54.15
Q 11.15 54 11.25 53.9 12.45 52.7 14.15 52.7 15.85 52.7 17 53.9 17.1 54 17.25 54.15 17.1 54.3 17 54.4 15.85 55.55 14.15 55.55 12.45 55.55 11.25 54.4 11.15 54.3 11.05 54.15 Z
M 11.05 59.4
Q 11.15 59.3 11.25 59.2 12.45 58 14.15 58 15.85 58 17 59.2 17.1 59.3 17.25 59.4 17.1 59.55 17 59.65 15.85 60.8 14.15 60.8 12.45 60.8 11.25 59.65 11.15 59.55 11.05 59.4 Z
M 11.05 64.7
Q 11.15 64.55 11.25 64.45 12.45 63.25 14.15 63.25 15.85 63.25 17 64.45 17.1 64.55 17.25 64.7 17.1 64.85 17 64.95 15.85 66.1 14.15 66.1 12.45 66.1 11.25 64.95 11.15 64.85 11.05 64.7 Z
M 11.05 69.95
Q 11.15 69.85 11.25 69.75 12.45 68.55 14.15 68.55 15.85 68.55 17 69.75 17.1 69.85 17.25 69.95 17.1 70.1 17 70.2 15.85 71.35 14.15 71.35 12.45 71.35 11.25 70.2 11.15 70.1 11.05 69.95 Z
M 17.25 75.25
Q 17.1 75.4 17 75.5 15.85 76.65 14.15 76.65 12.45 76.65 11.25 75.5 11.15 75.4 11.05 75.25 11.15 75.1 11.25 75.05
L 11.25 75
Q 12.45 73.8 14.15 73.8 15.85 73.8 17 75 17.1 75.1 17.25 75.25 Z
M 10.7 80.05
Q 10.8625 80.275 11.05 80.5 11.15 80.4 11.25 80.3 12.45 79.1 14.15 79.1 15.85 79.1 17 80.3 17.1 80.4 17.25 80.5 17.15 80.6 17 80.75 15.85 81.9 14.15 81.9 12.45 81.9 11.25 80.75
L 11.2 80.7
Q 11.1 80.6 11.05 80.55
L 11.05 80.5
Q 11.15 80.6 11.2 80.7
M 11.1 85.85
Q 11.15 85.75 11.25 85.65 12.45 84.45 14.15 84.45 15.85 84.45 17 85.65 17.1 85.75 17.2 85.85 17.1 85.95 17 86.05 15.85 87.2 14.15 87.2 12.45 87.2 11.25 86.05 11.15 85.95 11.1 85.85 Z
M 17.25 91.15
Q 17.1 91.3 17 91.4 15.85 92.55 14.15 92.55 12.45 92.55 11.25 91.4 11.15 91.3 11.05 91.15 11.15 91.05 11.25 90.95 12.45 89.75 14.15 89.75 15.85 89.75 17 90.95 17.1 91.05 17.25 91.15 Z
M 17.25 96.45
Q 17.1 96.6 17 96.7 15.85 97.85 14.15 97.85 12.45 97.85 11.25 96.7 11.15 96.6 11.05 96.45 11.15 96.3 11.25 96.2 12.45 95 14.15 95 15.85 95 17 96.2 17.1 96.3 17.25 96.45 Z
M 80.6 54.05
Q 80.55 54.15 80.45 54.25 79.25 55.45 77.55 55.45 75.85 55.45 74.7 54.25 74.6 54.15 74.5 54.05 74.6 53.95 74.7 53.85 75.85 52.7 77.55 52.7 79.25 52.7 80.45 53.85 80.55 53.95 80.6 54.05 Z
M 80.925 59.7
Q 80.78125 59.53125 80.65 59.4 80.55 59.5 80.45 59.6 79.25 60.8 77.55 60.8 75.85 60.8 74.7 59.6 74.6 59.5 74.45 59.4 74.55 59.3 74.7 59.15 75.85 58 77.55 58 79.25 58 80.45 59.15
L 80.5 59.2
Q 80.6 59.3 80.65 59.35
L 80.65 59.4
Q 80.55 59.3 80.5 59.2
M 80.65 64.65
Q 80.55 64.8 80.45 64.85
L 80.45 64.9
Q 79.25 66.1 77.55 66.1 75.85 66.1 74.7 64.9 74.6 64.8 74.45 64.65 74.6 64.5 74.7 64.4 75.85 63.25 77.55 63.25 79.25 63.25 80.45 64.4 80.55 64.5 80.65 64.65 Z
M 74.45 69.95
Q 74.6 69.8 74.7 69.7 75.85 68.55 77.55 68.55 79.25 68.55 80.45 69.7 80.55 69.8 80.65 69.95 80.55 70.05 80.45 70.15 79.25 71.35 77.55 71.35 75.85 71.35 74.7 70.15 74.6 70.05 74.45 69.95 Z
M 80.65 75.2
Q 80.55 75.35 80.45 75.45 79.25 76.65 77.55 76.65 75.85 76.65 74.7 75.45 74.6 75.35 74.45 75.2 74.6 75.05 74.7 74.95 75.85 73.8 77.55 73.8 79.25 73.8 80.45 74.95 80.55 75.05 80.65 75.2 Z
M 74.45 80.5
Q 74.6 80.35 74.7 80.25 75.85 79.1 77.55 79.1 79.25 79.1 80.45 80.25 80.55 80.35 80.65 80.5 80.55 80.6 80.45 80.7 79.25 81.9 77.55 81.9 75.85 81.9 74.7 80.7 74.6 80.6 74.45 80.5 Z
M 80.65 85.75
Q 80.55 85.9 80.45 86 79.25 87.2 77.55 87.2 75.85 87.2 74.7 86 74.6 85.9 74.45 85.75 74.6 85.6 74.7 85.5 75.85 84.35 77.55 84.35 79.25 84.35 80.45 85.5 80.55 85.6 80.65 85.75 Z
M 80.65 91.05
Q 80.55 91.15 80.45 91.25 79.25 92.45 77.55 92.45 75.85 92.45 74.7 91.25 74.6 91.15 74.45 91.05 74.6 90.9 74.7 90.8 75.85 89.65 77.55 89.65 79.25 89.65 80.45 90.8 80.55 90.9 80.65 91.05 Z
M 80.65 96.3
Q 80.55 96.45 80.45 96.55 79.25 97.75 77.55 97.75 75.85 97.75 74.7 96.55 74.6 96.45 74.45 96.3 74.6 96.15 74.7 96.05 75.85 94.9 77.55 94.9 79.25 94.9 80.45 96.05 80.55 96.15 80.65 96.3 Z
M 80.65 101.6
Q 80.55 101.7 80.45 101.8 79.25 103 77.55 103 75.85 103 74.7 101.8 74.6 101.7 74.45 101.6 74.6 101.45 74.7 101.35 75.85 100.2 77.55 100.2 79.25 100.2 80.45 101.35 80.55 101.45 80.65 101.6 Z
M 74.45 106.85
Q 74.6 106.7 74.7 106.6 75.85 105.45 77.55 105.45 79.25 105.45 80.45 106.6 80.55 106.7 80.65 106.85 80.55 107 80.45 107.1 79.25 108.3 77.55 108.3 75.85 108.3 74.7 107.1 74.6 107 74.45 106.85 Z
M 80.65 112.15
Q 80.55 112.25 80.45 112.35 79.25 113.55 77.55 113.55 75.85 113.55 74.7 112.35 74.6 112.25 74.45 112.15 74.6 112 74.7 111.9 75.85 110.75 77.55 110.75 79.25 110.75 80.45 111.9 80.55 112 80.65 112.15 Z
M 74.5 117.45
Q 74.6 117.35 74.7 117.25 75.85 116.1 77.55 116.1 79.25 116.1 80.45 117.25 80.55 117.35 80.6 117.45 80.55 117.55 80.45 117.65 79.25 118.85 77.55 118.85 75.85 118.85 74.7 117.65 74.6 117.55 74.5 117.45 Z
M 11.05 101.7
Q 11.15 101.6 11.25 101.5 12.45 100.3 14.15 100.3 15.85 100.3 17 101.5 17.1 101.6 17.25 101.7 17.1 101.85 17 101.95 15.85 103.1 14.15 103.1 12.45 103.1 11.25 101.95 11.15 101.85 11.05 101.7 Z
M 11.05 107
Q 11.15 106.85 11.25 106.75 12.45 105.55 14.15 105.55 15.85 105.55 17 106.75 17.1 106.85 17.25 107 17.1 107.15 17 107.25 15.85 108.4 14.15 108.4 12.45 108.4 11.25 107.25 11.15 107.15 11.05 107 Z
M 11.05 112.25
Q 11.15 112.15 11.25 112.05 12.45 110.85 14.15 110.85 15.85 110.85 17 112.05 17.1 112.15 17.25 112.25 17.1 112.4 17 112.5 15.85 113.65 14.15 113.65 12.45 113.65 11.25 112.5 11.15 112.4 11.05 112.25 Z
M 11.05 117.55
Q 11.15 117.4 11.25 117.3 12.45 116.1 14.15 116.1 15.85 116.1 17 117.3 17.1 117.4 17.25 117.55 17.1 117.7 17 117.8 15.85 118.95 14.15 118.95 12.45 118.95 11.25 117.8 11.15 117.7 11.05 117.55 Z
M 11.05 122.8
Q 11.15 122.7 11.25 122.6 12.45 121.4 14.15 121.4 15.85 121.4 17 122.6 17.1 122.7 17.25 122.8 17.1 122.95 17 123.05 15.85 124.2 14.15 124.2 12.45 124.2 11.25 123.05 11.15 122.95 11.05 122.8 Z"/>

<path id="Layer1_0_1_STROKES" stroke="#336633" stroke-width="1.5" stroke-linejoin="miter" stroke-linecap="square" stroke-miterlimit="3" fill="none" d="
M 41.5 -2.6
L 44.5 0.45 47.55 -2.6 44.55 -5.65 41.5 -2.6 39.7 -4.4
M 49.45 -4.5
L 47.55 -2.6 50.6 0.4 52.5 -1.5
M 42.75 -7.45
L 44.55 -5.65 46.45 -7.55
M 89 35
L 87.1 36.9 90.15 39.95 92.05 38.05
M 82.9 28.9
L 81 30.8 84.05 33.85 85.95 31.95
M 84.05 39.95
L 87.1 36.9 84.05 33.85 81 36.9 84.05 39.95 87.1 43 90.15 39.95 93.2 43 95.1 41.1
M 84.05 39.95
L 81 43 84.05 46.05 87.1 43 90.15 46.05 93.2 43 96.2 46.05 98.1 44.15
M 84.1 52.1
L 87.1 49.1 84.05 46.05 81.05 49.05 84.1 52.1 87.1 55.15 90.1 52.15 87.1 49.1 90.15 46.05 93.15 49.1 96.2 46.05 99.25 49.05 101.15 47.15
M 113.35 59.35
L 111.45 61.25 114.45 64.25 116.35 62.35
M 102.3 58.2
L 105.35 61.25 108.4 58.2 105.35 55.15 102.3 58.2 99.25 55.15 96.2 58.2 99.25 61.25 102.3 58.2 Z
M 110.3 56.3
L 108.4 58.2 111.45 61.25 108.4 64.3 111.4 67.3 114.45 64.25 117.5 67.3 119.4 65.4
M 105.35 55.15
L 102.3 52.1 99.25 55.15 96.2 52.1 93.15 55.15 96.2 58.2 93.2 61.2 96.25 64.25 99.25 61.25 102.3 64.3 105.35 61.25 108.4 64.3 105.35 67.35 108.35 70.35 111.4 67.3 114.45 70.35 117.5 67.3 119.65 69.45
M 107.25 53.25
L 105.35 55.15
M 104.2 50.2
L 102.3 52.1 99.25 49.05 96.2 52.1 93.15 49.1 90.1 52.15 93.15 55.15 90.15 58.15 93.2 61.2 90.15 64.25 93.2 67.3 96.25 64.25 99.3 67.3 102.3 64.3 105.35 67.35 102.35 70.35 105.35 73.35 108.35 70.35 111.4 73.4 114.45 70.35 116.6 72.5
M 84.1 52.1
L 81.05 55.15 84.05 58.2 87.1 55.15 90.15 58.15 87.1 61.2 90.15 64.25 87.1 67.3 90.15 70.35 93.2 67.3 96.25 70.35 99.3 67.3 102.35 70.35 99.3 73.4 102.3 76.4 105.35 73.35 108.4 76.4 111.4 73.4 113.55 75.55
M 84.05 64.25
L 87.1 61.2 84.05 58.2 81 61.25 84.05 64.25 87.1 67.3 84.05 70.35 87.1 73.4 90.15 70.35 93.2 73.4 96.25 70.35 99.3 73.4 96.25 76.45 99.25 79.45 102.3 76.4 105.35 79.45 108.4 76.4 110.55 78.55
M 84.05 64.25
L 81 67.3 84.05 70.35 81 73.4 84.05 76.45 87.1 73.4 90.15 76.45 93.2 73.4 96.25 76.45 93.2 79.5 96.2 82.5 99.25 79.45 102.3 82.5 105.35 79.45 107.5 81.6
M 93.15 85.55
L 96.2 88.6 99.25 85.55 96.2 82.5 93.15 85.55 90.15 82.55 87.15 85.55 90.15 88.55 93.15 85.55 Z
M 90.15 82.55
L 93.2 79.5 90.15 76.45 87.1 79.5 90.15 82.55 Z
M 84.1 82.5
L 87.1 79.5 84.05 76.45 81.05 79.45 84.1 82.5 87.15 85.55 84.1 88.6 87.1 91.6 90.15 88.55 93.2 91.6 96.2 88.6 98.35 90.75
M 84.1 82.5
L 81.05 85.55 84.1 88.6 81.05 91.65 84.05 94.65 87.1 91.6 90.15 94.65 93.2 91.6 95.35 93.75
M 84.05 100.75
L 87.1 97.7 84.05 94.65 81 97.7 84.05 100.75 86.2 102.9
M 92.3 96.8
L 90.15 94.65 87.1 97.7 89.25 99.85
M 104.45 84.65
L 102.3 82.5 99.25 85.55 101.4 87.7
M 65.8 15.6
L 62.8 12.6 59.75 15.65 62.75 18.65 65.8 15.6 67.7 13.7
M 65.8 21.7
L 62.75 18.65 59.7 21.7 62.75 24.75 65.8 21.7 68.85 18.65 65.8 15.6
M 70.75 16.75
L 68.85 18.65 71.9 21.7 73.8 19.8
M 64.7 10.7
L 62.8 12.6 59.75 9.55 56.7 12.6 59.75 15.65 56.7 18.7 59.7 21.7 56.7 24.7 59.75 27.75 62.75 24.75 65.8 27.8 68.85 24.75 65.8 21.7
M 55.55 1.55
L 53.65 3.45 56.7 6.5 58.6 4.6
M 59.75 9.55
L 56.7 6.5 53.65 9.55 56.7 12.6 53.65 15.65 56.7 18.7 53.7 21.7 56.7 24.7 53.65 27.75 56.7 30.8 59.75 27.75 62.8 30.8 65.8 27.8 68.85 30.85 71.9 27.8 68.85 24.75 71.9 21.7 74.95 24.75 76.85 22.85
M 53.65 3.45
L 50.6 0.4 47.55 3.45 50.6 6.5 53.65 3.45 Z
M 44.5 0.45
L 41.45 3.5 44.5 6.5 47.55 3.45 44.5 0.45 Z
M 41.5 9.5
L 44.55 12.55 47.55 9.55 44.5 6.5 41.5 9.5 38.45 6.5 35.4 9.55 38.45 12.55 41.5 9.5 Z
M 50.6 6.5
L 47.55 9.55 50.6 12.6 53.65 9.55 50.6 6.5 Z
M 41.5 21.7
L 44.55 24.75 47.6 21.7 44.55 18.65 41.5 21.7 38.45 18.65 35.4 21.7 38.45 24.75 41.5 21.7 Z
M 44.55 18.65
L 41.5 15.6 38.45 18.65 35.4 15.6 32.35 18.65 35.4 21.7 32.35 24.75 35.4 27.8 38.45 24.75 41.5 27.8 44.55 24.75 47.6 27.8 50.65 24.75 47.6 21.7 50.65 18.65 47.6 15.6 44.55 18.65 Z
M 47.6 15.6
L 44.55 12.55 41.5 15.6 38.45 12.55 35.4 15.6 32.35 12.6 29.3 15.65 32.35 18.65 29.3 21.7 32.35 24.75 29.35 27.75 32.4 30.8 35.4 27.8 38.45 30.85 41.5 27.8 44.55 30.85 47.6 27.8 50.6 30.8 53.65 27.75 50.65 24.75 53.7 21.7 50.65 18.65 53.65 15.65 50.6 12.6 47.6 15.6 Z
M 56.7 30.8
L 53.65 33.85 56.7 36.9 59.75 33.85 56.7 30.8 Z
M 41.5 39.9
L 44.5 36.9 41.5 33.9 38.5 36.9 41.5 39.9 44.55 42.95 47.55 39.95 44.5 36.9 47.55 33.85 44.55 30.85 41.5 33.9 38.45 30.85 35.45 33.85 38.5 36.9 35.45 39.95 38.45 42.95 41.5 39.9 Z
M 47.55 39.95
L 50.6 36.9 47.55 33.85 50.6 30.8 53.65 33.85 50.6 36.9 53.65 39.95 56.7 36.9 59.75 39.95 62.8 36.9 59.75 33.85 62.8 30.8 65.85 33.85 68.85 30.85 71.9 33.9 74.95 30.85 71.9 27.8 74.95 24.75 78 27.8 79.9 25.9
M 41.5 46
L 44.55 49.05 47.6 46 44.55 42.95 41.5 46 38.45 42.95 35.4 46 38.45 49.05 41.5 46 Z
M 47.6 46
L 50.6 43 47.55 39.95
M 53.65 46.05
L 56.7 43 53.65 39.95 50.6 43 53.65 46.05 56.7 49.1 59.75 46.05 56.7 43 59.75 39.95 62.8 43 65.85 39.95 62.8 36.9 65.85 33.85 68.9 36.9 71.9 33.9 74.9 36.9 77.95 33.85 74.95 30.85 78 27.8 81 30.8 77.95 33.85 81 36.9 77.95 39.95 81 43 78 46 81.05 49.05 78 52.1 81.05 55.15 78 58.2 81 61.25 77.95 64.3 81 67.3 77.95 70.35 81 73.4 78 76.4 81.05 79.45 78 82.5 81.05 85.55 78 88.6 81.05 91.65 78 94.7 81 97.7 77.95 100.75 81 103.8 84.05 100.75
M 53.65 46.05
L 50.65 49.05 53.7 52.1 56.7 49.1 59.7 52.1 62.75 49.05 59.75 46.05 62.8 43 65.8 46 68.85 42.95 65.85 39.95 68.9 36.9 71.9 39.9 74.9 36.9 77.95 39.95 74.95 42.95 78 46 74.95 49.05 78 52.1 74.95 55.15 78 58.2 74.95 61.25 77.95 64.3 74.9 67.35 77.95 70.35 74.95 73.35 78 76.4 74.95 79.45 78 82.5 74.95 85.55 78 88.6 74.95 91.65 78 94.7 74.95 97.75 77.95 100.75 74.95 103.75 78 106.8 81 103.8 83.15 105.95
M 44.55 49.05
L 47.6 52.1 50.65 49.05 47.6 46
M 62.75 49.05
L 65.8 52.1 68.85 49.05 65.8 46 62.75 49.05 Z
M 71.9 46
L 74.95 42.95 71.9 39.9 68.85 42.95 71.9 46 74.95 49.05 71.9 52.1 74.95 55.15 71.9 58.2 74.95 61.25 71.9 64.3 74.9 67.35 71.9 70.35 74.95 73.35 71.9 76.4 74.95 79.45 71.9 82.5 74.95 85.55 71.9 88.6 74.95 91.65 71.9 94.7 74.95 97.75 71.95 100.75 74.95 103.75 71.9 106.8 74.95 109.85 78 106.8 80.15 108.95
M 71.9 46
L 68.85 49.05 71.9 52.1 68.85 55.15 71.9 58.2 68.85 61.25 71.9 64.3 68.9 67.3 71.9 70.35 68.85 73.4 71.9 76.4 68.85 79.45 71.9 82.5 68.85 85.55 71.9 88.6 68.85 91.65 71.9 94.7 68.9 97.7 71.95 100.75 68.9 103.8 71.9 106.8 68.85 109.85 71.9 112.9 74.95 109.85 77.1 112
M 61.65 7.65
L 59.75 9.55
M 41.45 3.5
L 38.45 0.45 35.45 3.45 38.45 6.5 41.45 3.5 Z
M 35.45 3.45
L 32.4 6.5 35.4 9.55 32.35 12.6 29.35 9.55 26.3 12.6 29.3 15.65 26.25 18.7 29.3 21.7 26.3 24.7 29.35 27.75 26.3 30.8 29.35 33.85 32.4 30.8 35.45 33.85 32.4 36.9 35.45 39.95 32.4 43 35.4 46 32.35 49.05 35.4 52.1 38.45 49.05 41.5 52.1 44.55 49.05
M 27.55 7.75
L 29.35 9.55 32.4 6.5 30.6 4.7
M 35.45 3.45
L 33.65 1.65
M 18.45 16.85
L 20.25 18.65 23.25 15.65 21.45 13.85
M 20.25 18.65
L 17.2 21.7 20.2 24.75 23.25 21.7 20.25 18.65 Z
M 26.25 18.7
L 23.25 21.7 26.3 24.7 23.25 27.75 26.3 30.8 23.25 33.85 26.3 36.9 29.35 33.85 32.4 36.9 29.35 39.95 32.4 43 29.35 46.05 32.35 49.05 29.3 52.1 32.35 55.15 35.4 52.1 38.45 55.15 41.5 52.1 44.55 55.15 47.6 52.1 50.65 55.15 53.7 52.1 56.7 55.1 59.7 52.1 62.75 55.15 65.8 52.1 68.85 55.15 65.8 58.2 68.85 61.25 65.85 64.25 68.9 67.3 65.85 70.35 68.85 73.4 65.8 76.45 68.85 79.45 65.8 82.5 68.85 85.55 65.8 88.6 68.85 91.65 65.85 94.65 68.9 97.7 65.85 100.75 68.9 103.8 65.85 106.85 68.85 109.85 65.8 112.9 68.85 115.95 71.9 112.9 74.05 115.05
M 26.3 12.6
L 23.25 15.65 26.25 18.7
M 26.3 12.6
L 24.5 10.8
M 12.35 22.95
L 14.15 24.75 17.2 21.7 15.4 19.9
M 17.15 33.85
L 20.2 30.8 17.15 27.8 14.1 30.85 17.15 33.85 20.2 36.9 23.25 33.85 20.2 30.8 23.25 27.75 20.2 24.75 17.15 27.8 14.15 24.75 11.1 27.8 14.1 30.85 11.05 33.9 14.1 36.9 17.15 33.85 Z
M 5.05 33.85
L 2 36.9 5 39.95 8.05 36.9 5.05 33.85 3.25 32.05
M 5.05 33.85
L 8.05 30.85 6.25 29.05
M -2.85 38.15
L -1.05 39.95 2 36.9 0.2 35.1
M 1.95 49.05
L 5 52.1 8.05 49.05 5 46 1.95 49.05 -1.1 46.05 -4.15 49.1 -1.1 52.1 1.95 49.05 Z
M 1.95 43
L 5 46 8.05 42.95 5 39.95 1.95 43 -1.05 39.95 -4.1 43 -1.1 46.05 1.95 43 Z
M 17.2 46
L 20.2 43 17.15 39.95 14.15 42.95 17.2 46 20.25 49.05 23.25 46.05 20.2 43 23.25 39.95 20.2 36.9 17.15 39.95 14.1 36.9 11.1 39.9 14.15 42.95 11.1 46 14.15 49.05 17.2 46 Z
M 11.1 39.9
L 8.05 42.95 11.1 46 8.05 49.05 11.1 52.1 14.15 49.05 17.2 52.1 20.25 49.05 23.3 52.1 26.3 49.1 23.25 46.05 26.3 43 23.25 39.95 26.3 36.9 29.35 39.95 26.3 43 29.35 46.05 26.3 49.1 29.3 52.1 26.3 55.1 29.35 58.15 32.35 55.15 35.4 58.2 38.45 55.15 41.5 58.2 44.55 55.15 47.6 58.2 50.65 55.15 53.65 58.15 56.7 55.1 59.75 58.15 62.75 55.15 65.8 58.2 62.8 61.2 65.85 64.25 62.8 67.3 65.85 70.35 62.8 73.4 65.8 76.45 62.75 79.5 65.8 82.5 62.75 85.55 65.8 88.6 62.8 91.6 65.85 94.65 62.8 97.7 65.85 100.75 62.8 103.8 65.85 106.85 62.8 109.9 65.8 112.9 62.75 115.95 65.8 119 68.85 115.95 71 118.1
M 11.1 27.8
L 8.05 30.85 11.05 33.9 8.05 36.9 11.1 39.9
M 11.1 27.8
L 9.3 26
M 32.4 61.2
L 35.45 64.25 38.45 61.25 35.4 58.2 32.4 61.2 29.35 58.15 26.3 61.2 29.35 64.25 32.4 61.2 Z
M 23.25 58.15
L 26.3 55.1 23.3 52.1 20.25 55.15 23.25 58.15 26.3 61.2 23.25 64.25 26.3 67.3 29.35 64.25 32.4 67.3 35.45 64.25 38.5 67.3 41.5 64.3 38.45 61.25 41.5 58.2 44.55 61.25 47.6 58.2 50.6 61.2 53.65 58.15 56.7 61.2 59.75 58.15 62.8 61.2 59.75 64.25 62.8 67.3 59.75 70.35 62.8 73.4 59.75 76.45 62.75 79.5 59.7 82.55 62.75 85.55 59.75 88.55 62.8 91.6 59.75 94.65 62.8 97.7 59.75 100.75 62.8 103.8 59.75 106.85 62.8 109.9 59.75 112.95 62.75 115.95 59.7 119 62.75 122.05 65.8 119 67.95 121.15
M 26.3 67.3
L 23.25 70.35 26.3 73.4 29.35 70.35 26.3 67.3 Z
M 38.45 73.35
L 41.5 70.3 38.5 67.3 35.45 70.35 38.45 73.35 41.5 76.4 44.55 73.35 41.5 70.3 44.5 67.3 41.5 64.3 44.55 61.25 47.55 64.25 50.6 61.2 53.65 64.25 56.7 61.2 59.75 64.25 56.7 67.3 59.75 70.35 56.7 73.4 59.75 76.45 56.7 79.5 59.7 82.55 56.7 85.55 59.75 88.55 56.7 91.6 59.75 94.65 56.7 97.7 59.75 100.75 56.7 103.8 59.75 106.85 56.7 109.9 59.75 112.95 56.7 116 59.7 119 56.7 122 59.75 125.05 62.75 122.05 64.9 124.2
M 35.45 70.35
L 32.4 67.3 29.35 70.35 32.4 73.4 35.45 70.35 Z
M 11.1 58.2
L 8.05 61.25 11.1 64.3 14.15 61.25 11.1 58.2 8.05 55.15 5 58.2 8.05 61.25 5 64.3 8.05 67.35 11.1 64.3 14.1 67.3 17.15 64.25 14.15 61.25 17.2 58.2 14.15 55.15 11.1 58.2 Z
M 17.15 64.25
L 20.2 61.2 17.2 58.2 20.25 55.15 17.2 52.1 14.15 55.15 11.1 52.1 8.05 55.15 5 52.1 1.95 55.15 5 58.2 1.95 61.25 5 64.3 2 67.3 5.05 70.35 8.05 67.35 11.05 70.35 14.1 67.3 17.15 70.35 20.2 67.3 17.15 64.25 Z
M 2 73.4
L 5 76.4 8.05 73.35 5.05 70.35 2 73.4 -1.05 70.35 -4.1 73.4 -1.05 76.45 2 73.4 Z
M 11.1 76.4
L 14.1 73.4 11.05 70.35 8.05 73.35 11.1 76.4 14.15 79.45 17.15 76.45 14.1 73.4 17.15 70.35 20.2 73.4 23.25 70.35 20.2 67.3 23.25 64.25 20.2 61.2 23.25 58.15
M 14.15 85.55
L 11.1 82.5 8.05 85.55 11.1 88.6 14.15 85.55 17.2 82.5 14.15 79.45 11.1 82.5 8.05 79.45 5 82.5 8.05 85.55 5 88.6 8.05 91.65 11.1 88.6 14.15 91.65 17.2 88.6 14.15 85.55 Z
M 20.2 79.5
L 17.2 82.5 20.25 85.55 23.25 82.55 20.2 79.5 17.15 76.45 20.2 73.4 23.25 76.45 26.3 73.4 29.35 76.45 32.4 73.4 35.4 76.4 38.45 73.35
M 8.05 79.45
L 5 76.4 1.95 79.45 5 82.5 1.95 85.55 5 88.6 1.95 91.65 5 94.7 8.05 91.65 11.1 94.7 14.15 91.65 17.15 94.65 20.2 91.6 17.2 88.6 20.25 85.55 23.25 88.55 26.25 85.55 23.25 82.55 26.3 79.5 23.25 76.45 20.2 79.5
M 2 97.7
L 5.05 100.75 8.05 97.75 5 94.7 2 97.7 -1.05 94.65 -2.9 96.5
M 11.1 94.7
L 8.05 97.75 11.05 100.75 14.1 97.7 11.1 94.7 Z
M 17.15 100.75
L 20.2 97.7 17.15 94.65 14.1 97.7 17.15 100.75 20.2 103.8 23.25 100.75 20.2 97.7 23.25 94.65 20.2 91.6 23.25 88.55 26.3 91.6 29.3 88.6 26.25 85.55 29.3 82.5 26.3 79.5 29.35 76.45 32.35 79.45 35.4 76.4 38.45 79.45 41.5 76.4 44.55 79.45 47.6 76.4 44.55 73.35 47.55 70.35 44.5 67.3 47.55 64.25 50.6 67.3 53.65 64.25 56.7 67.3 53.65 70.35 56.7 73.4 53.65 76.45 56.7 79.5 53.7 82.5 56.7 85.55 53.65 88.6 56.7 91.6 53.65 94.65 56.7 97.7 53.65 100.75 56.7 103.8 53.65 106.85 56.7 109.9 53.65 112.95 56.7 116 53.7 119 56.7 122 53.65 125.05 56.7 128.1 59.75 125.05 61.9 127.2
M 11.1 76.4
L 8.05 79.45
M 32.35 85.55
L 35.4 88.6 38.45 85.55 35.4 82.5 32.35 85.55 29.3 82.5 32.35 79.45 35.4 82.5 38.45 79.45 41.5 82.5 44.55 79.45 47.6 82.5 50.65 79.45 47.6 76.4 50.6 73.4 47.55 70.35 50.6 67.3 53.65 70.35 50.6 73.4 53.65 76.45 50.65 79.45 53.7 82.5 50.65 85.55 53.65 88.6 50.6 91.65 53.65 94.65 50.6 97.7 53.65 100.75 50.6 103.8 53.65 106.85 50.6 109.9 53.65 112.95 50.65 115.95 53.7 119 50.65 122.05 53.65 125.05 50.6 128.1 53.65 131.15 56.7 128.1 58.85 130.25
M 23.25 100.75
L 26.3 97.7 23.25 94.65 26.3 91.6 29.35 94.65 32.35 91.65 29.3 88.6 32.35 85.55
M 29.35 100.75
L 32.4 97.7 29.35 94.65 26.3 97.7 29.35 100.75 32.4 103.8 35.45 100.75 32.4 97.7 35.4 94.7 32.35 91.65 35.4 88.6 38.45 91.65 41.5 88.6 38.45 85.55 41.5 82.5 44.55 85.55 47.6 82.5 50.65 85.55 47.6 88.6 50.6 91.65 47.55 94.7 50.6 97.7 47.55 100.75 50.6 103.8 47.55 106.85 50.6 109.9 47.6 112.9 50.65 115.95 47.6 119 50.65 122.05 47.6 125.1 50.6 128.1 47.55 131.15 50.6 134.2 53.65 131.15 55.8 133.3
M 35.45 100.75
L 38.45 97.75 35.4 94.7 38.45 91.65 41.5 94.7 44.55 91.65 41.5 88.6 44.55 85.55 47.6 88.6 44.55 91.65 47.55 94.7 44.5 97.75 47.55 100.75 44.5 103.8 47.55 106.85 44.55 109.85 47.6 112.9 44.55 115.95 47.6 119 44.55 122.05 47.6 125.1 44.55 128.15 47.55 131.15 44.5 134.2 47.55 137.25 50.6 134.2 52.75 136.35
M 44.5 97.75
L 41.5 94.7 38.45 97.75 41.45 100.8 44.5 97.75 Z
M 41.5 106.8
L 44.5 103.8 41.45 100.8 38.45 103.8 41.5 106.8 44.55 109.85 41.5 112.9 44.55 115.95 41.5 119 44.55 122.05 41.5 125.1 44.55 128.15 41.5 131.2 44.5 134.2 41.5 137.2 44.55 140.25 47.55 137.25 49.7 139.4
M 46.7 142.4
L 44.55 140.25 42.7 142.1
M 38.45 103.8
L 35.4 106.85 38.45 109.85 41.5 106.8
M 38.45 103.8
L 35.45 100.75
M 35.4 106.85
L 32.4 103.8 29.35 106.85 32.35 109.9 35.4 106.85 Z
M 29.35 100.75
L 26.3 103.8 29.35 106.85 26.3 109.9 29.3 112.95 32.35 109.9 35.4 112.9 38.45 109.85 41.5 112.9 38.45 115.95 41.5 119 38.45 122.05 41.5 125.1 38.45 128.15 41.5 131.2 38.5 134.2 41.5 137.2 39.65 139.05
M 20.2 103.8
L 23.25 106.85 26.3 103.8 23.25 100.75
M 23.25 112.95
L 26.3 109.9 23.25 106.85 20.2 109.9 23.25 112.95 26.25 116 29.3 112.95 32.35 115.95 35.4 112.9 38.45 115.95 35.4 119 38.45 122.05 35.4 125.1 38.45 128.15 35.45 131.15 38.5 134.2 36.65 136.05
M 23.25 112.95
L 20.25 115.95 23.25 119 26.25 116 29.3 119 32.35 115.95 35.4 119 32.35 122.05 35.4 125.1 32.4 128.1 35.45 131.15 33.6 133
M 24.45 123.85
L 26.3 122 23.25 119 21.4 120.85
M 29.35 125.05
L 32.35 122.05 29.3 119 26.3 122 29.35 125.05 32.4 128.1 30.55 129.95
M 8.05 103.75
L 11.1 106.8 14.1 103.8 11.05 100.75 8.05 103.75 5.05 100.75 3.2 102.6
M 12.3 111.7
L 14.15 109.85 11.1 106.8 9.25 108.65
M 17.2 112.9
L 20.2 109.9 17.15 106.85 14.15 109.85 17.2 112.9 20.25 115.95 18.4 117.8
M 20.2 103.8
L 17.15 106.85 14.1 103.8 17.15 100.75
M 8.05 103.75
L 6.2 105.6
M 17.2 112.9
L 15.35 114.75
M 29.35 125.05
L 27.5 126.9
M 2 97.7
L 0.15 99.55
M -15 50.3
L -13.2 52.1 -10.2 49.1 -12 47.3
M -4.15 49.1
L -7.15 46.05 -10.2 49.1 -7.2 52.15 -4.15 49.1 Z
M -8.95 44.25
L -7.15 46.05 -4.1 43 -5.9 41.2
M -4.15 55.15
L -7.15 58.15 -4.1 61.2 -1.1 58.2 -4.15 55.15 -7.2 52.15 -10.2 55.15 -7.15 58.15 -10.2 61.2 -7.15 64.25 -4.1 61.2 -1.05 64.25 1.95 61.25 -1.1 58.2 1.95 55.15 -1.1 52.1 -4.15 55.15 Z
M -13.25 58.2
L -10.2 55.15 -13.2 52.1 -16.25 55.15 -13.25 58.2 -10.2 61.2 -13.25 64.25 -10.2 67.3 -7.15 64.25 -4.1 67.3 -1.05 64.25 2 67.3 -1.05 70.35 -4.1 67.3 -7.15 70.35 -4.1 73.4 -7.15 76.45 -4.1 79.5 -1.05 76.45 1.95 79.45 -1.1 82.5 1.95 85.55 -1.1 88.6 1.95 91.65 -1.05 94.65 -4.1 91.6 -5.95 93.45
M -21.1 56.4
L -19.3 58.2 -16.25 55.15 -18.05 53.35
M -19.3 58.2
L -22.35 61.25 -19.35 64.3 -16.3 61.25 -19.3 58.2 Z
M -13.25 58.2
L -16.3 61.25 -13.25 64.25 -16.3 67.3 -13.25 70.35 -10.2 67.3 -7.15 70.35 -10.2 73.4 -7.15 76.45 -10.2 79.5 -7.15 82.55 -4.1 79.5 -1.1 82.5 -4.15 85.55 -1.1 88.6 -4.1 91.6 -7.15 88.55 -9 90.4
M -19.35 70.35
L -16.3 67.3 -19.35 64.3 -22.4 67.35 -19.35 70.35 -16.3 73.4 -13.25 70.35 -10.2 73.4 -13.25 76.45 -10.2 79.5 -13.2 82.5 -10.15 85.55 -7.15 82.55 -4.15 85.55 -7.15 88.55 -10.15 85.55 -12 87.4
M -27.2 62.5
L -25.4 64.3 -22.35 61.25 -24.15 59.45
M -30.25 69.15
L -28.4 67.3 -30.2 65.5
M -28.4 67.3
L -25.4 70.35 -22.4 67.35 -25.4 64.3 -28.4 67.3 Z
M -24.2 75.2
L -22.35 73.35 -25.4 70.35 -27.25 72.2
M -15.05 84.35
L -13.2 82.5 -16.25 79.45 -18.1 81.3
M -16.25 79.45
L -19.3 76.4 -21.15 78.25
M -16.25 79.45
L -13.25 76.45 -16.3 73.4 -19.3 76.4 -22.35 73.35 -19.35 70.35
M 36.65 -1.35
L 38.45 0.45 41.5 -2.6"/>
</defs>

<g transform="matrix( 1, 0, 0, 1, 0,0) ">
<use xlink:href="#Layer4_0_FILL"/>
</g>

<g transform="matrix( 1, 0, 0, 1, 0,0) ">
<use xlink:href="#Layer3_0_1_STROKES"/>
</g>

<g transform="matrix( 1, 0, 0, 1, 0,0) ">
<use xlink:href="#Layer2_0_1_STROKES"/>
</g>

<mask id="Mask_Mask_1">
<g transform="matrix( 1, 0, 0, 1, 0,0) ">
<use xlink:href="#Mask_1_MASK_0_FILL"/>
</g>
</mask>

<g mask="url(#Mask_Mask_1)">
<g transform="matrix( 1, 0, 0, 1, 0,0) ">
<use xlink:href="#Layer1_0_1_STROKES"/>
</g>
</g>
</svg>
