
<svg xmlns="http://www.w3.org/2000/svg" version="1.1" xmlns:xlink="http://www.w3.org/1999/xlink" preserveAspectRatio="none" x="0px" y="0px" width="92px" height="140px" viewBox="0 0 92 140">
<defs>
<g id="Layer2_0_FILL">
<path fill="#663366" stroke="none" d="
M 92.8 141.25
L 92.8 -0.75 -1.2 -0.75 -1.2 141.25 92.8 141.25
M 87.55 136.4
L 4.05 136.2 4.05 4.2 87.3 4.2 87.55 136.4
M 7.2 133.9
L 84.55 134.1 84.3 6.55 7.2 6.55 7.2 133.9
M 83.3 7.55
L 83.55 133.1 8.2 132.9 8.2 7.55 83.3 7.55 Z"/>

<path fill="#FFFFFF" stroke="none" d="
M 4.05 136.2
L 87.55 136.4 87.3 4.2 4.05 4.2 4.05 136.2
M 84.55 134.1
L 7.2 133.9 7.2 6.55 84.3 6.55 84.55 134.1
M 83.55 133.1
L 83.3 7.55 8.2 7.55 8.2 132.9 83.55 133.1 Z"/>
</g>

<g id="Layer1_0_FILL">
<path fill="#663366" stroke="none" d="
M 81.2 9.7
L 10.35 9.7 10.35 130.75 81.4 130.95 81.2 9.7
M 11.3 10.65
L 80.25 10.65 80.5 130 11.3 129.8 11.3 10.65 Z"/>
</g>

<g id="Layer0_0_FILL">
<path fill="#663366" stroke="none" d="
M 32.2 130.5
L 30.75 128.65 28.55 125.9 26.35 128.65 24.9 130.5 32.2 130.5
M 39.45 128.65
L 37.25 125.9 35.1 128.65 33.6 130.5 40.9 130.5 39.45 128.65
M 13.25 128.65
L 11.1 125.9 11.1 130.5 14.7 130.5 13.25 128.65
M 19.8 125.9
L 17.65 128.65 16.15 130.5 23.45 130.5 22 128.65 19.8 125.9
M 65.65 128.65
L 63.45 125.9 61.25 128.65 59.8 130.5 67.1 130.5 65.65 128.65
M 74.35 128.65
L 72.15 125.9 70 128.65 68.5 130.5 75.8 130.5 74.35 128.65
M 80.9 125.9
L 78.7 128.65 77.25 130.5 80.9 130.5 80.9 125.9
M 48.2 128.65
L 46 125.9 43.8 128.65 42.35 130.5 49.65 130.5 48.2 128.65
M 54.7 125.9
L 52.55 128.65 51.05 130.5 58.35 130.5 56.9 128.65 54.7 125.9
M 15.45 10.65
L 11.1 10.65 11.1 16.1 13.25 13.4 15.45 10.65
M 80.9 10.65
L 76.55 10.65 78.7 13.4 80.9 16.1 80.9 10.65
M 13.25 117.65
L 11.1 114.95 11.1 125.9 13.25 123.15 15.45 120.4 13.25 117.65
M 78.7 117.65
L 76.55 120.4 78.7 123.15 80.9 125.9 80.9 114.95 78.7 117.65
M 78.7 106.7
L 76.55 109.45 78.7 112.2 80.9 114.95 80.9 103.95 78.7 106.7
M 78.7 95.7
L 76.55 98.45 78.7 101.2 80.9 103.95 80.9 92.95 78.7 95.7
M 13.25 106.7
L 11.1 103.95 11.1 114.95 13.25 112.2 15.45 109.45 13.25 106.7
M 13.25 95.7
L 11.1 92.95 11.1 103.95 13.25 101.2 15.45 98.45 13.25 95.7
M 80.9 82
L 78.7 84.7 76.55 87.45 78.7 90.2 80.9 92.95 80.9 82
M 80.9 71
L 78.7 73.75 76.55 76.5 78.7 79.25 80.9 82 80.9 71
M 78.7 62.75
L 76.5 65.45 76.55 65.5 78.7 68.25 80.9 71 80.9 60.05 78.7 62.75
M 78.7 57.3
L 80.9 60.05 80.9 49.05 78.7 51.8 76.55 54.55 78.7 57.3
M 80.9 38.05
L 78.7 40.8 76.55 43.55 78.7 46.3 80.9 49.05 80.9 38.05
M 80.9 27.1
L 78.7 29.85 76.55 32.6 78.7 35.3 80.9 38.05 80.9 27.1
M 78.7 18.85
L 76.55 21.6 78.7 24.35 80.9 27.1 80.9 16.1 78.7 18.85
M 13.25 40.8
L 11.1 38.05 11.1 49.05 13.25 46.3 15.45 43.55 13.25 40.8
M 13.25 29.85
L 11.1 27.1 11.1 38.05 13.25 35.3 15.45 32.6 13.25 29.85
M 13.25 18.85
L 11.1 16.1 11.1 27.1 13.25 24.35 15.45 21.6 13.25 18.85
M 13.25 84.7
L 11.1 82 11.1 92.95 13.25 90.2 15.45 87.45 13.25 84.7
M 13.25 73.75
L 11.1 71 11.1 82 13.25 79.25 15.45 76.5 13.25 73.75
M 15.45 65.5
L 15.4 65.45 13.25 62.75 11.1 60.05 11.1 71 13.25 68.25 15.45 65.5
M 11.1 60.05
L 13.25 57.3 15.45 54.55 13.25 51.8 11.1 49.05 11.1 60.05
M 22 13.4
L 24.2 10.65 15.45 10.65 17.65 13.4 19.8 16.1 22 13.4
M 72.15 16.1
L 74.35 13.4 76.55 10.65 67.8 10.65 70 13.4 72.15 16.1
M 37.25 16.1
L 39.45 13.4 41.65 10.65 32.9 10.65 35.1 13.4 37.25 16.1
M 26.35 13.4
L 28.55 16.1 30.75 13.4 32.9 10.65 24.2 10.65 26.35 13.4
M 54.7 16.1
L 56.9 13.4 59.1 10.65 50.35 10.65 52.55 13.4 54.7 16.1
M 50.35 10.65
L 41.65 10.65 43.8 13.4 46 16.1 48.2 13.4 50.35 10.65
M 61.25 13.4
L 63.45 16.1 65.65 13.4 67.8 10.65 59.1 10.65 61.25 13.4
M 67.8 43.55
L 70 46.3 72.15 49.05 74.35 46.3 76.55 43.55 74.35 40.8 72.15 38.05 70 40.8 67.8 43.55
M 35.1 117.65
L 32.9 120.4 35.1 123.15 37.25 125.9 39.45 123.15 41.65 120.4 39.45 117.65 37.25 114.95 35.1 117.65
M 24.2 120.4
L 26.35 123.15 28.55 125.9 30.75 123.15 32.9 120.4 30.75 117.65 28.55 114.95 26.35 117.65 24.2 120.4
M 24.2 120.4
L 22 117.65 19.8 114.95 17.65 117.65 15.45 120.4 17.65 123.15 19.8 125.9 22 123.15 24.2 120.4
M 24.2 109.45
L 22 106.7 19.8 103.95 17.65 106.7 15.45 109.45 17.65 112.2 19.8 114.95 22 112.2 24.2 109.45
M 32.9 109.45
L 30.75 106.7 28.55 103.95 26.35 106.7 24.2 109.45 26.35 112.2 28.55 114.95 30.75 112.2 32.9 109.45
M 35.1 106.7
L 32.9 109.45 35.1 112.2 37.25 114.95 39.45 112.2 41.65 109.45 39.45 106.7 37.25 103.95 35.1 106.7
M 56.9 123.15
L 59.1 120.4 56.9 117.65 54.7 114.95 52.55 117.65 50.35 120.4 52.55 123.15 54.7 125.9 56.9 123.15
M 43.8 117.65
L 41.65 120.4 43.8 123.15 46 125.9 48.2 123.15 50.35 120.4 48.2 117.65 46 114.95 43.8 117.65
M 43.8 106.7
L 41.65 109.45 43.8 112.2 46 114.95 48.2 112.2 50.35 109.45 48.2 106.7 46 103.95 43.8 106.7
M 59.1 109.45
L 56.9 106.7 54.7 103.95 52.55 106.7 50.35 109.45 52.55 112.2 54.7 114.95 56.9 112.2 59.1 109.45
M 65.65 123.15
L 67.8 120.4 65.65 117.65 63.45 114.95 61.25 117.65 59.1 120.4 61.25 123.15 63.45 125.9 65.65 123.15
M 70 117.65
L 67.8 120.4 70 123.15 72.15 125.9 74.35 123.15 76.55 120.4 74.35 117.65 72.15 114.95 70 117.65
M 63.45 103.95
L 61.25 106.7 59.1 109.45 61.25 112.2 63.45 114.95 65.65 112.2 67.8 109.45 65.65 106.7 63.45 103.95
M 74.35 106.7
L 72.15 103.95 70 106.7 67.8 109.45 70 112.2 72.15 114.95 74.35 112.2 76.55 109.45 74.35 106.7
M 70 95.7
L 67.8 98.45 70 101.2 72.15 103.95 74.35 101.2 76.55 98.45 74.35 95.7 72.15 92.95 70 95.7
M 63.45 92.95
L 61.25 95.7 59.1 98.45 61.25 101.2 63.45 103.95 65.65 101.2 67.8 98.45 65.65 95.7 63.45 92.95
M 56.9 95.7
L 54.7 92.95 52.55 95.7 50.35 98.45 52.55 101.2 54.7 103.95 56.9 101.2 59.1 98.45 56.9 95.7
M 43.8 95.7
L 41.65 98.45 43.8 101.2 46 103.95 48.2 101.2 50.35 98.45 48.2 95.7 46 92.95 43.8 95.7
M 35.1 95.7
L 32.9 98.45 35.1 101.2 37.25 103.95 39.45 101.2 41.65 98.45 39.45 95.7 37.25 92.95 35.1 95.7
M 28.55 92.95
L 26.35 95.7 24.2 98.45 26.35 101.2 28.55 103.95 30.75 101.2 32.9 98.45 30.75 95.7 28.55 92.95
M 17.65 95.7
L 15.45 98.45 17.65 101.2 19.8 103.95 22 101.2 24.2 98.45 22 95.7 19.8 92.95 17.65 95.7
M 50.35 65.45
L 50.35 65.5 52.55 68.25 54.7 71 56.9 68.25 59.1 65.5 59.1 65.45 56.9 62.75 54.7 60.05 52.55 62.75 50.35 65.45
M 50.35 65.45
L 48.2 62.75 46 60.05 43.8 62.75 41.6 65.45 41.65 65.5 43.8 68.25 46 71 48.2 68.25 50.35 65.5 50.35 65.45
M 67.8 65.5
L 67.75 65.45 65.65 62.75 63.45 60.05 61.25 62.75 59.1 65.45 59.1 65.5 61.25 68.25 63.45 71 65.65 68.25 67.8 65.5
M 70 62.75
L 67.75 65.45 67.8 65.5 70 68.25 72.15 71 74.35 68.25 76.55 65.5 76.5 65.45 74.35 62.75 72.15 60.05 70 62.75
M 35.1 62.75
L 32.85 65.45 32.9 65.5 35.1 68.25 37.25 71 39.45 68.25 41.65 65.5 41.6 65.45 39.45 62.75 37.25 60.05 35.1 62.75
M 24.2 65.45
L 24.2 65.5 26.35 68.25 28.55 71 30.75 68.25 32.9 65.5 32.85 65.45 30.75 62.75 28.55 60.05 26.35 62.75 24.2 65.45
M 24.2 65.45
L 22 62.75 19.8 60.05 17.65 62.75 15.4 65.45 15.45 65.5 17.65 68.25 19.8 71 22 68.25 24.2 65.5 24.2 65.45
M 63.45 82
L 61.25 84.7 59.1 87.45 61.25 90.2 63.45 92.95 65.65 90.2 67.8 87.45 65.65 84.7 63.45 82
M 74.35 84.7
L 72.15 82 70 84.7 67.8 87.45 70 90.2 72.15 92.95 74.35 90.2 76.55 87.45 74.35 84.7
M 48.2 84.7
L 46 82 43.8 84.7 41.65 87.45 43.8 90.2 46 92.95 48.2 90.2 50.35 87.45 48.2 84.7
M 54.7 82
L 52.55 84.7 50.35 87.45 52.55 90.2 54.7 92.95 56.9 90.2 59.1 87.45 56.9 84.7 54.7 82
M 54.7 71
L 52.55 73.75 50.35 76.5 52.55 79.25 54.7 82 56.9 79.25 59.1 76.5 56.9 73.75 54.7 71
M 48.2 73.75
L 46 71 43.8 73.75 41.65 76.5 43.8 79.25 46 82 48.2 79.25 50.35 76.5 48.2 73.75
M 74.35 73.75
L 72.15 71 70 73.75 67.8 76.5 70 79.25 72.15 82 74.35 79.25 76.55 76.5 74.35 73.75
M 65.65 73.75
L 63.45 71 61.25 73.75 59.1 76.5 61.25 79.25 63.45 82 65.65 79.25 67.8 76.5 65.65 73.75
M 28.55 82
L 26.35 84.7 24.2 87.45 26.35 90.2 28.55 92.95 30.75 90.2 32.9 87.45 30.75 84.7 28.55 82
M 39.45 84.7
L 37.25 82 35.1 84.7 32.9 87.45 35.1 90.2 37.25 92.95 39.45 90.2 41.65 87.45 39.45 84.7
M 19.8 82
L 17.65 84.7 15.45 87.45 17.65 90.2 19.8 92.95 22 90.2 24.2 87.45 22 84.7 19.8 82
M 19.8 71
L 17.65 73.75 15.45 76.5 17.65 79.25 19.8 82 22 79.25 24.2 76.5 22 73.75 19.8 71
M 39.45 73.75
L 37.25 71 35.1 73.75 32.9 76.5 35.1 79.25 37.25 82 39.45 79.25 41.65 76.5 39.45 73.75
M 28.55 71
L 26.35 73.75 24.2 76.5 26.35 79.25 28.55 82 30.75 79.25 32.9 76.5 30.75 73.75 28.55 71
M 50.35 54.55
L 48.2 51.8 46 49.05 43.8 51.8 41.65 54.55 43.8 57.3 46 60.05 48.2 57.3 50.35 54.55
M 59.1 54.55
L 56.9 51.8 54.7 49.05 52.55 51.8 50.35 54.55 52.55 57.3 54.7 60.05 56.9 57.3 59.1 54.55
M 67.8 54.55
L 65.65 51.8 63.45 49.05 61.25 51.8 59.1 54.55 61.25 57.3 63.45 60.05 65.65 57.3 67.8 54.55
M 76.55 54.55
L 74.35 51.8 72.15 49.05 70 51.8 67.8 54.55 70 57.3 72.15 60.05 74.35 57.3 76.55 54.55
M 24.2 54.55
L 22 51.8 19.8 49.05 17.65 51.8 15.45 54.55 17.65 57.3 19.8 60.05 22 57.3 24.2 54.55
M 35.1 57.3
L 37.25 60.05 39.45 57.3 41.65 54.55 39.45 51.8 37.25 49.05 35.1 51.8 32.9 54.55 35.1 57.3
M 30.75 57.3
L 32.9 54.55 30.75 51.8 28.55 49.05 26.35 51.8 24.2 54.55 26.35 57.3 28.55 60.05 30.75 57.3
M 39.45 40.8
L 37.25 38.05 35.1 40.8 32.9 43.55 35.1 46.3 37.25 49.05 39.45 46.3 41.65 43.55 39.45 40.8
M 28.55 38.05
L 26.35 40.8 24.2 43.55 26.35 46.3 28.55 49.05 30.75 46.3 32.9 43.55 30.75 40.8 28.55 38.05
M 30.75 35.3
L 32.9 32.6 30.75 29.85 28.55 27.1 26.35 29.85 24.2 32.6 26.35 35.3 28.55 38.05 30.75 35.3
M 39.45 29.85
L 37.25 27.1 35.1 29.85 32.9 32.6 35.1 35.3 37.25 38.05 39.45 35.3 41.65 32.6 39.45 29.85
M 19.8 38.05
L 17.65 40.8 15.45 43.55 17.65 46.3 19.8 49.05 22 46.3 24.2 43.55 22 40.8 19.8 38.05
M 19.8 27.1
L 17.65 29.85 15.45 32.6 17.65 35.3 19.8 38.05 22 35.3 24.2 32.6 22 29.85 19.8 27.1
M 35.1 18.85
L 32.9 21.6 35.1 24.35 37.25 27.1 39.45 24.35 41.65 21.6 39.45 18.85 37.25 16.1 35.1 18.85
M 24.2 21.6
L 26.35 24.35 28.55 27.1 30.75 24.35 32.9 21.6 30.75 18.85 28.55 16.1 26.35 18.85 24.2 21.6
M 24.2 21.6
L 22 18.85 19.8 16.1 17.65 18.85 15.45 21.6 17.65 24.35 19.8 27.1 22 24.35 24.2 21.6
M 63.45 38.05
L 61.25 40.8 59.1 43.55 61.25 46.3 63.45 49.05 65.65 46.3 67.8 43.55 65.65 40.8 63.45 38.05
M 67.8 32.6
L 65.65 29.85 63.45 27.1 61.25 29.85 59.1 32.6 61.25 35.3 63.45 38.05 65.65 35.3 67.8 32.6
M 76.55 32.6
L 74.35 29.85 72.15 27.1 70 29.85 67.8 32.6 70 35.3 72.15 38.05 74.35 35.3 76.55 32.6
M 54.7 49.05
L 56.9 46.3 59.1 43.55 56.9 40.8 54.7 38.05 52.55 40.8 50.35 43.55 52.55 46.3 54.7 49.05
M 48.2 40.8
L 46 38.05 43.8 40.8 41.65 43.55 43.8 46.3 46 49.05 48.2 46.3 50.35 43.55 48.2 40.8
M 48.2 35.3
L 50.35 32.6 48.2 29.85 46 27.1 43.8 29.85 41.65 32.6 43.8 35.3 46 38.05 48.2 35.3
M 54.7 27.1
L 52.55 29.85 50.35 32.6 52.55 35.3 54.7 38.05 56.9 35.3 59.1 32.6 56.9 29.85 54.7 27.1
M 54.7 16.1
L 52.55 18.85 50.35 21.6 52.55 24.35 54.7 27.1 56.9 24.35 59.1 21.6 56.9 18.85 54.7 16.1
M 41.65 21.6
L 43.8 24.35 46 27.1 48.2 24.35 50.35 21.6 48.2 18.85 46 16.1 43.8 18.85 41.65 21.6
M 63.45 16.1
L 61.25 18.85 59.1 21.6 61.25 24.35 63.45 27.1 65.65 24.35 67.8 21.6 65.65 18.85 63.45 16.1
M 67.8 21.6
L 70 24.35 72.15 27.1 74.35 24.35 76.55 21.6 74.35 18.85 72.15 16.1 70 18.85 67.8 21.6 Z"/>
</g>

<path id="Layer0_0_1_STROKES" stroke="#003399" stroke-width="1" stroke-linejoin="miter" stroke-linecap="square" stroke-miterlimit="3" fill="none" d="
M -1716.2 -720.55
L -1690.35 -688 -1664.5 -655.5 -1638.65 -688 -1612.8 -720.55 -1586.95 -688 -1561.1 -655.5 -1535.25 -688 -1509.4 -720.55 -1483.55 -688 -1457.7 -655.5 -1431.85 -688 -1406 -720.55 -1380.15 -688 -1354.3 -655.5 -1328.45 -688 -1302.6 -720.55 -1276.75 -688 -1250.9 -655.5 -1225.05 -688 -1199.2 -720.55 -1173.35 -688 -1147.5 -655.5 -1121.65 -688 -1095.8 -720.55 -1069.95 -688 -1044.1 -655.5 -1018.25 -688 -992.4 -720.55 -966.55 -688 -940.7 -655.5 -966.55 -623 -992.4 -590.5 -966.55 -557.95 -940.7 -525.45 -966.55 -492.95 -992.4 -460.45 -966.55 -427.9 -940.7 -395.4 -966.55 -362.9 -992.4 -330.4 -966.55 -297.85 -940.7 -265.35 -966.55 -232.85 -992.4 -200.35 -966.55 -167.8 -940.7 -135.3 -966.55 -102.8 -992.4 -70.3 -966.55 -37.75 -940.7 -5.25 -966.55 27.25 -992.4 59.75 -966.55 92.3 -940.7 124.8 -966.55 157.3 -992.4 189.8 -966.55 222.35 -940.7 254.85 -966.55 287.35 -992.4 319.85 -1018.25 287.35 -1044.1 254.85 -1069.95 287.35 -1095.8 319.85 -1121.65 287.35 -1147.5 254.85 -1173.35 287.35 -1199.2 319.85 -1225.05 287.35 -1250.9 254.85 -1276.75 287.35 -1302.6 319.85 -1328.45 287.35 -1354.3 254.85 -1380.15 287.35 -1406 319.85 -1431.85 287.35 -1457.7 254.85 -1483.55 287.35 -1509.4 319.85 -1535.25 287.35 -1561.1 254.85 -1586.95 287.35 -1612.8 319.85 -1638.65 287.35 -1664.5 254.85 -1690.35 287.35 -1716.2 319.85 -1742.05 287.35 -1767.9 254.85 -1742.05 222.35 -1716.2 189.8 -1742.05 157.3 -1767.9 124.8 -1742.05 92.3 -1716.2 59.75 -1742.05 27.25 -1767.9 -5.25 -1742.05 -37.75 -1716.2 -70.3 -1742.05 -102.8 -1767.9 -135.3 -1742.05 -167.8 -1716.2 -200.35 -1742.05 -232.85 -1767.9 -265.35 -1742.05 -297.85 -1716.2 -330.4 -1742.05 -362.9 -1767.9 -395.4 -1742.05 -427.9 -1716.2 -460.45 -1742.05 -492.95 -1767.9 -525.45 -1742.05 -557.95 -1716.2 -590.5 -1742.05 -623 -1767.9 -655.5 -1742.05 -688 -1716.2 -720.55 Z
M -1147.5 -655.5
L -1121.65 -623 -1095.8 -655.5 -1121.65 -688
M -1121.65 -623
L -1095.8 -590.5 -1069.95 -623 -1095.8 -655.5 -1069.95 -688
M -1095.8 -590.5
L -1069.95 -557.95 -1044.1 -525.45 -1018.25 -557.95 -992.4 -590.5 -1018.25 -623 -1044.1 -655.5 -1069.95 -623
M -966.55 -623
L -992.4 -655.5 -1018.25 -623
M -992.4 -655.5
L -1018.25 -688
M -1199.2 -590.5
L -1225.05 -623 -1250.9 -655.5 -1276.75 -623 -1302.6 -590.5 -1276.75 -557.95 -1250.9 -525.45 -1225.05 -557.95 -1199.2 -590.5 -1173.35 -623 -1199.2 -655.5 -1225.05 -623
M -1147.5 -655.5
L -1173.35 -623
M -1173.35 -688
L -1199.2 -655.5 -1225.05 -688
M -1147.5 -525.45
L -1173.35 -557.95 -1199.2 -525.45 -1173.35 -492.95 -1147.5 -525.45 -1121.65 -557.95 -1095.8 -590.5
M -1199.2 -590.5
L -1173.35 -557.95
M -1173.35 -492.95
L -1199.2 -460.45 -1173.35 -427.9 -1147.5 -395.4 -1121.65 -427.9 -1095.8 -460.45 -1121.65 -492.95 -1147.5 -525.45
M -1250.9 -525.45
L -1225.05 -492.95 -1199.2 -525.45 -1225.05 -557.95
M -1250.9 -525.45
L -1276.75 -492.95 -1302.6 -460.45 -1276.75 -427.9 -1250.9 -395.4 -1225.05 -427.9 -1199.2 -460.45 -1225.05 -492.95
M -1044.1 -525.45
L -1018.25 -492.95 -992.4 -525.45 -1018.25 -557.95
M -1121.65 -492.95
L -1095.8 -525.45 -1121.65 -557.95
M -1069.95 -557.95
L -1095.8 -525.45 -1069.95 -492.95 -1044.1 -525.45
M -1069.95 -492.95
L -1095.8 -460.45 -1069.95 -427.9 -1044.1 -395.4 -1018.25 -427.9 -992.4 -460.45 -1018.25 -492.95
M -1018.25 -297.85
L -992.4 -330.4 -1018.25 -362.9 -1044.1 -395.4 -1069.95 -362.9 -1095.8 -330.4 -1069.95 -297.85 -1044.1 -265.35 -1018.25 -297.85 -992.4 -265.35 -966.55 -297.85
M -966.55 -362.9
L -992.4 -395.4 -1018.25 -362.9
M -1069.95 -362.9
L -1095.8 -395.4 -1121.65 -362.9 -1095.8 -330.4 -1121.65 -297.85 -1095.8 -265.35 -1069.95 -297.85
M -1173.35 -232.85
L -1199.2 -200.35 -1173.35 -167.8 -1147.5 -135.3 -1121.65 -167.8 -1095.8 -200.35 -1121.65 -232.85 -1147.5 -265.35 -1173.35 -232.85 -1199.2 -265.35 -1225.05 -232.85 -1199.2 -200.35 -1225.05 -167.8 -1199.2 -135.3 -1173.35 -167.8
M -1095.8 -200.35
L -1069.95 -232.85 -1095.8 -265.35 -1121.65 -232.85
M -1095.8 -200.35
L -1069.95 -167.8 -1044.1 -135.3 -1018.25 -167.8 -992.4 -200.35 -1018.25 -232.85 -1044.1 -265.35 -1069.95 -232.85
M -966.55 -232.85
L -992.4 -265.35 -1018.25 -232.85
M -1121.65 -362.9
L -1147.5 -395.4 -1173.35 -362.9 -1199.2 -330.4 -1173.35 -297.85 -1147.5 -265.35 -1121.65 -297.85
M -1173.35 -362.9
L -1199.2 -395.4 -1225.05 -362.9 -1199.2 -330.4 -1225.05 -297.85 -1199.2 -265.35 -1173.35 -297.85
M -1225.05 -362.9
L -1250.9 -395.4 -1276.75 -362.9 -1302.6 -330.4 -1276.75 -297.85 -1250.9 -265.35 -1225.05 -297.85
M -1225.05 -232.85
L -1250.9 -265.35 -1276.75 -232.85 -1302.6 -200.35 -1276.75 -167.8 -1250.9 -135.3 -1225.05 -167.8
M -1173.35 -102.8
L -1199.2 -70.3 -1173.35 -37.75 -1147.5 -5.25 -1121.65 -37.75 -1095.8 -70.3 -1121.65 -102.8 -1147.5 -135.3 -1173.35 -102.8 -1199.2 -135.3 -1225.05 -102.8 -1199.2 -70.3 -1225.05 -37.75 -1199.2 -5.25 -1173.35 -37.75
M -1225.05 -102.8
L -1250.9 -135.3 -1276.75 -102.8 -1302.6 -70.3 -1276.75 -37.75 -1250.9 -5.25 -1225.05 -37.75
M -1069.95 -102.8
L -1095.8 -70.3 -1069.95 -37.75 -1044.1 -5.25 -1018.25 -37.75 -992.4 -70.3 -1018.25 -102.8 -1044.1 -135.3 -1069.95 -102.8 -1095.8 -135.3 -1121.65 -102.8
M -1018.25 -102.8
L -992.4 -135.3 -1018.25 -167.8
M -1069.95 -167.8
L -1095.8 -135.3 -1121.65 -167.8
M -1147.5 -5.25
L -1121.65 27.25 -1095.8 -5.25 -1121.65 -37.75
M -1069.95 -37.75
L -1095.8 -5.25 -1069.95 27.25 -1044.1 -5.25 -1018.25 27.25 -992.4 -5.25 -1018.25 -37.75
M -966.55 -37.75
L -992.4 -5.25 -966.55 27.25
M -966.55 -167.8
L -992.4 -135.3 -966.55 -102.8
M -966.55 -427.9
L -992.4 -395.4 -1018.25 -427.9
M -966.55 -557.95
L -992.4 -525.45 -966.55 -492.95
M -966.55 -688
L -992.4 -655.5
M -1069.95 -427.9
L -1095.8 -395.4 -1121.65 -427.9
M -1225.05 -427.9
L -1199.2 -395.4 -1173.35 -427.9
M -1380.15 -688
L -1406 -655.5 -1380.15 -623 -1354.3 -655.5 -1328.45 -623 -1302.6 -655.5 -1328.45 -688
M -1406 -655.5
L -1431.85 -623 -1406 -590.5 -1380.15 -623
M -1431.85 -623
L -1457.7 -655.5 -1483.55 -623 -1509.4 -590.5 -1483.55 -557.95 -1457.7 -525.45 -1431.85 -557.95 -1406 -590.5 -1380.15 -557.95 -1354.3 -525.45 -1328.45 -557.95 -1302.6 -590.5 -1328.45 -623
M -1406 -655.5
L -1431.85 -688
M -1586.95 -688
L -1612.8 -655.5 -1586.95 -623 -1561.1 -655.5 -1535.25 -623 -1509.4 -655.5 -1535.25 -688
M -1483.55 -623
L -1509.4 -655.5 -1483.55 -688
M -1586.95 -623
L -1612.8 -590.5 -1586.95 -557.95 -1561.1 -525.45 -1535.25 -557.95 -1509.4 -590.5 -1535.25 -623
M -1561.1 -525.45
L -1535.25 -492.95 -1509.4 -525.45 -1535.25 -557.95
M -1483.55 -557.95
L -1509.4 -525.45 -1483.55 -492.95 -1457.7 -525.45 -1431.85 -492.95 -1406 -525.45 -1431.85 -557.95
M -1586.95 -557.95
L -1612.8 -525.45 -1586.95 -492.95 -1561.1 -525.45
M -1586.95 -492.95
L -1612.8 -460.45 -1586.95 -427.9 -1561.1 -395.4 -1535.25 -427.9 -1509.4 -460.45 -1535.25 -492.95
M -1483.55 -492.95
L -1509.4 -460.45 -1483.55 -427.9 -1457.7 -395.4 -1431.85 -427.9 -1406 -460.45 -1431.85 -492.95
M -1354.3 -525.45
L -1328.45 -492.95 -1302.6 -525.45 -1328.45 -557.95
M -1380.15 -557.95
L -1406 -525.45 -1380.15 -492.95 -1354.3 -525.45
M -1380.15 -492.95
L -1406 -460.45 -1380.15 -427.9 -1354.3 -395.4 -1328.45 -427.9 -1302.6 -460.45 -1328.45 -492.95
M -1716.2 -590.5
L -1690.35 -623 -1716.2 -655.5 -1742.05 -623
M -1716.2 -655.5
L -1742.05 -688
M -1716.2 -590.5
L -1690.35 -557.95 -1664.5 -525.45 -1638.65 -557.95 -1612.8 -590.5 -1638.65 -623 -1664.5 -655.5 -1690.35 -623
M -1690.35 -688
L -1716.2 -655.5
M -1742.05 -492.95
L -1716.2 -525.45 -1742.05 -557.95
M -1690.35 -557.95
L -1716.2 -525.45 -1690.35 -492.95 -1664.5 -525.45 -1638.65 -492.95 -1612.8 -525.45 -1638.65 -557.95
M -1690.35 -492.95
L -1716.2 -460.45 -1690.35 -427.9 -1664.5 -395.4 -1638.65 -427.9 -1612.8 -460.45 -1638.65 -492.95
M -1612.8 -330.4
L -1638.65 -362.9 -1664.5 -395.4 -1690.35 -362.9 -1716.2 -330.4 -1690.35 -297.85 -1664.5 -265.35 -1638.65 -297.85 -1612.8 -330.4 -1586.95 -362.9 -1612.8 -395.4 -1638.65 -362.9
M -1690.35 -362.9
L -1716.2 -395.4 -1742.05 -362.9
M -1716.2 -200.35
L -1690.35 -232.85 -1716.2 -265.35 -1742.05 -232.85
M -1716.2 -200.35
L -1690.35 -167.8 -1664.5 -135.3 -1638.65 -167.8 -1612.8 -200.35 -1638.65 -232.85 -1664.5 -265.35 -1690.35 -232.85
M -1690.35 -297.85
L -1716.2 -265.35 -1742.05 -297.85
M -1664.5 -135.3
L -1690.35 -102.8 -1716.2 -70.3 -1690.35 -37.75 -1664.5 -5.25 -1638.65 -37.75 -1612.8 -70.3 -1638.65 -102.8 -1664.5 -135.3 Z
M -1742.05 -102.8
L -1716.2 -135.3 -1742.05 -167.8
M -1742.05 27.25
L -1716.2 -5.25 -1742.05 -37.75
M -1690.35 -167.8
L -1716.2 -135.3 -1690.35 -102.8
M -1690.35 -37.75
L -1716.2 -5.25 -1690.35 27.25 -1664.5 -5.25 -1638.65 27.25 -1612.8 -5.25 -1638.65 -37.75
M -1276.75 -362.9
L -1302.6 -395.4 -1328.45 -362.9 -1302.6 -330.4 -1328.45 -297.85 -1302.6 -265.35 -1276.75 -297.85
M -1328.45 -362.9
L -1354.3 -395.4 -1380.15 -362.9 -1406 -330.4 -1380.15 -297.85 -1354.3 -265.35 -1328.45 -297.85
M -1380.15 -362.9
L -1406 -395.4 -1431.85 -362.9 -1406 -330.4 -1431.85 -297.85 -1406 -265.35 -1380.15 -297.85
M -1431.85 -362.9
L -1457.7 -395.4 -1483.55 -362.9 -1509.4 -330.4 -1483.55 -297.85 -1457.7 -265.35 -1431.85 -297.85
M -1354.3 -265.35
L -1380.15 -232.85 -1406 -200.35 -1380.15 -167.8 -1354.3 -135.3 -1328.45 -167.8 -1302.6 -200.35 -1328.45 -232.85 -1354.3 -265.35 Z
M -1380.15 -232.85
L -1406 -265.35 -1431.85 -232.85 -1406 -200.35 -1431.85 -167.8 -1406 -135.3 -1380.15 -167.8
M -1431.85 -232.85
L -1457.7 -265.35 -1483.55 -232.85 -1509.4 -200.35 -1483.55 -167.8 -1457.7 -135.3 -1431.85 -167.8
M -1276.75 -232.85
L -1302.6 -265.35 -1328.45 -232.85
M -1483.55 -362.9
L -1509.4 -395.4 -1535.25 -362.9 -1509.4 -330.4 -1535.25 -297.85 -1509.4 -265.35 -1483.55 -297.85
M -1612.8 -330.4
L -1586.95 -297.85 -1561.1 -265.35 -1535.25 -297.85
M -1535.25 -362.9
L -1561.1 -395.4 -1586.95 -362.9
M -1535.25 -232.85
L -1561.1 -265.35 -1586.95 -232.85 -1612.8 -200.35 -1586.95 -167.8 -1561.1 -135.3 -1535.25 -167.8 -1509.4 -200.35 -1535.25 -232.85 -1509.4 -265.35 -1483.55 -232.85
M -1586.95 -232.85
L -1612.8 -265.35 -1638.65 -232.85
M -1586.95 -297.85
L -1612.8 -265.35 -1638.65 -297.85
M -1535.25 -102.8
L -1509.4 -70.3 -1483.55 -102.8 -1509.4 -135.3 -1535.25 -102.8 -1561.1 -135.3 -1586.95 -102.8 -1612.8 -70.3 -1586.95 -37.75 -1561.1 -5.25 -1535.25 -37.75 -1509.4 -70.3 -1483.55 -37.75 -1457.7 -5.25 -1431.85 -37.75 -1406 -70.3 -1431.85 -102.8 -1457.7 -135.3 -1483.55 -102.8
M -1483.55 -167.8
L -1509.4 -135.3 -1535.25 -167.8
M -1586.95 -102.8
L -1612.8 -135.3 -1638.65 -102.8
M -1586.95 -167.8
L -1612.8 -135.3 -1638.65 -167.8
M -1586.95 -37.75
L -1612.8 -5.25 -1586.95 27.25 -1561.1 -5.25 -1535.25 27.25 -1509.4 -5.25 -1535.25 -37.75
M -1483.55 -37.75
L -1509.4 -5.25 -1483.55 27.25 -1457.7 -5.25 -1431.85 27.25 -1406 -5.25 -1431.85 -37.75
M -1276.75 -102.8
L -1302.6 -135.3 -1328.45 -102.8 -1302.6 -70.3 -1328.45 -37.75 -1302.6 -5.25 -1276.75 -37.75
M -1302.6 -135.3
L -1328.45 -167.8
M -1328.45 -102.8
L -1354.3 -135.3 -1380.15 -102.8 -1406 -70.3 -1380.15 -37.75 -1354.3 -5.25 -1328.45 -37.75
M -1380.15 -102.8
L -1406 -135.3 -1431.85 -102.8
M -1380.15 -37.75
L -1406 -5.25 -1380.15 27.25 -1354.3 -5.25 -1328.45 27.25 -1302.6 -5.25 -1276.75 27.25 -1250.9 -5.25 -1225.05 27.25 -1199.2 -5.25 -1173.35 27.25 -1147.5 -5.25
M -1612.8 -395.4
L -1638.65 -427.9
M -1638.65 -623
L -1612.8 -655.5 -1638.65 -688
M -1302.6 -395.4
L -1328.45 -427.9
M -1431.85 -427.9
L -1406 -395.4 -1380.15 -427.9
M -1483.55 -427.9
L -1509.4 -395.4 -1535.25 -427.9
M -1586.95 -427.9
L -1612.8 -395.4
M -1690.35 -427.9
L -1716.2 -395.4 -1742.05 -427.9
M -1380.15 27.25
L -1406 59.75 -1380.15 92.3 -1354.3 124.8 -1328.45 92.3 -1302.6 59.75 -1328.45 27.25
M -1483.55 27.25
L -1509.4 59.75 -1483.55 92.3 -1457.7 124.8 -1431.85 92.3 -1406 59.75 -1431.85 27.25
M -1406 189.8
L -1380.15 222.35 -1354.3 254.85 -1328.45 222.35 -1302.6 189.8 -1328.45 157.3 -1354.3 124.8 -1380.15 157.3 -1406 189.8 -1431.85 157.3 -1457.7 124.8 -1483.55 157.3 -1509.4 189.8 -1483.55 222.35 -1457.7 254.85 -1431.85 222.35 -1406 189.8 Z
M -1380.15 157.3
L -1406 124.8 -1431.85 157.3
M -1302.6 189.8
L -1276.75 157.3 -1302.6 124.8 -1328.45 157.3
M -1431.85 92.3
L -1406 124.8 -1380.15 92.3
M -1302.6 124.8
L -1328.45 92.3
M -1586.95 27.25
L -1612.8 59.75 -1586.95 92.3 -1561.1 124.8 -1535.25 92.3 -1509.4 59.75 -1535.25 27.25
M -1535.25 222.35
L -1509.4 189.8 -1535.25 157.3 -1561.1 124.8 -1586.95 157.3 -1612.8 189.8 -1586.95 222.35 -1561.1 254.85 -1535.25 222.35 -1509.4 254.85 -1483.55 222.35
M -1586.95 157.3
L -1612.8 124.8 -1638.65 157.3 -1612.8 189.8 -1638.65 222.35 -1612.8 254.85 -1586.95 222.35
M -1483.55 157.3
L -1509.4 124.8 -1535.25 157.3
M -1586.95 92.3
L -1612.8 124.8 -1638.65 92.3 -1664.5 124.8 -1638.65 157.3
M -1483.55 92.3
L -1509.4 124.8 -1535.25 92.3
M -1483.55 287.35
L -1509.4 254.85 -1535.25 287.35
M -1586.95 287.35
L -1612.8 254.85 -1638.65 287.35
M -1276.75 287.35
L -1302.6 254.85 -1328.45 287.35
M -1302.6 254.85
L -1328.45 222.35
M -1380.15 287.35
L -1406 254.85 -1431.85 287.35
M -1380.15 222.35
L -1406 254.85 -1431.85 222.35
M -1716.2 189.8
L -1690.35 157.3 -1716.2 124.8 -1742.05 157.3
M -1664.5 124.8
L -1690.35 157.3
M -1690.35 27.25
L -1716.2 59.75 -1690.35 92.3 -1664.5 124.8
M -1690.35 92.3
L -1716.2 124.8 -1742.05 92.3
M -1716.2 189.8
L -1690.35 222.35 -1664.5 254.85 -1638.65 222.35
M -1742.05 287.35
L -1716.2 254.85 -1742.05 222.35
M -1690.35 222.35
L -1716.2 254.85 -1690.35 287.35
M -1638.65 92.3
L -1612.8 59.75 -1638.65 27.25
M -1069.95 27.25
L -1095.8 59.75 -1069.95 92.3 -1044.1 124.8 -1018.25 92.3 -992.4 59.75 -1018.25 27.25
M -1173.35 27.25
L -1199.2 59.75 -1173.35 92.3 -1147.5 124.8 -1121.65 92.3 -1095.8 59.75 -1121.65 27.25
M -1121.65 222.35
L -1095.8 189.8 -1121.65 157.3 -1147.5 124.8 -1173.35 157.3 -1199.2 189.8 -1173.35 222.35 -1147.5 254.85 -1121.65 222.35 -1095.8 254.85 -1069.95 222.35 -1095.8 189.8 -1069.95 157.3 -1095.8 124.8 -1121.65 157.3
M -1069.95 222.35
L -1044.1 254.85 -1018.25 222.35 -992.4 189.8 -1018.25 157.3 -1044.1 124.8 -1069.95 157.3
M -966.55 157.3
L -992.4 124.8 -1018.25 157.3
M -1069.95 92.3
L -1095.8 124.8 -1121.65 92.3
M -992.4 124.8
L -1018.25 92.3
M -1302.6 189.8
L -1276.75 222.35 -1250.9 254.85 -1225.05 222.35 -1199.2 189.8 -1225.05 157.3 -1250.9 124.8 -1276.75 157.3
M -1173.35 157.3
L -1199.2 124.8 -1225.05 157.3
M -1276.75 27.25
L -1302.6 59.75 -1276.75 92.3 -1250.9 124.8 -1225.05 92.3 -1199.2 59.75 -1225.05 27.25
M -1225.05 92.3
L -1199.2 124.8 -1173.35 92.3
M -1173.35 222.35
L -1199.2 254.85 -1173.35 287.35
M -1225.05 287.35
L -1199.2 254.85 -1225.05 222.35
M -1018.25 287.35
L -992.4 254.85 -1018.25 222.35
M -1069.95 287.35
L -1095.8 254.85 -1121.65 287.35
M -966.55 287.35
L -992.4 254.85 -966.55 222.35
M -966.55 92.3
L -992.4 124.8
M -1276.75 222.35
L -1302.6 254.85
M -1276.75 92.3
L -1302.6 124.8
M -1276.75 -167.8
L -1302.6 -135.3
M -1276.75 -427.9
L -1302.6 -395.4
M -1276.75 -557.95
L -1302.6 -525.45 -1276.75 -492.95
M -1276.75 -623
L -1302.6 -655.5 -1276.75 -688"/>

<path id="Layer0_0_2_STROKES" stroke="#663366" stroke-width="0.8" stroke-linejoin="bevel" stroke-linecap="butt" fill="none" d="
M 77.25 130.5
L 78.7 128.65 76.55 125.9 74.35 128.65 75.825 130.5
M 68.525 130.5
L 70 128.65 67.8 125.9 65.65 128.65 67.1 130.5
M 59.8 130.5
L 61.25 128.65 59.1 125.9 56.9 128.65 58.375 130.5
M 51.075 130.5
L 52.55 128.65 50.35 125.9 48.2 128.65 49.65 130.5
M 42.35 130.5
L 43.8 128.65 41.65 125.9 39.45 128.65 40.925 130.5
M 33.625 130.5
L 35.1 128.65 32.9 125.9 30.75 128.65 32.2 130.5
M 24.9 130.5
L 26.35 128.65 24.2 125.9 22 128.65 23.475 130.5
M 16.175 130.5
L 17.65 128.65 15.45 125.9 13.25 128.65 14.725 130.5
M 70 13.4
L 67.8 16.1 70 18.85 72.15 16.1 70 13.4 67.8 10.65 65.65 13.4 67.8 16.1 65.65 18.85 67.8 21.6 70 18.85
M 59.1 10.65
L 61.25 13.4 63.45 16.1 65.65 13.4
M 67.8 21.6
L 70 24.35 72.15 27.1 74.35 24.35 76.55 21.6 74.35 18.85 72.15 16.1 74.35 13.4 76.55 10.65 78.7 13.4 80.9 16.1 78.7 18.85 76.55 21.6 78.7 24.35 80.9 27.1 78.7 29.85 76.55 32.6 78.7 35.3 80.9 38.05 78.7 40.8 76.55 43.55 78.7 46.3 80.9 49.05 78.7 51.8 76.55 54.55 78.7 57.3 80.9 60.05 78.7 62.75 76.525 65.475 76.55 65.5 78.7 68.25 80.9 71 78.7 73.75 76.55 76.5 78.7 79.25 80.9 82 78.7 84.7 76.55 87.45 78.7 90.2 80.9 92.95 78.7 95.7 76.55 98.45 78.7 101.2 80.9 103.95 78.7 106.7 76.55 109.45 78.7 112.2 80.9 114.95 78.7 117.65 76.55 120.4 78.7 123.15 80.9 125.9 78.7 128.65
M 65.65 18.85
L 63.45 16.1 61.25 18.85 59.1 21.6 61.25 24.35 63.45 27.1 65.65 24.35 67.8 21.6
M 78.7 13.4
L 76.55 16.1 78.7 18.85
M 74.35 18.85
L 76.55 16.1 74.35 13.4
M 48.2 18.85
L 50.35 16.1 48.2 13.4 46 16.1 48.2 18.85 50.35 21.6 52.55 18.85 50.35 16.1 52.55 13.4 50.35 10.65 48.2 13.4
M 43.8 13.4
L 41.65 16.1 43.8 18.85 46 16.1 43.8 13.4 41.65 10.65 39.45 13.4 41.65 16.1 39.45 18.85 41.65 21.6 43.8 18.85
M 41.65 21.6
L 43.8 24.35 46 27.1 48.2 24.35 50.35 21.6 52.55 24.35 54.7 27.1 56.9 24.35 59.1 21.6 56.9 18.85 54.7 16.1 52.55 18.85
M 52.55 13.4
L 54.7 16.1 56.9 13.4 59.1 10.65
M 61.25 18.85
L 59.1 16.1 56.9 18.85
M 59.1 16.1
L 56.9 13.4
M 61.25 29.85
L 59.1 27.1 56.9 29.85 59.1 32.6 61.25 29.85 63.45 27.1 65.65 29.85 67.8 27.1 65.65 24.35
M 56.9 29.85
L 54.7 27.1 52.55 29.85 50.35 32.6 52.55 35.3 54.7 38.05 56.9 35.3 59.1 32.6 61.25 35.3 63.45 38.05 65.65 35.3 67.8 32.6 65.65 29.85
M 52.55 29.85
L 50.35 27.1 48.2 29.85 50.35 32.6 48.2 35.3 50.35 38.05 52.55 35.3
M 43.8 29.85
L 41.65 27.1 39.45 29.85 41.65 32.6 43.8 29.85 46 27.1 48.2 29.85
M 41.65 32.6
L 43.8 35.3 46 38.05 48.2 35.3
M 48.2 40.8
L 46 38.05 43.8 40.8 41.65 43.55 43.8 46.3 46 49.05 48.2 46.3 50.35 43.55 48.2 40.8 50.35 38.05 52.55 40.8 54.7 38.05 56.9 40.8 59.1 38.05 56.9 35.3
M 43.8 40.8
L 41.65 38.05 39.45 40.8 41.65 43.55 39.45 46.3 41.65 49.05 43.8 46.3
M 48.2 51.8
L 50.35 49.05 48.2 46.3
M 52.55 40.8
L 50.35 43.55 52.55 46.3 54.7 49.05 56.9 46.3 59.1 43.55 56.9 40.8
M 56.9 51.8
L 59.1 49.05 56.9 46.3
M 43.8 35.3
L 41.65 38.05 39.45 35.3 37.25 38.05 39.45 40.8
M 52.55 46.3
L 50.35 49.05 52.55 51.8 54.7 49.05 56.9 51.8 59.1 54.55 61.25 51.8 59.1 49.05 61.25 46.3 59.1 43.55 61.25 40.8 59.1 38.05 61.25 35.3
M 78.7 29.85
L 76.55 27.1 74.35 29.85 76.55 32.6 74.35 35.3 76.55 38.05 78.7 35.3
M 74.35 29.85
L 72.15 27.1 70 29.85 67.8 32.6 70 35.3 72.15 38.05 74.35 35.3
M 70 29.85
L 67.8 27.1 70 24.35
M 70 40.8
L 67.8 38.05 65.65 40.8 67.8 43.55 70 40.8 72.15 38.05 74.35 40.8 76.55 38.05 78.7 40.8
M 65.65 40.8
L 63.45 38.05 61.25 40.8
M 61.25 46.3
L 63.45 49.05 65.65 46.3 67.8 43.55 70 46.3 72.15 49.05 74.35 46.3 76.55 43.55 74.35 40.8
M 70 46.3
L 67.8 49.05 70 51.8 72.15 49.05 74.35 51.8 76.55 49.05 74.35 46.3
M 65.65 51.8
L 67.8 49.05 65.65 46.3
M 78.7 46.3
L 76.55 49.05 78.7 51.8
M 70 35.3
L 67.8 38.05 65.65 35.3
M 74.35 24.35
L 76.55 27.1 78.7 24.35
M 61.25 13.4
L 59.1 16.1
M 56.9 24.35
L 59.1 27.1 61.25 24.35
M 43.8 24.35
L 41.65 27.1 39.45 24.35 37.25 27.1 39.45 29.85
M 48.2 24.35
L 50.35 27.1 52.55 24.35
M 24.2 10.65
L 26.35 13.4 28.55 16.1 30.75 13.4 32.9 10.65 35.1 13.4 37.25 16.1 39.45 13.4
M 22 18.85
L 24.2 16.1 22 13.4 19.8 16.1 22 18.85 24.2 21.6 26.35 18.85 24.2 16.1 26.35 13.4
M 19.8 16.1
L 17.65 18.85 15.45 21.6 17.65 24.35 19.8 27.1 22 24.35 24.2 21.6 26.35 24.35 28.55 27.1 30.75 24.35 32.9 21.6 30.75 18.85 28.55 16.1 26.35 18.85
M 35.1 13.4
L 32.9 16.1 35.1 18.85 37.25 16.1 39.45 18.85
M 30.75 18.85
L 32.9 16.1 30.75 13.4
M 35.1 18.85
L 32.9 21.6 35.1 24.35 37.25 27.1 35.1 29.85 32.9 32.6 35.1 35.3 37.25 38.05 35.1 40.8 32.9 43.55 35.1 46.3 37.25 49.05 39.45 46.3
M 22 13.4
L 24.2 10.65
M 17.65 13.4
L 15.45 16.1 17.65 18.85
M 15.45 10.65
L 17.65 13.4 19.8 16.1
M 11.1 16.1
L 13.25 13.4 15.45 10.65
M 11.1 27.1
L 13.25 24.35 15.45 21.6 13.25 18.85 11.1 16.1
M 13.25 18.85
L 15.45 16.1 13.25 13.4
M 19.8 27.1
L 17.65 29.85 15.45 32.6 17.65 35.3 19.8 38.05 22 35.3 24.2 32.6 22 29.85 19.8 27.1 Z
M 17.65 29.85
L 15.45 27.1 13.25 29.85 15.45 32.6 13.25 35.3 15.45 38.05 17.65 35.3
M 13.25 29.85
L 11.1 27.1
M 19.8 38.05
L 17.65 40.8 15.45 43.55 17.65 46.3 19.8 49.05 22 46.3 24.2 43.55 22 40.8 19.8 38.05 Z
M 17.65 40.8
L 15.45 38.05 13.25 40.8 15.45 43.55 13.25 46.3 15.45 49.05 17.65 46.3
M 13.25 40.8
L 11.1 38.05 13.25 35.3
M 11.1 49.05
L 13.25 46.3
M 35.1 29.85
L 32.9 27.1 30.75 29.85 32.9 32.6 30.75 35.3 32.9 38.05 35.1 35.3
M 26.35 29.85
L 24.2 27.1 22 29.85
M 30.75 29.85
L 28.55 27.1 26.35 29.85 24.2 32.6 26.35 35.3 28.55 38.05 30.75 35.3
M 28.55 38.05
L 26.35 40.8 24.2 43.55 26.35 46.3 28.55 49.05 30.75 46.3 32.9 43.55 30.75 40.8 28.55 38.05 Z
M 26.35 40.8
L 24.2 38.05 22 40.8
M 22 51.8
L 24.2 49.05 22 46.3
M 26.35 46.3
L 24.2 49.05 26.35 51.8 28.55 49.05 30.75 51.8 32.9 49.05 30.75 46.3
M 35.1 40.8
L 32.9 38.05 30.75 40.8
M 35.1 46.3
L 32.9 49.05 35.1 51.8 37.25 49.05 39.45 51.8 41.65 49.05 43.8 51.8 46 49.05 48.2 51.8 50.35 54.55 52.55 51.8
M 22 35.3
L 24.2 38.05 26.35 35.3
M 30.75 24.35
L 32.9 27.1 35.1 24.35
M 22 24.35
L 24.2 27.1 26.35 24.35
M 17.65 24.35
L 15.45 27.1 13.25 24.35
M 26.35 51.8
L 24.2 54.55 26.35 57.3 28.55 60.05 30.75 57.3 32.9 54.55 30.75 51.8
M 35.1 51.8
L 32.9 54.55 35.1 57.3 37.25 60.05 39.45 57.3 41.65 54.55 39.45 51.8
M 30.75 62.75
L 32.9 60.05 30.75 57.3
M 35.1 57.3
L 32.9 60.05 35.1 62.75 37.25 60.05 39.45 62.75 41.65 60.05 39.45 57.3
M 22 51.8
L 19.8 49.05 17.65 51.8 15.45 54.55 17.65 57.3 19.8 60.05 22 57.3 24.2 54.55 22 51.8 Z
M 22 62.75
L 24.2 60.05 22 57.3
M 26.35 57.3
L 24.2 60.05 26.35 62.75 28.55 60.05 30.75 62.75 32.875 65.475 35.1 62.75
M 24.225 65.475
L 22 62.75 19.8 60.05 17.65 62.75 15.425 65.475 15.45 65.5 17.65 68.25 19.8 71 22 68.25 24.2 65.5 24.225 65.475 26.35 62.75
M 26.35 73.75
L 24.2 71 22 73.75 24.2 76.5 26.35 73.75 28.55 71 26.35 68.25 24.2 71 22 68.25
M 24.2 65.5
L 26.35 68.25
M 32.9 65.5
L 32.875 65.475
M 35.1 73.75
L 32.9 71 30.75 73.75 32.9 76.5 35.1 73.75 37.25 71 35.1 68.25 32.9 71 30.75 68.25 28.55 71 30.75 73.75
M 32.9 76.5
L 35.1 79.25 37.25 82 39.45 79.25 41.65 76.5 39.45 73.75 37.25 71 39.45 68.25 41.65 65.5 41.625 65.475 39.45 62.75
M 35.1 68.25
L 32.9 65.5 30.75 68.25
M 11.1 60.05
L 13.25 57.3 15.45 54.55 13.25 51.8 11.1 49.05
M 17.65 57.3
L 15.45 60.05 17.65 62.75
M 13.25 62.75
L 15.45 60.05 13.25 57.3
M 11.1 82
L 13.25 79.25 15.45 76.5 13.25 73.75 11.1 71 13.25 68.25 15.45 65.5
M 22 73.75
L 19.8 71 17.65 73.75 15.45 76.5 17.65 79.25 19.8 82 22 79.25 24.2 76.5 26.35 79.25 28.55 82 30.75 79.25 32.9 76.5
M 17.65 73.75
L 15.45 71 13.25 73.75
M 17.65 68.25
L 15.45 71 13.25 68.25
M 15.425 65.475
L 13.25 62.75 11.1 60.05
M 11.1 92.95
L 13.25 90.2 15.45 87.45 13.25 84.7 11.1 82
M 17.65 84.7
L 15.45 82 13.25 84.7
M 19.8 82
L 17.65 84.7 15.45 87.45 17.65 90.2 19.8 92.95 22 90.2 24.2 87.45 22 84.7 19.8 82 Z
M 13.25 79.25
L 15.45 82 17.65 79.25
M 11.1 103.95
L 13.25 101.2 15.45 98.45 13.25 95.7 11.1 92.95
M 19.8 92.95
L 17.65 95.7 15.45 98.45 17.65 101.2 19.8 103.95 22 101.2 24.2 98.45 22 95.7 19.8 92.95 Z
M 17.65 95.7
L 15.45 92.95 13.25 95.7
M 17.65 90.2
L 15.45 92.95 13.25 90.2
M 35.1 84.7
L 32.9 82 30.75 84.7 32.9 87.45 35.1 84.7 37.25 82 39.45 84.7 41.65 82 39.45 79.25
M 35.1 79.25
L 32.9 82 30.75 79.25
M 22 84.7
L 24.2 82 22 79.25
M 26.35 79.25
L 24.2 82 26.35 84.7 28.55 82 30.75 84.7
M 26.35 95.7
L 24.2 92.95 22 95.7
M 32.9 98.45
L 30.75 95.7 28.55 92.95 26.35 95.7 24.2 98.45 26.35 101.2 28.55 103.95 30.75 101.2 32.9 98.45 35.1 95.7 32.9 92.95 30.75 95.7
M 24.2 92.95
L 22 90.2
M 26.35 84.7
L 24.2 87.45 26.35 90.2 28.55 92.95 30.75 90.2 32.9 87.45 35.1 90.2 37.25 92.95 39.45 90.2 41.65 87.45 39.45 84.7
M 26.35 90.2
L 24.2 92.95
M 32.9 98.45
L 35.1 101.2 37.25 103.95 39.45 101.2 41.65 98.45 39.45 95.7 37.25 92.95 35.1 95.7
M 35.1 90.2
L 32.9 92.95 30.75 90.2
M 70 51.8
L 67.8 54.55 70 57.3 72.15 60.05 74.35 57.3 76.55 54.55 74.35 51.8
M 78.7 57.3
L 76.55 60.05 78.7 62.75
M 74.35 62.75
L 76.55 60.05 74.35 57.3
M 59.1 54.55
L 61.25 57.3 63.45 60.05 65.65 57.3 67.8 54.55 65.65 51.8 63.45 49.05 61.25 51.8
M 65.65 62.75
L 67.8 60.05 65.65 57.3
M 70 57.3
L 67.8 60.05 70 62.75 72.15 60.05 74.35 62.75 76.525 65.475
M 70 62.75
L 67.775 65.475 67.8 65.5 70 68.25 72.15 71 74.35 68.25 76.55 65.5
M 59.1 65.5
L 61.25 68.25 63.45 71 65.65 68.25 67.8 65.5
M 63.45 71
L 61.25 73.75 59.1 76.5 61.25 79.25 63.45 82 65.65 79.25 67.8 76.5 65.65 73.75 63.45 71 Z
M 70 68.25
L 67.8 71 70 73.75 72.15 71 74.35 73.75 76.55 71 74.35 68.25
M 67.775 65.475
L 65.65 62.75 63.45 60.05 61.25 62.75 59.125 65.475 59.1 65.5 56.9 68.25 59.1 71 61.25 68.25
M 65.65 73.75
L 67.8 71 65.65 68.25
M 78.7 73.75
L 76.55 71 78.7 68.25
M 50.35 54.55
L 52.55 57.3 54.7 60.05 56.9 57.3 59.1 54.55
M 56.9 62.75
L 59.1 60.05 56.9 57.3
M 48.2 62.75
L 50.35 60.05 48.2 57.3 46 60.05 48.2 62.75 50.375 65.475 52.55 62.75 50.35 60.05 52.55 57.3
M 48.2 57.3
L 50.35 54.55
M 43.8 51.8
L 41.65 54.55 43.8 57.3 46 60.05 43.8 62.75 41.625 65.475
M 43.8 57.3
L 41.65 60.05 43.8 62.75
M 50.375 65.475
L 50.35 65.5 52.55 68.25 54.7 71 56.9 68.25
M 43.8 68.25
L 41.65 71 43.8 73.75 46 71 43.8 68.25 41.65 65.5
M 43.8 73.75
L 41.65 76.5 43.8 79.25 46 82 48.2 79.25 50.35 76.5 48.2 73.75 46 71 48.2 68.25 50.35 65.5
M 48.2 73.75
L 50.35 71 48.2 68.25
M 59.125 65.475
L 56.9 62.75 54.7 60.05 52.55 62.75
M 56.9 73.75
L 54.7 71 52.55 73.75 50.35 76.5 52.55 79.25 54.7 82 56.9 79.25 59.1 76.5 56.9 73.75 59.1 71 61.25 73.75
M 52.55 68.25
L 50.35 71 52.55 73.75
M 54.7 82
L 52.55 84.7 50.35 87.45 52.55 90.2 54.7 92.95 56.9 90.2 59.1 87.45 56.9 84.7 54.7 82 Z
M 61.25 84.7
L 59.1 82 56.9 84.7
M 59.1 82
L 56.9 79.25
M 43.8 84.7
L 41.65 82 43.8 79.25
M 52.55 84.7
L 50.35 82 48.2 84.7 50.35 87.45 48.2 90.2 50.35 92.95 52.55 90.2
M 48.2 84.7
L 46 82 43.8 84.7 41.65 87.45 43.8 90.2 46 92.95 48.2 90.2
M 50.35 82
L 48.2 79.25
M 43.8 95.7
L 41.65 92.95 39.45 95.7
M 48.2 95.7
L 46 92.95 43.8 95.7 41.65 98.45 43.8 101.2 46 103.95 48.2 101.2 50.35 98.45 48.2 95.7 50.35 92.95 52.55 95.7 54.7 92.95 56.9 95.7 59.1 92.95 56.9 90.2
M 43.8 90.2
L 41.65 92.95 39.45 90.2
M 52.55 95.7
L 50.35 98.45 52.55 101.2 54.7 103.95 56.9 101.2 59.1 98.45 56.9 95.7
M 52.55 79.25
L 50.35 82
M 70 84.7
L 67.8 87.45 70 90.2 72.15 92.95 74.35 90.2 76.55 87.45 74.35 84.7 72.15 82 70 84.7 67.8 82 65.65 84.7 67.8 87.45 65.65 90.2 67.8 92.95 70 90.2
M 78.7 84.7
L 76.55 82 74.35 84.7
M 70 73.75
L 67.8 76.5 70 79.25 72.15 82 74.35 79.25 76.55 76.5 74.35 73.75
M 74.35 79.25
L 76.55 82 78.7 79.25
M 65.65 84.7
L 63.45 82 61.25 84.7 59.1 87.45 61.25 90.2 63.45 92.95 65.65 90.2
M 70 79.25
L 67.8 82 65.65 79.25
M 63.45 92.95
L 61.25 95.7 59.1 98.45 61.25 101.2 63.45 103.95 65.65 101.2 67.8 98.45 65.65 95.7 63.45 92.95 Z
M 74.35 95.7
L 72.15 92.95 70 95.7 67.8 98.45 70 101.2 72.15 103.95 74.35 101.2 76.55 98.45 74.35 95.7 76.55 92.95 74.35 90.2
M 70 95.7
L 67.8 92.95 65.65 95.7
M 78.7 95.7
L 76.55 92.95 78.7 90.2
M 61.25 90.2
L 59.1 92.95 61.25 95.7
M 61.25 79.25
L 59.1 82
M 61.25 57.3
L 59.1 60.05 61.25 62.75
M 39.45 73.75
L 41.65 71 39.45 68.25
M 17.65 51.8
L 15.45 49.05 13.25 51.8
M 39.45 35.3
L 41.65 32.6
M 39.45 24.35
L 41.65 21.6
M 78.7 101.2
L 76.55 103.95 78.7 106.7
M 74.35 106.7
L 72.15 103.95 70 106.7 67.8 109.45 70 112.2 72.15 114.95 74.35 112.2 76.55 109.45 74.35 106.7 76.55 103.95 74.35 101.2
M 70 101.2
L 67.8 103.95 70 106.7
M 63.45 103.95
L 61.25 106.7 59.1 109.45 61.25 112.2 63.45 114.95 65.65 112.2 67.8 109.45 65.65 106.7 63.45 103.95 Z
M 65.65 106.7
L 67.8 103.95 65.65 101.2
M 70 112.2
L 67.8 114.95 70 117.65 72.15 114.95 74.35 117.65 76.55 114.95 74.35 112.2
M 70 117.65
L 67.8 120.4 70 123.15 72.15 125.9 74.35 123.15 76.55 120.4 74.35 117.65
M 63.45 114.95
L 61.25 117.65 59.1 120.4 61.25 123.15 63.45 125.9 65.65 123.15 67.8 120.4 65.65 117.65 63.45 114.95 Z
M 65.65 117.65
L 67.8 114.95 65.65 112.2
M 78.7 112.2
L 76.55 114.95 78.7 117.65
M 56.9 106.7
L 59.1 103.95 56.9 101.2
M 54.7 103.95
L 52.55 106.7 50.35 109.45 52.55 112.2 54.7 114.95 56.9 112.2 59.1 109.45 56.9 106.7 54.7 103.95 Z
M 48.2 106.7
L 50.35 103.95 48.2 101.2
M 43.8 101.2
L 41.65 103.95 43.8 106.7 46 103.95 48.2 106.7 50.35 109.45 48.2 112.2 50.35 114.95 52.55 112.2
M 43.8 106.7
L 41.65 109.45 43.8 112.2 46 114.95 48.2 112.2
M 43.8 112.2
L 41.65 114.95 43.8 117.65 46 114.95 48.2 117.65 50.35 114.95 52.55 117.65 54.7 114.95 56.9 117.65 59.1 114.95 56.9 112.2
M 43.8 117.65
L 41.65 120.4 43.8 123.15 46 125.9 48.2 123.15 50.35 120.4 48.2 117.65
M 52.55 117.65
L 50.35 120.4 52.55 123.15 54.7 125.9 56.9 123.15 59.1 120.4 56.9 117.65
M 52.55 106.7
L 50.35 103.95 52.55 101.2
M 56.9 128.65
L 54.7 125.9 52.55 128.65
M 48.2 128.65
L 46 125.9 43.8 128.65
M 74.35 128.65
L 72.15 125.9 70 128.65
M 65.65 128.65
L 63.45 125.9 61.25 128.65
M 61.25 106.7
L 59.1 103.95 61.25 101.2
M 61.25 117.65
L 59.1 114.95 61.25 112.2
M 61.25 123.15
L 59.1 125.9 56.9 123.15
M 65.65 123.15
L 67.8 125.9 70 123.15
M 74.35 123.15
L 76.55 125.9 78.7 123.15
M 52.55 123.15
L 50.35 125.9 48.2 123.15
M 43.8 123.15
L 41.65 125.9 39.45 123.15 37.25 125.9 39.45 128.65
M 35.1 101.2
L 32.9 103.95 35.1 106.7 37.25 103.95 39.45 106.7 41.65 103.95 39.45 101.2
M 30.75 106.7
L 32.9 103.95 30.75 101.2
M 35.1 106.7
L 32.9 109.45 35.1 112.2 37.25 114.95 39.45 112.2 41.65 109.45 39.45 106.7
M 28.55 103.95
L 26.35 106.7 24.2 109.45 26.35 112.2 28.55 114.95 30.75 112.2 32.9 109.45 30.75 106.7 28.55 103.95 Z
M 26.35 106.7
L 24.2 103.95 22 106.7 24.2 109.45 22 112.2 24.2 114.95 26.35 112.2
M 26.35 101.2
L 24.2 103.95 22 101.2
M 19.8 114.95
L 17.65 117.65 15.45 120.4 17.65 123.15 19.8 125.9 22 123.15 24.2 120.4 22 117.65 19.8 114.95 17.65 112.2 15.45 114.95 17.65 117.65
M 28.55 114.95
L 26.35 117.65 24.2 120.4 26.35 123.15 28.55 125.9 30.75 123.15 32.9 120.4 30.75 117.65 28.55 114.95 Z
M 26.35 117.65
L 24.2 114.95 22 117.65
M 30.75 117.65
L 32.9 114.95 30.75 112.2
M 35.1 112.2
L 32.9 114.95 35.1 117.65 37.25 114.95 39.45 117.65 41.65 114.95 39.45 112.2
M 35.1 117.65
L 32.9 120.4 35.1 123.15 37.25 125.9 35.1 128.65
M 17.65 101.2
L 15.45 103.95 17.65 106.7 19.8 103.95 22 106.7
M 17.65 106.7
L 15.45 109.45 17.65 112.2
M 11.1 114.95
L 13.25 112.2 15.45 109.45 13.25 106.7 11.1 103.95
M 13.25 106.7
L 15.45 103.95 13.25 101.2
M 11.1 125.9
L 13.25 123.15 15.45 120.4 13.25 117.65 11.1 114.95
M 13.25 117.65
L 15.45 114.95 13.25 112.2
M 22 128.65
L 19.8 125.9 17.65 128.65
M 13.25 128.65
L 11.1 125.9
M 30.75 128.65
L 28.55 125.9 26.35 128.65
M 19.8 114.95
L 22 112.2
M 26.35 123.15
L 24.2 125.9 22 123.15
M 30.75 123.15
L 32.9 125.9 35.1 123.15
M 13.25 123.15
L 15.45 125.9 17.65 123.15
M 39.45 123.15
L 41.65 120.4 39.45 117.65"/>
</defs>

<g transform="matrix( 1, 0, 0, 1, 0,0) ">
<use xlink:href="#Layer2_0_FILL"/>
</g>

<g transform="matrix( 1, 0, 0, 1, 0,0) ">
<use xlink:href="#Layer1_0_FILL"/>
</g>

<g transform="matrix( 1, 0, 0, 1, 0,0) ">
<use xlink:href="#Layer0_0_FILL"/>

<use xlink:href="#Layer0_0_1_STROKES"/>

<use xlink:href="#Layer0_0_2_STROKES"/>
</g>
</svg>
